<?xml version="1.0" encoding="UTF-8"?>
<svg
  xmlns:xlink="http://www.w3.org/1999/xlink"
  xmlns="http://www.w3.org/2000/svg"
  width="100"
  height="100"
  viewBox="-460 2100 360 360"
  fill="CanvasText"
>
  <path
    fill-rule="evenodd"
    d="M-313.5 2384 L-317 2383.5 L-319.75 2382.75 L-321.25 2379 L-322.125 2372.25 L-325.5 2372 L-328 2369.5 L-327 2368.5 L-327 2367.5 L-326 2366.5 L-327.5 2365 L-329.75 2365.25 L-329 2370.5 L-327 2372.5 L-327 2374.5 L-328.5 2376 L-329.5 2376 L-330.5 2377 L-332.5 2375 L-335.5 2374 L-338 2371.5 L-338.375 2370 L-340.5 2364 L-341.25 2360.25 L-356 2354.5 L-375.5 2350 L-379 2346.5 L-378 2345.5 L-378.25 2344.25 L-379.75 2343.75 L-379.5 2342 L-378.75 2340.25 L-361 2335.25 L-354 2332.5 L-316 2322.5 L-236 2317.63 L-227 2318.75 L-226.5 2260 L-227.5 2254 L-228 2245.5 L-226.5 2244 L-224.25 2244.25 L-224 2247.5 L-222 2249.5 L-220 2257.5 L-220 2258 L-219 2257.5 L-220 2245.5 L-218.5 2244 L-216.5 2244 L-215 2245.5 L-214.375 2248 L-212.625 2252 L-211.625 2256 L-210.5 2264 L-212.5 2308 L-213.75 2318 L-213.375 2321 L-213 2322.5 L-211.5 2324 L-209 2324.5 L-206 2324.75 L-203.375 2284 L-207 2249.5 L-205.5 2248 L-204 2249.5 L-203 2252.5 L-201 2254.5 L-200.375 2257 L-199.625 2259 L-197.625 2266 L-195.5 2282 L-198 2329.75 L-196 2330.5 L-194 2331.5 L-192.5 2332 L-188 2336.5 L-189 2337.5 L-188 2338.5 L-188.125 2344.75 L-189.75 2344.75 L-190 2343.5 L-192.5 2341 L-194 2340.63 L-213 2333.5 L-217 2332.5 L-220.5 2332 L-221.5 2331 L-222 2331.5 L-221.75 2334.75 L-217.25 2336.25 L-217.25 2337.75 L-221 2337.38 L-222.5 2337 L-223 2337.5 L-222 2338.5 L-223.5 2340 L-226.5 2340 L-228 2338.5 L-228 2337.5 L-229.5 2336 L-230.5 2337 L-232.75 2337.25 L-233.25 2339 L-233.875 2344 L-186.5 2348 L-185.5 2349 L-185 2348.5 L-185 2347.5 L-183.5 2346 L-182 2347.5 L-184.25 2351.75 L-187 2351.38 L-189 2350.75 L-231.5 2347 L-232 2347.5 L-231 2348.5 L-230 2353.5 L-228 2355.5 L-227 2358.5 L-228.5 2360 L-235.5 2359 L-238 2356.5 L-238 2355.5 L-241 2352.5 L-241 2349.5 L-242 2348.5 L-241 2347.5 L-241.5 2347 L-249.5 2348 L-250 2348.5 L-249 2349.5 L-249 2351.5 L-248 2352.5 L-249 2353.5 L-248 2354.5 L-248 2357.5 L-249.5 2359 L-255.5 2358 L-258 2355.5 L-258.125 2349.25 L-260 2349.38 L-290 2359.63 L-294 2361.38 L-296.875 2362.25 L-296.25 2370 L-293.5 2378 L-293 2381.5 L-294.5 2383 L-299 2382.25 L-300.75 2381.75 L-301 2380.5 L-303 2378.5 L-304.25 2374.25 L-305.5 2374 L-306.5 2375 L-307.5 2374 L-309 2373.63 L-311.75 2373.25 L-312 2376.5 L-311 2377.5 L-312 2378.5 L-311 2381.5 L-313.5 2384 M-218 2265 L-218 2258.5 L-219 2258 L-219 2264.5 L-218 2265 M-219 2309 L-219 2307.5 L-220 2307 L-220 2308 L-219 2309 M-220 2320 L-220 2317.5 L-221 2317 L-221 2319.5 L-220 2320 M-315.5 2348 L-313.5 2346 L-311 2345.38 L-302 2341.63 L-270.25 2330.75 L-268.375 2326 L-268 2324.5 L-266.5 2323 L-265.5 2324 L-263.5 2324 L-262 2325.5 L-262 2326.5 L-263 2327.5 L-262.5 2328 L-261 2327.63 L-257.5 2327 L-257 2326 L-259.5 2326 L-261 2324.5 L-260 2323.5 L-260.25 2320 L-316 2324.5 L-344 2331.5 L-349 2333.38 L-353 2334.5 L-358 2336.38 L-375.5 2341 L-378 2343.5 L-377.5 2344 L-365 2343.5 L-358 2344.75 L-356 2345.5 L-354 2346.5 L-342 2351.5 L-339.5 2352 L-338 2350.5 L-337.625 2349 L-335.625 2344 L-335 2341.5 L-333.5 2340 L-330.5 2340 L-329 2341.5 L-329 2342.5 L-328 2343.5 L-329 2344.5 L-329.5 2346 L-330.5 2348 L-331.25 2350 L-331.875 2354.75 L-330 2354.75 L-325 2353.25 L-319.5 2350.5 L-315.5 2348 M-319 2354 L-319 2353 L-320 2353 L-320 2354 L-319 2354 M-321.5 2357 L-320 2355.5 L-320 2354.5 L-320.5 2354 L-321.5 2355 L-324.5 2356 L-325 2357 L-321.5 2357 M-255 2326 L-255 2325 L-256 2325 L-256 2326 L-255 2326 M-229.25 2333.75 L-228.375 2331 L-228.25 2329.25 L-236 2327.75 L-252 2327.75 L-257 2328.63 L-260 2329.63 L-262 2330.5 L-263.5 2331 L-265 2332.5 L-264 2333.5 L-265 2334.5 L-264.75 2336.75 L-256.5 2336 L-255 2334.5 L-255 2333.5 L-253.5 2332 L-251.5 2334 L-229.25 2333.75 M-311.5 2354 L-310.5 2353 L-309 2352.63 L-302 2349.5 L-300 2348.75 L-295 2347.25 L-289 2344.63 L-273.25 2338.75 L-272.625 2337 L-272.25 2334.25 L-275 2334.5 L-312 2348.5 L-313.5 2349 L-314 2350 L-313.5 2350 L-312.25 2350.25 L-312 2353.5 L-311.5 2354 M-260.5 2340 L-260 2339 L-263.5 2339 L-264 2340 L-260.5 2340 M-273.5 2343 L-273 2342 L-275.5 2342 L-276 2343 L-273.5 2343 M-258.25 2346.88 L-257.375 2344 L-257.25 2342.13 L-262 2342.75 L-263.75 2343.25 L-263.75 2346.88 L-258.25 2346.88 M-296.5 2360 L-295.5 2359 L-284 2354.5 L-280 2353.38 L-275 2351.5 L-271.25 2350.75 L-271 2349.5 L-273 2347.5 L-273.25 2345.25 L-275 2345.25 L-291 2349.5 L-294.5 2350 L-296 2351.5 L-297 2359.5 L-296.5 2360 M-309 2364.5 L-307 2363.5 L-305.5 2363 L-303 2360.5 L-302 2355.5 L-300 2353.5 L-300.5 2353 L-302 2353.5 L-309 2358.5 L-311 2359.5 L-312.75 2360.25 L-313 2362.5 L-310.5 2365 L-309 2364.5 M-311.5 2357 L-311 2356 L-312.5 2356 L-313 2357 L-311.5 2357 M-304 2366 L-304 2365 L-305 2365 L-305 2366 L-304 2366 M-305.5 2367 L-305 2366 L-306.5 2366 L-307 2367 L-305.5 2367 M-312 2373 L-312 2372 L-313 2372 L-313 2373 L-312 2373 M-241 2336 L-241 2335 L-242 2335 L-242 2336 L-241 2336 M-246.5 2337 L-246 2336 L-247.5 2336 L-248 2337 L-246.5 2337 M-236.5 2338 L-236 2337 L-237.5 2337 L-238 2338 L-236.5 2338 M-247 2345.75 L-241.25 2344.88 L-241 2342.5 L-239 2340.5 L-239 2339.5 L-238 2338.5 L-238.5 2338 L-244 2338.5 L-247.75 2339.25 L-248.5 2342 L-248.75 2345.75 L-247 2345.75 "
  />
  <path
    fill-rule="evenodd"
    d="M-306 2304.75 L-308 2304.63 L-311 2304.63 L-312.5 2305 L-315 2302.5 L-317.375 2298 L-319.5 2293 L-322.5 2286 L-323.25 2282 L-323.25 2270 L-322.5 2267 L-320.5 2262 L-312.5 2249 L-311.75 2247.25 L-303 2247.63 L-301.5 2248 L-299 2250.5 L-299 2251.5 L-297 2253.5 L-298 2254.5 L-297.5 2255 L-291.5 2255 L-289.5 2257 L-286 2256.38 L-283 2257.5 L-280.5 2259 L-274 2265.5 L-273.5 2267 L-271.625 2271 L-270.75 2274 L-271.125 2288.75 L-272.75 2289.25 L-278 2296.5 L-279.5 2298 L-282 2298.63 L-284 2299.38 L-288 2300.38 L-296 2301.75 L-300 2303.25 L-306 2304.75 M-305 2267 L-305 2265.5 L-302 2262.5 L-302.25 2259.25 L-303.5 2259 L-304.5 2260 L-306 2258.5 L-303.5 2256 L-299.5 2255 L-299 2254.5 L-300 2253.5 L-300 2252.5 L-303.5 2249 L-305.5 2249 L-307.5 2251 L-309.5 2251 L-311 2252.5 L-310.5 2253 L-309.5 2253 L-308 2254.5 L-309 2255.5 L-310.5 2262 L-311.625 2265 L-312 2266.5 L-311.5 2267 L-310 2265.5 L-310 2264.5 L-307.5 2262 L-306 2263.5 L-306 2266.5 L-305 2267 M-312 2259 L-312 2258 L-313 2258 L-313 2259 L-312 2259 M-292.5 2264 L-290 2261.5 L-290.25 2259.25 L-292 2258.75 L-296.5 2258 L-297 2258.5 L-296 2259.5 L-296 2262.5 L-294.5 2264 L-292.5 2264 M-286.5 2263 L-284 2260.5 L-285.5 2259 L-286.75 2259.25 L-287 2261.5 L-288 2262.5 L-287.5 2263 L-286.5 2263 M-282.5 2263 L-282 2262.5 L-282.25 2261.25 L-283.5 2261 L-284 2261.5 L-282.5 2263 M-283 2266 L-283 2264.5 L-284 2264 L-284 2265 L-283 2266 M-278 2266 L-278 2265 L-279 2265 L-279 2266 L-278 2266 M-301.5 2269 L-300 2267.5 L-300 2266.5 L-300.5 2266 L-302 2268 L-301.5 2269 M-306 2268 L-306 2267 L-307 2267 L-307 2268 L-306 2268 M-294 2268 L-294 2267 L-295 2267 L-295 2268 L-294 2268 M-279 2268 L-279 2267 L-280 2267 L-280 2268 L-279 2268 M-295 2269 L-295 2268 L-296 2268 L-296 2269 L-295 2269 M-298 2270 L-298 2269 L-299 2269 L-299 2270 L-298 2270 M-274.25 2271.75 L-274 2270.5 L-275.5 2269 L-276 2269.5 L-275.75 2271.75 L-274.25 2271.75 M-286 2297.25 L-281.5 2296 L-276 2290.5 L-276 2289.5 L-276.5 2289 L-277.5 2290 L-278.5 2289 L-279.5 2290 L-281.5 2290 L-283 2291.5 L-283.25 2292.75 L-285.5 2293 L-287 2291.5 L-286 2290.5 L-285.625 2289 L-283.625 2284 L-283 2281.5 L-284 2281 L-284 2281.5 L-284.25 2282.75 L-285.5 2283 L-287 2281.5 L-286.625 2280 L-286.25 2277.25 L-288.75 2276.75 L-289.25 2273.25 L-290.75 2272.75 L-291 2271.5 L-292.5 2270 L-293.5 2270 L-295 2271.5 L-295 2272.5 L-292.5 2275 L-291.25 2275.25 L-291 2276.5 L-288 2279.5 L-287.5 2283 L-288 2293.5 L-291 2296.5 L-290.75 2297.88 L-286 2297.25 M-280 2271 L-280 2270 L-281 2270 L-281 2271 L-280 2271 M-310 2272 L-310 2271 L-311 2271 L-311 2272 L-310 2272 M-313.5 2277 L-311 2274.5 L-311 2272.5 L-311.5 2272 L-313 2273.5 L-313 2274.5 L-315 2276.5 L-314.5 2277 L-313.5 2277 M-281 2273 L-281 2272 L-282 2272 L-282 2273 L-281 2273 M-296.5 2299 L-292 2294.5 L-292 2293.5 L-290 2291.5 L-291 2279.5 L-295.5 2275 L-297.5 2275 L-298.5 2276 L-299 2275.5 L-299 2274.5 L-300.5 2273 L-302.5 2275 L-305 2274.38 L-306.75 2274.25 L-308 2276.5 L-311.5 2282 L-312 2283.5 L-313 2284.5 L-312 2285.5 L-311.5 2287 L-310.625 2289 L-310 2291.5 L-304.5 2297 L-303 2297.38 L-300 2298.5 L-296.5 2299 M-285 2276 L-285 2274.5 L-286 2274 L-286 2275 L-285 2276 M-282 2276 L-282 2275 L-283 2275 L-283 2276 L-282 2276 M-278 2279 L-278 2278 L-279 2278 L-279 2279 L-278 2279 M-274 2287 L-274 2286.5 L-273 2279.5 L-274 2279 L-274 2279.5 L-275 2286.5 L-274 2287 M-282 2281 L-282 2280 L-283 2280 L-283 2281 L-282 2281 M-275 2289 L-275 2288 L-276 2288 L-276 2289 L-275 2289 M-301.5 2302 L-301 2301 L-301.5 2301 L-308.5 2300 L-309 2301 L-308.5 2301 L-301.5 2302 "
  />
  <path
    fill-rule="evenodd"
    d="M-178.5 2343 L-180.75 2341.75 L-189 2267.5 L-193 2263.5 L-193.625 2260 L-194.25 2258 L-195 2252.5 L-197 2250.5 L-197.25 2249.25 L-200 2247.5 L-204 2244.5 L-206.5 2243 L-208.5 2241 L-211 2240.38 L-217 2237.5 L-230 2230.63 L-232.5 2230 L-234.5 2228 L-236 2227.5 L-241 2224.63 L-246 2222.5 L-251 2219.5 L-252.5 2219 L-253 2219.5 L-252 2220.5 L-250.875 2229 L-251 2290.5 L-250 2291.5 L-251 2292.5 L-251 2293.5 L-250 2294.5 L-251 2295.5 L-251 2296.5 L-252.5 2298 L-256.5 2298 L-260 2294.5 L-260.875 2219 L-261.5 2217 L-262.5 2215 L-263 2213.5 L-261.5 2212 L-260.5 2213 L-259.5 2213 L-258.5 2212 L-257.5 2213 L-255.5 2213 L-254 2214.5 L-253.75 2215.75 L-251 2216.63 L-249 2217.5 L-202.5 2242 L-196.5 2246 L-194.5 2247 L-188 2253.5 L-187 2257.5 L-185 2259.5 L-185 2261.5 L-184 2262.5 L-185 2263.5 L-184.5 2265 L-181.625 2270 L-180.625 2273 L-177.75 2287 L-175 2340.5 L-176.5 2342 L-177.5 2342 L-178.5 2343 "
  />
  <path
    fill-rule="evenodd"
    d="M-211.25 2216.75 L-212.75 2216.75 L-212.625 2215 L-205.5 2190 L-204.625 2184 L-204.625 2169 L-206.5 2158 L-208.625 2152 L-210.375 2148 L-211 2145.5 L-210.5 2145 L-209 2146.5 L-208.5 2148 L-204.5 2158 L-203.625 2161 L-202.625 2168 L-202.625 2184 L-204.5 2195 L-209.5 2212 L-211.25 2216.75 "
  />
  <path
    fill-rule="evenodd"
    d="M-378.5 2338 L-382 2337.38 L-383.75 2336.75 L-384 2335.5 L-386 2333.5 L-395.5 2268 L-405 2226.5 L-406.5 2225 L-407.5 2226 L-409.75 2225.75 L-410 2224.5 L-411 2223.5 L-409.5 2222 L-406 2221.38 L-399 2218.5 L-390 2214.5 L-386 2213.38 L-380 2210.63 L-374.125 2208.75 L-375 2201.5 L-376.5 2200 L-377.75 2199.75 L-378 2198.5 L-380.5 2196 L-383.5 2195 L-385.5 2193 L-387.5 2193 L-388.5 2192 L-390 2193.5 L-390.25 2194.75 L-391.75 2195.25 L-392.25 2196.75 L-397.5 2196 L-399 2194.5 L-399.5 2193 L-399.625 2191 L-399 2188.5 L-400 2187.5 L-399 2186.5 L-398 2183.5 L-396.5 2182 L-390.5 2182 L-389 2183.5 L-387.875 2189.75 L-385 2190.63 L-382 2192.5 L-373.25 2199.25 L-371.75 2203 L-370.875 2208.75 L-369 2208.63 L-366 2207.63 L-311.5 2203 L-311 2202.5 L-312 2201.5 L-312.5 2200 L-314.5 2195 L-315 2192.5 L-317 2190.5 L-317 2189.5 L-319.5 2187 L-320.75 2187.25 L-321.25 2189.75 L-322.75 2190.25 L-323.25 2192.75 L-326 2192.38 L-332.75 2189.75 L-333.25 2188 L-333.25 2179 L-332 2174.5 L-330.5 2173 L-327.5 2173 L-325.5 2175 L-324.5 2174 L-320.25 2175.25 L-319.625 2177 L-319.5 2180 L-320 2183.5 L-315 2188.5 L-315 2189.5 L-313 2191.5 L-312.5 2194 L-310 2200.5 L-308.5 2202 L-273.25 2201.75 L-273.5 2197 L-270.375 2186 L-269.5 2184 L-264 2174.5 L-249.5 2160 L-246 2157.5 L-240.5 2153 L-237 2150.5 L-218 2140.63 L-200 2133.5 L-184 2130.63 L-165 2130.75 L-160 2131.63 L-153 2133.63 L-148.5 2136 L-146 2138.5 L-146 2139.5 L-144 2141.5 L-143.625 2144 L-143.5 2149 L-144.5 2153 L-149.5 2165 L-151.5 2169 L-155 2174.5 L-159 2178.5 L-159.625 2181 L-170.5 2199 L-171 2200.5 L-175.5 2205 L-176.75 2205.25 L-177 2206.5 L-182.5 2212 L-184 2212.38 L-186.75 2212.75 L-186.75 2211.25 L-185.25 2210.75 L-178 2201.5 L-159.5 2172 L-152.5 2155 L-151.75 2152 L-152 2137.5 L-153.5 2136 L-155 2135.75 L-162 2133.88 L-188 2133.75 L-194 2134.5 L-198 2135.5 L-211 2140.38 L-213.5 2141 L-215.5 2143 L-218 2143.63 L-232 2150.5 L-237 2153.5 L-251.5 2165 L-261 2174.5 L-262 2176.5 L-265.5 2182 L-268.375 2188 L-270.375 2195 L-270.875 2201.75 L-268.5 2202 L-267 2203.5 L-267 2206.5 L-268.5 2208 L-271.5 2208 L-273 2206.5 L-272 2205.5 L-272.5 2205 L-274 2204.75 L-279 2203.38 L-282 2203.13 L-307.5 2205 L-308 2205.5 L-307 2206.5 L-306.5 2209 L-304.625 2215 L-301 2232.5 L-302.5 2234 L-304.5 2234 L-305 2233.5 L-304 2232.5 L-306.5 2217 L-308.5 2210 L-310.25 2205 L-366.5 2210 L-368 2211.5 L-367.5 2213 L-362.625 2224 L-358.5 2237 L-358.25 2239.75 L-360.75 2239.75 L-362.5 2232 L-365.625 2223 L-368.625 2216 L-371.25 2211.25 L-373 2211.25 L-378 2212.75 L-385 2215.5 L-389 2216.63 L-398.75 2221.25 L-398.625 2223 L-386.5 2270 L-386 2274.5 L-385.5 2275 L-384 2273.5 L-383.5 2270 L-381.5 2265 L-379 2260.5 L-373.5 2255 L-369 2252.5 L-367.5 2252 L-366.5 2251 L-365.5 2252 L-359.5 2253 L-357 2255.5 L-356.75 2256.75 L-349 2258.63 L-344.5 2261 L-342 2263.5 L-340.5 2266 L-339.5 2269 L-339.75 2271 L-338.25 2281 L-338.5 2284 L-339.375 2287 L-340 2291.5 L-341.5 2293 L-342.75 2293.25 L-346.25 2298.75 L-351 2301.5 L-353 2302.38 L-359 2304.25 L-365 2305.5 L-369.5 2306 L-371 2304.5 L-371.25 2303.25 L-373.5 2303 L-376.5 2300 L-377.75 2299.75 L-378.25 2298.25 L-379.5 2298 L-381 2296.5 L-381 2295 L-382 2295.5 L-377 2330.5 L-376 2331.5 L-377 2332.5 L-376 2333.5 L-377 2334.5 L-377 2336.5 L-378.5 2338 M-367.5 2259 L-365.5 2257 L-361.5 2257 L-360 2255.5 L-361.5 2254 L-368.5 2254 L-370 2255.5 L-369.75 2256.75 L-368.25 2257.75 L-367.5 2259 M-370 2259 L-370 2258 L-371 2258 L-371 2259 L-370 2259 M-373 2267 L-373 2266.5 L-372.5 2265 L-371.625 2263 L-371 2259.5 L-372 2259 L-372 2259.5 L-372.375 2261 L-373.5 2264 L-374 2266.5 L-373 2267 M-364.5 2265 L-362 2262.5 L-361.5 2261 L-361.25 2259.25 L-362.75 2259.25 L-364.5 2263.5 L-364.5 2265 M-355.5 2267 L-355 2266.5 L-355 2265.5 L-353 2263.5 L-353 2261.5 L-354.5 2260 L-355.5 2261 L-356.75 2260.75 L-357.25 2259.25 L-358.75 2259.25 L-359.25 2261 L-359.875 2265.75 L-355.5 2267 M-374 2261 L-374 2260 L-375 2260 L-375 2261 L-374 2261 M-350 2266 L-350 2264.5 L-348.5 2263 L-347.5 2263 L-347 2262 L-347.5 2262 L-349 2261.5 L-350.875 2261.25 L-351 2265.5 L-350 2266 M-375 2264 L-375 2262.5 L-376 2262 L-376 2263 L-375 2264 M-346 2264 L-346 2263 L-347 2263 L-347 2264 L-346 2264 M-369 2267 L-369 2265.5 L-370 2265 L-370 2266 L-369 2267 M-365 2267 L-365 2266 L-366 2266 L-366 2267 L-365 2267 M-375 2274 L-375 2273.5 L-374 2267.5 L-375 2267 L-375 2267.5 L-376 2273.5 L-375 2274 M-370 2270 L-370 2268.5 L-371 2268 L-371 2269 L-370 2270 M-361 2271 L-361 2270 L-362 2270 L-362 2271 L-361 2271 M-371 2274 L-371 2271.5 L-372 2271 L-372 2273.5 L-371 2274 M-364 2272 L-364 2271 L-365 2271 L-365 2272 L-364 2272 M-346.5 2282 L-345 2280.5 L-344.375 2277 L-344 2275.5 L-344.5 2275 L-346.5 2277 L-348 2275.5 L-348 2273.5 L-347 2272.5 L-347.5 2272 L-349.5 2272 L-350.5 2271 L-352 2272.5 L-353 2276.5 L-351 2278 L-346.5 2282 M-365 2277 L-365 2273.5 L-366 2273 L-366 2276.5 L-365 2277 M-343 2274 L-343 2273 L-344 2273 L-344 2274 L-343 2274 M-376 2276 L-376 2274.5 L-377 2274 L-377 2275 L-376 2276 M-372 2276 L-372 2274.5 L-373 2274 L-373 2275 L-372 2276 M-356 2277 L-356 2275.5 L-357 2275 L-357 2276 L-356 2277 M-373 2278 L-373 2276.5 L-374 2276 L-374 2277 L-373 2278 M-360 2278 L-360 2276.5 L-361 2276 L-361 2277 L-360 2278 M-377 2278 L-377 2277 L-378 2277 L-378 2278 L-377 2278 M-361 2279 L-361 2278 L-362 2278 L-362 2279 L-361 2279 M-371.5 2287 L-365 2280.5 L-365.25 2279.25 L-367.5 2279 L-372 2283.5 L-372 2286.5 L-371.5 2287 M-362 2301.63 L-358.5 2301 L-352 2294.5 L-351.5 2293 L-350.5 2291 L-350 2289.5 L-348 2287.5 L-348.125 2283.25 L-353.5 2280 L-354.5 2279 L-355.5 2280 L-360 2280.75 L-365.75 2284.25 L-366 2285.5 L-368 2287.5 L-368.125 2291.75 L-369.75 2292.25 L-370 2294.5 L-369 2295.5 L-370 2296.5 L-365.5 2301 L-362 2301.63 M-349.5 2298 L-346 2294.5 L-345.5 2293 L-344.625 2291 L-344.25 2287.25 L-345.75 2287.25 L-346.5 2289 L-350.5 2296 L-350.75 2297.75 L-349.5 2298 M-351 2299 L-351 2298 L-352 2298 L-352 2299 L-351 2299 "
  />
  <path
    fill-rule="evenodd"
    d="M-426.5 2204 L-428.5 2204 L-431 2201.5 L-428.5 2190 L-424.5 2177 L-420.625 2167 L-420 2164.5 L-418 2162.5 L-417.5 2161 L-415 2156.5 L-407.5 2149 L-401.5 2148 L-399 2150.5 L-399 2151.5 L-398 2152.5 L-398.5 2153 L-401 2151.5 L-404 2150.5 L-406 2151.5 L-407.5 2152 L-410 2154.5 L-410.5 2156 L-415.5 2167 L-424.75 2201 L-425 2202.5 L-426.5 2204 "
  />
  <path
    fill-rule="evenodd"
    d="M-352.25 2192.75 L-353.5 2193 L-355 2191.5 L-357.625 2177 L-358.625 2174 L-362.5 2166 L-366.5 2160 L-367 2158.5 L-374.5 2151 L-376.5 2150 L-394 2138.5 L-410 2131.5 L-421 2129.25 L-423 2129.38 L-425.5 2130 L-427.5 2132 L-431 2132.5 L-436 2134.5 L-442.5 2138 L-444 2139.5 L-447.5 2145 L-452.625 2158 L-452.5 2160 L-452 2161.5 L-454 2163.5 L-454.75 2169 L-454.75 2171 L-452.375 2184 L-447.375 2198 L-444.5 2204 L-433 2222.5 L-428 2229.5 L-427 2231.5 L-415.5 2243 L-411 2245.5 L-409.5 2246 L-407 2248.5 L-407.25 2251.88 L-412 2251.38 L-415 2250.5 L-420 2248.5 L-425.5 2245 L-427.5 2244 L-436 2235.5 L-438 2232.5 L-441 2228.5 L-450.5 2214 L-455.5 2203 L-458.375 2194 L-459.25 2189 L-459.25 2170 L-458.375 2165 L-456.375 2158 L-453.5 2151 L-451 2146.5 L-444.75 2137.25 L-439 2133.5 L-432 2130.63 L-428.5 2130 L-426.5 2128 L-421 2127.25 L-410 2129.5 L-404 2131.63 L-394 2136.38 L-391.5 2137 L-388.5 2140 L-387 2140.5 L-375 2148.5 L-373.5 2149 L-366 2156.5 L-365 2158.5 L-361.5 2164 L-357.5 2171 L-356.625 2173 L-355.625 2176 L-353.25 2189 L-352.5 2191 L-352.25 2192.75 "
  />

  <style>:root { color-scheme: light dark; }</style>
</svg>
