<?xml version="1.0" encoding="UTF-8"?>
<svg
  xmlns:xlink="http://www.w3.org/1999/xlink"
  xmlns="http://www.w3.org/2000/svg"
  width="100"
  height="100"
  viewBox="-190 250 300 300"
>
  <path
    fill="none"
    stroke-width="4"
    stroke-linecap="round"
    stroke-linejoin="round"
    d="M-22.5932 367.509 L-23.2646 368.017 L-24.0428 367.957 L-30.5961 370.276 L-32.2261 371.171 L-33.6967 372.519 L-33.5021 373.451 L-26.8364 380.794 "
    stroke="CanvasText"
  />
  <path
    fill-rule="evenodd"
    d="M-36 549.375 L-47.5 549 L-50 546.5 L-50 545.5 L-51 544.5 L-50 543.5 L-51 542.5 L-52 518.25 L-50.5 518 L-50 517.5 L-51 516.5 L-51 510.5 L-44.5 504 L-41 502.75 L-35 501.5 L-31 501.5 L-28.5 502 L-26.5 504 L-22.25 506.25 L-22 507.5 L-19 510.5 L-18 540.5 L-20 542.5 L-20 543.5 L-21.5 545 L-24 545.5 L-32 548.5 L-36 549.375 M-38 518.5 L-31 517.375 L-26 515.625 L-23.5 515 L-21 512.5 L-22 511.5 L-22 510.5 L-25.5 507 L-26.5 507 L-28.5 505 L-40 504.625 L-42.5 505 L-44.5 507 L-45.5 507 L-47 508.5 L-48 515.5 L-45.5 518 L-38 518.5 M-36 547.25 L-33 546.5 L-23.25 542.75 L-21.875 539 L-21 516.5 L-21.5 516 L-22.5 517 L-24 517.5 L-26 518.375 L-29 519.375 L-34 520.375 L-47.5 520 L-49.5 518 L-50 518.5 L-48 545.5 L-45.5 548 L-36 547.25 "
    fill="CanvasText"
  />
  <path
    fill-rule="evenodd"
    d="M-57 539.625 L-62.5 539 L-66 535.5 L-65.25 530 L-64.5 528 L-60.75 522.25 L-57 520.625 L-54.5 520 L-53 521.5 L-53.25 522.75 L-55 522.5 L-56.5 522 L-59 524.5 L-60 529.5 L-58 531.5 L-56.75 536.75 L-54.5 537 L-53.5 536 L-52 537.5 L-52.25 538.875 L-57 539.625 "
    fill="CanvasText"
  />
  <path
    fill-rule="evenodd"
    d="M-51 403.5 L-57.5 403 L-59.5 401 L-60.75 400.75 L-61 399.5 L-63 397.5 L-63 392.5 L-62.5 392 L-61 393.5 L-60.375 397 L-60 398.5 L-58.5 400 L-53 401.625 L-51 401.5 L-47 398.5 L-43.25 396.25 L-43 397.5 L-47.5 402 L-49 402.5 L-51 403.5 "
    fill="CanvasText"
  />
  <path
    fill-rule="evenodd"
    d="M-111 544.5 L-117 544.5 L-124.5 543 L-129 538.5 L-130.125 535 L-130.125 523 L-129.5 521 L-128.5 519 L-125.5 515 L-123.375 511 L-124.375 508 L-124.5 503 L-122 486.5 L-122.5 486 L-123.5 487 L-178.5 488 L-180 486.5 L-178.5 485 L-121.25 484 L-120.5 480 L-118.375 473 L-112.5 458 L-107 447.5 L-102.5 441 L-101 438.5 L-95.5 433 L-82 424.5 L-77 422.5 L-73.5 422 L-73 422.5 L-74.5 424 L-77 424.625 L-83 427.5 L-87.5 430 L-92 434.5 L-92 435.5 L-94.5 438 L-95.75 438.25 L-101.5 448 L-102.375 450 L-103.625 454 L-110.5 472 L-112.25 480 L-116 506.5 L-117 507.5 L-116.5 508 L-113 506.75 L-103 506.75 L-100 507.625 L-95.25 509.25 L-95 510.5 L-96 511.5 L-95.5 512 L-92.5 513 L-91 514.5 L-91 515.5 L-89 517.5 L-88.75 528 L-89.5 530 L-90.5 532 L-91 533.5 L-97.5 540 L-99 540.375 L-107 543.5 L-111 544.5 M-110 541.375 L-106 540.5 L-103 539.375 L-96.5 536 L-95 534.5 L-92.5 530 L-91.625 528 L-91 524.5 L-90 523.5 L-91 522.5 L-91.625 519 L-92 517.5 L-95.5 514 L-102.75 512.875 L-103 511.5 L-101 509.5 L-101.5 509 L-103 508.75 L-114.5 509 L-116.5 511 L-117.5 511 L-121 514.5 L-121.375 516 L-122.5 519 L-123 521.5 L-124 522.5 L-123 523.5 L-122.375 533 L-121 539.5 L-119.5 541 L-110 541.375 M-98.5 511 L-98 510 L-99.5 510 L-100 511 L-98.5 511 "
    fill="CanvasText"
  />
  <path
    fill-rule="evenodd"
    d="M9.5 388 L6.5 388 L5 386.5 L4 351.5 L3.5 351 L1.5 353 L-3 355.25 L-8.75 355.875 L-8.75 354.25 L-2.5 353 L-0.5 351 L4 348.5 L9.75 344.75 L10 343.5 L11.5 342 L13 343.5 L13 344.5 L10.5 347 L9.5 347 L6 350.5 L8 352.5 L8.5 354 L10.5 359 L11.375 362 L12.375 369 L12 385.5 L9.5 388 "
    fill="CanvasText"
  />
  <path
    fill-rule="evenodd"
    d="M-55.5 374 L-62.5 374 L-64 372.5 L-63 366.5 L-57.5 361 L-56 360.625 L-52.5 360 L-49 363.5 L-50 369.5 L-51.5 371 L-52.5 371 L-55.5 374 "
    fill="CanvasText"
  />
  <path
    fill-rule="evenodd"
    d="M11 514.625 L8 514.375 L6 513.5 L4.5 513 L3 511.5 L3 510.5 L1 508.5 L0.75 506.25 L-2.5 506 L-5.5 503 L-6.5 503 L-11 498.5 L-12 496.5 L-14 493.5 L-15 491.5 L-16.5 490 L-54 490.75 L-65 488.25 L-67 488.25 L-72 489.625 L-77 489.375 L-79.75 490.25 L-83 509.5 L-82 510.5 L-84 512.5 L-84.25 514.875 L-89 514.25 L-90.75 513.75 L-91.375 512 L-91.5 508 L-87.5 491 L-83.375 479 L-80.5 473 L-75.5 465 L-75 463.5 L-72.5 461 L-71.25 461.25 L-71.25 483 L-70.75 486.75 L-65 486.375 L-59 487.5 L-54.25 487.875 L-54.125 486 L-57.5 464 L-61.5 451 L-65.5 441 L-71.5 430 L-71.75 428.25 L-70.25 428.25 L-60.625 447 L-52.5 473 L-51.5 479 L-51 488 L-42.25 488 L-42.25 470 L-41.5 465 L-37.5 452 L-35.5 447 L-29 434.5 L-23.5 429 L-20.5 429 L-19 427.5 L-18 418 L-19 418.5 L-19.25 419.75 L-26 422.5 L-38 425.25 L-53 425.375 L-62 424.25 L-65 423.375 L-72 420.5 L-83.5 415 L-85 413.5 L-85 412.5 L-86.5 411 L-87.5 411 L-88.5 410 L-94.5 416 L-99.5 415 L-104 410.5 L-104 409.5 L-107 406.5 L-108.25 401 L-108.25 390 L-107.375 386 L-101.5 372 L-101.375 369 L-102.375 364 L-103 351.5 L-102 350.5 L-103 349.5 L-102 348.5 L-100.25 339 L-100.25 337.25 L-101.5 337 L-103 335.5 L-104.25 307 L-103.5 301 L-101.625 294 L-99.5 289 L-95 280.5 L-92.5 277 L-91 274.5 L-80.5 264 L-70 258.625 L-67 257.5 L-48 254.125 L-46 254.25 L-35 256.5 L-23 261.5 L-18.5 264 L-6.5 272 L-4.5 273 L8 285.5 L11.25 291 L22 291.625 L29.5 293 L32 295.5 L32 296.5 L34.5 299 L35.5 299 L45 308.5 L45.5 310 L52.5 326 L54.875 341 L52.5 356 L51.375 360 L47 370.5 L46 371.5 L47.5 373 L57.5 374 L59 375.5 L59 377.5 L57.5 379 L56 379.5 L51.5 382 L46 387.5 L50.5 394 L51.25 396 L52 403.5 L48.5 407 L43 406.375 L38.5 405 L31 397.5 L31.25 395.25 L32.5 395 L34 396.5 L34 397.5 L38.5 402 L42.5 404 L44 402.5 L45.25 398 L46 391.5 L42.5 388 L40.25 387.75 L40 385.5 L44.5 381 L46.5 380 L49.5 378 L51.5 377 L53 375.5 L52.5 375 L45.5 374 L44 375.5 L43 378.5 L40.5 381 L36.25 380.875 L36 377.5 L37 376.5 L36.5 376 L34.25 376.25 L31.5 388 L27.375 399 L29 402.5 L31.25 406 L32 412.5 L30 414.5 L29.75 415.75 L28.5 416 L25 419.5 L25.5 422 L26.625 425 L26.625 427 L26 429.5 L20 435.5 L20.5 437 L26.375 450 L27.5 454 L28.25 460 L29 482 L93.5 481 L95 482.5 L94.5 483 L29.125 484 L28 499.5 L29 500.5 L28 501.5 L28 504.5 L26.5 506 L24.25 506.25 L24 507.5 L19.5 512 L18.5 512 L16.5 514 L11 514.625 M16.5 323 L17 322.5 L16.5 319 L13.375 309 L4.5 290 L0 283.5 L-7.5 276 L-16 270.5 L-24 264.5 L-30 261.5 L-37 258.75 L-42 257.625 L-55 257.625 L-62 258.625 L-66 259.625 L-76 264.5 L-81.5 268 L-89 275.5 L-89.5 277 L-96.5 288 L-97.375 290 L-100.5 299 L-102.5 312 L-100.875 334.75 L-99.25 334.75 L-98.5 332 L-98 328.5 L-96 326.5 L-95.625 325 L-95 321.5 L-92 318.5 L-92 317.5 L-90.5 316 L-89.25 315.75 L-88.75 314.25 L-87.25 313.75 L-87 312.5 L-79.5 305 L-73 300.5 L-69 300.625 L-65 299.5 L-59.5 299 L-58.5 298 L-57.5 299 L-35 298.75 L-20 301.5 L-3 309.375 L-0.5 310 L1.5 312 L3 312.5 L10 317 L16.5 323 M15.5 429 L17 427.5 L18 423.5 L19 422.5 L17 420.5 L17 417.5 L18 416.5 L17.5 416 L15.125 415.75 L15.625 409 L16.5 406 L19.5 398 L22.5 387 L23.375 381 L25 343.5 L24.5 343 L23.5 344 L21.5 344 L20 342.5 L19.25 335 L17.375 330 L16 327.5 L14 324.5 L12.75 322.25 L10.5 321 L2.5 315 L0 313.5 L-13 307.5 L-14.5 307 L-16.5 305 L-27 302.5 L-43 300.125 L-67 302.5 L-71 303.5 L-74 304.625 L-75.5 305 L-83 312.5 L-83 313.5 L-84.5 315 L-85.75 315.25 L-88.5 322 L-89 325.5 L-91 327.5 L-91.625 331 L-92.375 333 L-95.25 344 L-97 357.5 L-96 358.5 L-97 359.5 L-96 360.5 L-95 368.5 L-94 369.5 L-95 370.5 L-95.25 372.75 L-98.75 374.25 L-100.25 382 L-101 402.5 L-100 403.5 L-101 404.5 L-100 405.5 L-99.5 407 L-97.5 411 L-96.75 412.75 L-94.5 413 L-92 410.5 L-91.5 409 L-89.625 405 L-88.5 401 L-87.75 396 L-87 372.25 L-88.5 372 L-90 370.5 L-91.25 367 L-91.375 362 L-90.375 359 L-89 356.5 L-87 353.5 L-78 341.5 L-74.5 338 L-73.5 338 L-68 332.5 L-67.375 316 L-66 305.5 L-64.5 304 L-64 304.5 L-64.5 315 L-62.5 328 L-58.75 340.75 L-55 340.5 L-52 339.375 L-43 332.75 L-42.375 320 L-40.75 308.25 L-39 308.25 L-37.375 333 L-36.375 338 L-33.75 346 L-33 351.5 L-32.5 352 L-29.5 349 L-25.5 347 L-23 344.5 L-23 343.5 L-19.5 340 L-18.5 340 L-17 338.5 L-16 314.25 L-14 314.25 L-14.5 331 L-10 354.5 L-11.5 356 L-13 354.5 L-13 353.5 L-15 351.5 L-16 345.5 L-16.5 345 L-19.5 348 L-21 348.5 L-27.5 352 L-29.5 354 L-31.75 354.25 L-32 356.5 L-33.5 358 L-36 355.5 L-39.375 350 L-40.5 347 L-42.25 339.25 L-44 339.5 L-49 341.5 L-52 342.375 L-58.5 343 L-59.5 342 L-60 342.5 L-60.25 343.75 L-63.5 344 L-66 341.5 L-66 340.5 L-67.5 339 L-71 342.5 L-79.375 357 L-81.5 363 L-82 366.5 L-84 368.5 L-84.5 392 L-86.5 403 L-86.75 405.75 L-76 414.5 L-69 418.375 L-61 421.5 L-57 422.25 L-35 422.25 L-31 421.5 L-22 418.375 L-20.5 418 L-20 417.5 L-21.5 416 L-22.5 416 L-26 412.5 L-26.25 411 L-26.375 405 L-25.375 402 L-23 397.5 L-18.5 393 L-17.5 393 L-15.5 391 L-13 390.5 L-7 388.625 L-1 388.75 L2.5 390 L6 393.5 L7.375 398 L7.375 404 L6.375 407 L5.5 409 L5 410.5 L4 411.5 L5 412.5 L5.5 414 L13.5 426.5 L15.5 429 M36 373.5 L37.5 373 L39 371.5 L39.625 369 L42.5 362 L43.375 359 L47.75 332 L47.625 329 L46.375 323 L43.375 315 L38 304.5 L35.5 302 L30.5 299 L29.5 300 L28.5 299 L27.5 299 L23.5 295 L18 293.625 L13.5 293 L13 293.5 L14 294.5 L17.5 301 L19.5 306 L23.5 320 L24.375 326 L25 336.5 L26 337 L26 329.5 L27.5 328 L28.75 328.25 L30.375 332 L33.375 346 L34.25 373.75 L36 373.5 M18 324 L18 323 L17 323 L17 324 L18 324 M-16 395 L-16 394 L-17 394 L-17 395 L-16 395 M-7 415.25 L-5 414.5 L-3 413.5 L-1.5 413 L3 408.5 L3.5 407 L4.375 405 L5 401.5 L6 400.5 L5 399.5 L4 395.5 L-0.5 391 L-4.5 390 L-6 391.5 L-6.25 392.75 L-8.5 393 L-9.5 392 L-13 395.5 L-13 396.5 L-14.5 398 L-16.75 397.75 L-17 396.5 L-18 396 L-18 396.5 L-19.375 401 L-19.375 407 L-18.375 410 L-17.5 412 L-17 413.5 L-15.5 415 L-7 415.25 M-20 488.25 L-17.5 488 L-17 487.5 L-18 486.5 L-18.5 484 L-20.375 478 L-21.25 471 L-21.25 442 L-20.25 434 L-20.25 431.25 L-22.5 431 L-25 433.5 L-25.5 435 L-27 437.5 L-31.5 447 L-33.5 452 L-37.5 465 L-38.375 471 L-38.125 486 L-37.75 487.875 L-20 488.25 M15 511.25 L19.75 508.75 L20 507.5 L22 505.5 L21 504.5 L21.25 470 L18.5 455 L10.625 435 L4.375 417 L3.5 415 L3 413.5 L2.5 413 L0.5 415 L-1 415.5 L-5 417.375 L-11.5 419 L-13 420.5 L-14.25 465 L-13.375 470 L-12.5 473 L-11.375 476 L-2 493.5 L2.5 500 L3.375 502 L3.375 505 L3 506.5 L6.5 510 L10 511.25 L15 511.25 M25.75 406.75 L26 404.5 L25 404 L25 405.5 L24 406.5 L24.5 407 L25.75 406.75 M24 409 L24 408 L23 408 L23 409 L24 409 M23 411 L23 410 L22 410 L22 411 L23 411 M22 413 L22 412 L21 412 L21 413 L22 413 M21 415 L21 414 L20 414 L20 415 L21 415 M19.5 416 L20 415 L18.5 415 L18 416 L19.5 416 M-77.5 488 L-76 486.5 L-76 476.5 L-77 476 L-77 476.5 L-78.5 483 L-79 486.5 L-80 487.5 L-79.5 488 L-77.5 488 "
    fill="CanvasText"
  />

  <style>:root { color-scheme: light dark; }</style>
</svg>
