<?xml version="1.0" encoding="UTF-8"?>
<svg
  xmlns:xlink="http://www.w3.org/1999/xlink"
  xmlns="http://www.w3.org/2000/svg"
  width="100"
  height="100"
  viewBox="-450 260 290 290"
>
  <path
    fill-rule="evenodd"
    d="M-302.5 428 L-305.75 427.75 L-305.375 425 L-302 419.5 L-295.5 413 L-294 412.5 L-292.25 412.25 L-292.5 414 L-294 416.5 L-299 423.5 L-300 425.5 L-302.5 428 "
    fill="CanvasText"
  />
  <path
    fill-rule="evenodd"
    d="M-309.5 521 L-311.5 521 L-314 518.5 L-314.625 515 L-315.25 513 L-314.875 480 L-315.25 478.25 L-318 478.375 L-332 482.5 L-338.875 485.25 L-338.5 490 L-333.5 512 L-333 518.5 L-335.5 521 L-339.5 521 L-343 517.5 L-350 483.5 L-350 483 L-351 483.5 L-351.5 486 L-355.125 497 L-357.125 513.875 L-362.875 514.125 L-363.625 522 L-364.625 526 L-366.5 530 L-367 531.5 L-368.5 533 L-373 535.5 L-375 536.25 L-384 536.25 L-385.5 536 L-388 533.5 L-388 532.5 L-390 530.5 L-389.125 519 L-388.5 517 L-386.5 513 L-386 511.5 L-384 509.5 L-385 508.5 L-385 505.5 L-382 502.5 L-381.375 496 L-380.5 492 L-369.5 465 L-365 456.5 L-356.5 443 L-356 441.5 L-348.5 434 L-345.125 432.75 L-345 425.5 L-343.5 424 L-339.5 423 L-338.5 422 L-338 422.5 L-338 423.5 L-336 425.5 L-336.625 438 L-333 471.5 L-332 472.5 L-333.5 474 L-337 474.625 L-340.75 476.25 L-340 482.5 L-339.5 483 L-338.5 482 L-336 481.5 L-319 476.375 L-316.5 476 L-315.5 477 L-315 476.5 L-316.25 469.125 L-323.5 470 L-324.5 471 L-325.5 470 L-327.75 469.75 L-329.5 443 L-329 438.5 L-330 437.5 L-328.5 436 L-328 436.5 L-327.75 438 L-326 468.5 L-325.5 469 L-324.5 468 L-317.125 466.875 L-317.5 462 L-320.5 451 L-330.5 425 L-330.75 422.25 L-329.25 422.25 L-325.375 433 L-312.5 461 L-309.5 471 L-309 474.5 L-309 475 L-308 474.5 L-304.5 450 L-299 426.5 L-296.5 424 L-295 425.5 L-295.5 439 L-293 469.75 L-295 469.625 L-297.5 469 L-299 470.5 L-299 475.5 L-300 476.5 L-299.5 477 L-291 476.375 L-281.25 478.25 L-281.25 479.75 L-285 479.5 L-291 478.25 L-293 478.25 L-299.875 479.125 L-299.5 487 L-298.5 495 L-299.875 517 L-300.25 518.75 L-302 519.375 L-305 519.5 L-307.5 519 L-309.5 521 M-346 440 L-346 438.5 L-347 438 L-347 439 L-346 440 M-365 503 L-365 502.5 L-364.5 499 L-354.625 473 L-354 470.5 L-352 468.5 L-351.5 467 L-350.625 465 L-349.75 462 L-347 441.5 L-348 441 L-348 443.5 L-350 445.5 L-357.5 458 L-363.5 471 L-370.5 489 L-371.5 493 L-371.875 498.75 L-367.5 500 L-366 502 L-365 503 M-334.5 472 L-334 471.5 L-335 470.5 L-338 442.5 L-339 442 L-340.375 456 L-341 473.75 L-339 473.5 L-337 472.625 L-334.5 472 M-368.5 505 L-368 504.5 L-368 503.5 L-369.5 502 L-371.5 502 L-372.5 501 L-373 501.5 L-372.75 502.75 L-370.5 503 L-368.5 505 M-379.5 506 L-378 504.5 L-378.5 504 L-379.75 504.75 L-379.5 506 M-374.5 534 L-372.5 532 L-371.5 532 L-368 528.5 L-367.375 526 L-366.625 524 L-365.625 520 L-366 507.5 L-367 507 L-367.25 509.75 L-368.75 509.75 L-370.25 505.125 L-375.5 505 L-377.5 507 L-378.75 507.25 L-379 508.5 L-381 510.5 L-381.25 523 L-380 530.5 L-379 531.5 L-380 532.5 L-378.5 534 L-374.5 534 M-367 506 L-367 505 L-368 505 L-368 506 L-367 506 M-295 466.75 L-296 446.5 L-297 446 L-298.625 461 L-298.875 466.75 L-295 466.75 "
    fill="CanvasText"
  />
  <path
    fill="hsl(40 100% 50%)"
    fill-rule="evenodd"
    opacity="0.7"
    d="M-184 329 L-183 329.5 L-184 330 L-184 329 "
  />
  <path
    fill="hsl(40 100% 50%)"
    fill-rule="evenodd"
    opacity="0.7"
    d="M-190 317 L-188 318.5 L-185.625 323 L-184.5 326 L-184 329 L-184.75 328.75 L-185.5 327 L-189.5 319 L-190 317 "
  />
  <path
    fill="hsl(40 100% 50%)"
    fill-rule="evenodd"
    opacity="0.7"
    d="M-204 336 L-204.5 337 L-211 336 L-204 336 "
  />
  <path
    fill-rule="evenodd"
    d="M-216.5 329 L-218.5 328 L-220 326.5 L-220.5 325 L-220.5 323 L-219.75 321.25 L-218 320.5 L-216 320.5 L-214.5 321 L-213 322.5 L-213 325.5 L-216.5 329 "
    fill="CanvasText"
  />
  <path
    fill-rule="evenodd"
    d="M-318.25 377.875 L-323.75 377.875 L-325 374.5 L-327 372.5 L-326.875 368.25 L-323.5 368 L-322.5 367 L-321 368.5 L-320.5 370 L-318.625 374 L-318.25 377.875 "
    fill="CanvasText"
  />
  <path
    fill-rule="evenodd"
    d="M-291.5 369 L-295.75 367.75 L-297 363.5 L-299 361.5 L-299 357.5 L-296.5 355 L-295.5 355 L-292 358.5 L-292 360.5 L-290 362.5 L-289 366.5 L-291.5 369 "
    fill="CanvasText"
  />
  <path
    fill-rule="evenodd"
    d="M-266.25 385.75 L-270.5 385 L-273 382.5 L-273.5 381 L-278.375 372 L-281.5 364 L-286.5 343 L-287 335.5 L-284.5 333 L-283 334.5 L-282.625 337 L-279.25 352 L-277.75 356 L-276.25 361 L-274.625 365 L-274 367.5 L-272 369.5 L-271.375 372 L-270.5 374 L-266.5 380 L-266 381.5 L-265 382.5 L-266 383.5 L-266.25 385.75 "
    fill="CanvasText"
  />
  <path
    fill-rule="evenodd"
    d="M-299.5 352 L-300 351.5 L-300 349.5 L-297 346.5 L-292 337.5 L-290 334.5 L-288.75 332.25 L-287.25 332.25 L-287 334.5 L-289 336.5 L-289.5 338 L-293.5 345 L-294 346.5 L-299.5 352 "
    fill="CanvasText"
  />
  <path
    fill-rule="evenodd"
    d="M-356.25 402.75 L-357.75 402.75 L-357.375 400 L-355.5 395 L-353.75 384 L-353.875 351.25 L-351.5 351 L-350 352.5 L-350 353.5 L-348 355.5 L-348 375.5 L-347 376.5 L-348 377.5 L-349.75 390 L-350.5 393 L-351.625 396 L-354.25 400.75 L-355.75 401.25 L-356.25 402.75 "
    fill="CanvasText"
  />
  <path
    fill-rule="evenodd"
    d="M-334 355.5 L-336.5 358 L-340.5 358 L-345 353.5 L-345.5 352 L-346.5 350 L-346.75 348.25 L-345.5 348 L-344 349.5 L-340.75 354.75 L-337.5 355 L-336 353.5 L-335.5 352 L-328.5 339 L-327.75 337.25 L-326.5 337 L-325 338.5 L-324.625 340 L-322.5 345 L-321.5 347 L-321 348.5 L-320.5 349 L-319 347.5 L-318.375 345 L-316.5 341 L-313.5 336 L-312.75 334.25 L-309.25 334.25 L-308.375 337 L-302.5 348 L-302 349.5 L-301 350.5 L-301.5 351 L-303.75 350.75 L-304.5 349 L-306.375 345 L-307 342.5 L-309 340.5 L-309 339.5 L-310.5 338 L-311.5 338 L-313 339.5 L-313.5 341 L-317.5 350 L-318.25 352.75 L-322 352.375 L-323.75 351.75 L-324.5 350 L-326.375 346 L-327 343.5 L-327 343 L-328 343.5 L-333.5 354 L-334 355.5 "
    fill="CanvasText"
  />
  <path
    fill="hsl(40 100% 50%)"
    fill-rule="evenodd"
    opacity="0.7"
    d="M-191 316 L-190.5 316 L-190 316.5 L-190 317 L-190.5 317 L-191 316.5 L-191 316 "
  />
  <path
    fill-rule="evenodd"
    d="M-214.5 313 L-217.75 311.75 L-218.375 310 L-218.5 306 L-215.75 290.25 L-214.25 289.75 L-213.75 288.25 L-211 288.625 L-209.125 289.25 L-209.5 294 L-212.25 311.75 L-213.5 312 L-214.5 313 "
    fill="CanvasText"
  />
  <path
    fill="hsl(40 100% 50%)"
    fill-rule="evenodd"
    opacity="0.7"
    d="M-214.5 313 L-213.5 312 L-212.25 311.75 L-209.5 294 L-209.125 289.25 L-211 288.625 L-213.75 288.25 L-214.25 289.75 L-215.75 290.25 L-218.5 306 L-218.375 310 L-217.75 311.75 L-214.5 313 M-200 299 L-199.5 302 L-196.5 310 L-196 312.5 L-194 314.5 L-193.625 316 L-191.5 321 L-187.5 328 L-186.625 330 L-186.25 332.75 L-189 333.5 L-207.5 334 L-208.5 333 L-209.5 334 L-242.5 333 L-243 332.5 L-242 331.5 L-241.625 330 L-240.5 327 L-240 324.5 L-237 321.5 L-236.5 320 L-233.625 314 L-233 311.5 L-231 309.5 L-230.5 308 L-227 301.5 L-220.5 292 L-214 283.5 L-211 281 L-210.5 281 L-210 280.5 L-210 280 L-208.25 280.25 L-205.375 288 L-203.5 292 L-203 294 L-203 294.5 L-202.5 295 L-202 295 L-202 296 L-202 296.5 L-201.5 297 L-201 297 L-201 298 L-201 298.5 L-200.5 299 L-200 299 M-216.5 329 L-213 325.5 L-213 322.5 L-214.5 321 L-216 320.5 L-218 320.5 L-219.75 321.25 L-220.5 323 L-220.5 325 L-220 326.5 L-218.5 328 L-216.5 329 "
  />
  <path
    fill-rule="evenodd"
    d="M-201 298 L-201 297 L-201 296.5 L-201.5 296 L-202 296 L-202 295 L-202 294.5 L-202.5 294 L-203 294 L-203.5 292 L-205.375 288 L-208.25 280.25 L-210 280 L-210.5 280 L-211 280.5 L-211 281 L-214 283.5 L-220.5 292 L-227 301.5 L-230.5 308 L-231 309.5 L-233 311.5 L-233.625 314 L-236.5 320 L-237 321.5 L-240 324.5 L-240.5 327 L-241.625 330 L-242 331.5 L-243 332.5 L-242.5 333 L-209.5 334 L-208.5 333 L-207.5 334 L-189 333.5 L-186.25 332.75 L-186.625 330 L-187.5 328 L-191.5 321 L-193.625 316 L-194 314.5 L-196 312.5 L-196.5 310 L-199.5 302 L-200 299 L-200 298.5 L-200.5 298 L-201 298 M-184 330 L-183 331.5 L-183.125 336 L-204 336 L-211 336 L-216.5 336 L-217 336.5 L-215 338.5 L-215.375 340 L-217.25 345 L-218 353.5 L-219 354.5 L-218 355.5 L-217.75 356.75 L-216 357.5 L-214 358.5 L-212.5 359 L-211 360.5 L-210.625 362 L-209.5 365 L-208.75 368 L-208.625 377 L-209.625 381 L-210.375 383 L-211 385.5 L-213 387.5 L-213.5 389 L-216 393.5 L-220.5 398 L-222.5 398 L-224 399.5 L-222 401.5 L-225 452.5 L-227.5 455 L-230.5 455 L-233 452.5 L-233 451.5 L-232 450.5 L-233 449.5 L-231 408 L-232 408.5 L-232.5 410 L-239 422.5 L-245 431.5 L-261 450.5 L-271 460.5 L-267.125 509 L-268 517.5 L-270.5 520 L-276 518.75 L-280.125 470.25 L-285.75 468.75 L-287.375 461 L-287.875 436.25 L-286.25 436.25 L-286 440 L-285 439.5 L-285.625 435 L-289.625 420 L-289.375 417 L-288.75 415.25 L-286.5 415 L-285.5 414 L-281 418.5 L-280.5 420 L-278.5 425 L-278 427.5 L-276.5 429 L-269.5 422 L-266.5 420 L-252.5 409 L-247 403.5 L-244 398.5 L-240 394.5 L-240.5 391 L-241.625 388 L-241.75 386 L-239.375 378 L-238.5 376 L-238 374.5 L-230.5 367 L-227.5 366 L-226.5 365 L-225 366.5 L-225.5 367 L-226.5 367 L-229 369.5 L-229.5 371 L-230.375 373 L-231.375 377 L-231 395.75 L-228 396.5 L-225 396.5 L-222.5 396 L-217 390.5 L-216.5 389 L-213.5 384 L-212.625 382 L-211.75 379 L-211.75 367 L-213 362.5 L-215.5 360 L-217.5 360 L-218.5 359 L-219 359.5 L-220 362.5 L-221.5 364 L-225.75 362.75 L-226.5 359 L-226.625 356 L-224.5 345 L-224 338.5 L-222.5 337 L-220 337 L-220.5 336 L-244.5 336 L-245.5 335 L-246.5 336 L-249.5 336 L-251 334.5 L-250.75 332.25 L-249.25 331.75 L-248 325.5 L-246 323.5 L-245.5 322 L-236 304.5 L-230 295.5 L-224 287.5 L-222 284.5 L-221 282.5 L-219 280.5 L-217.75 276.25 L-215 275.375 L-210.5 273 L-209 274.5 L-204.625 283 L-201.5 291 L-197.625 299 L-193 312.5 L-191 314.5 L-191 316 L-191 316.5 L-190.5 317 L-190 317 L-189.5 319 L-185.5 327 L-184.75 328.75 L-184 329 L-184 330 M-270.5 457 L-263 449.5 L-247.5 431 L-241 421.5 L-234.5 409 L-232.5 404 L-232 401.5 L-231 400.5 L-231.5 400 L-235.5 399 L-238.5 396 L-240 397.5 L-242 400.5 L-245.5 405 L-247.25 407.75 L-272.5 428 L-276 431.5 L-273.5 442 L-271 456.5 L-270.5 457 M-280.5 467 L-280 466.5 L-281 465.5 L-284 440.5 L-285 440 L-285.5 457 L-284 465.5 L-285 466.5 L-284.5 467 L-280.5 467 M-230 407 L-230 405.5 L-231 405 L-231 406 L-230 407 "
    fill="CanvasText"
  />
  <path
    fill-rule="evenodd"
    d="M-258 402.5 L-262 402.375 L-266.75 399.75 L-269.5 395 L-270.25 393 L-270.875 388.25 L-269.5 388 L-268 389.5 L-267 395.5 L-263.5 399 L-257.5 400 L-256 398.5 L-254.25 389 L-254.5 387 L-255 385.5 L-256.5 384 L-257 384.5 L-257 385.5 L-258.5 387 L-259.5 386 L-260.75 385.75 L-261.125 384 L-264.625 355 L-269.75 334 L-271.5 331 L-274 327.5 L-275.25 325.25 L-280 322.5 L-281.75 321.75 L-282.25 320.25 L-283.5 320 L-285.5 318 L-287.5 318 L-289.5 316 L-290.5 317 L-293.5 317 L-295.5 315 L-297 314.625 L-304 311.75 L-310 310.5 L-329 311.625 L-334 312.75 L-346 317.625 L-348.5 319 L-357.75 326.25 L-358 327.5 L-363 332.5 L-363 334.5 L-365 336.5 L-366 339.5 L-367.5 341 L-370.75 342.25 L-374.25 387 L-372 398.5 L-368 402.5 L-368 403.5 L-369.5 405 L-372.75 406.25 L-374.625 411 L-374.5 413 L-371.625 418 L-370.75 421.75 L-369 422.375 L-365 422.5 L-358.5 420 L-356 417.5 L-355.25 410.25 L-356.5 410 L-358 408.5 L-357.75 405.25 L-355.5 404 L-353.25 403.25 L-353 404.5 L-351.5 406 L-343 410.375 L-331 414.25 L-316 414.25 L-308 412.5 L-302 410.375 L-299.5 409 L-296.5 407 L-294.5 406 L-287 398.5 L-282 390.5 L-280.625 388 L-278 381.5 L-276.5 380 L-275.5 380 L-274 381.5 L-274.75 386 L-275.5 388 L-277 390.5 L-280 394.5 L-282 397.5 L-285.5 401 L-286.75 401.25 L-287 402.5 L-290.5 406 L-293 407.5 L-296.5 410 L-303 413.375 L-306 414.5 L-313 416.375 L-327 418 L-326.5 419 L-325.5 419 L-323.5 421 L-321 421.625 L-316 423.625 L-311 426.375 L-308.25 427.25 L-308.25 428.875 L-313 428.25 L-318 425.625 L-323 423.5 L-329.5 420 L-331.5 418 L-343 415.5 L-349 413.375 L-351 412.5 L-352.875 412.25 L-353 417.5 L-357.5 422 L-359 422.5 L-363 424.375 L-366 425.375 L-372 426.75 L-377.5 426 L-381 422.5 L-380 409.5 L-377.5 407 L-376.25 406.75 L-376 405.5 L-375 404.5 L-376 403.5 L-376.5 401 L-378.25 395 L-379.375 387 L-378.5 361 L-376.375 347 L-374.75 342 L-372.5 330 L-370.375 324 L-367.5 318 L-366 315.5 L-358 305.5 L-345.5 293 L-343.5 292 L-340.5 290 L-338.5 289 L-337 287.5 L-337.5 287 L-340 286.375 L-342 286.5 L-343.5 287 L-344.5 286 L-345.5 287 L-352 287.625 L-361.5 290 L-363.5 292 L-365.5 293 L-368.5 295 L-370.75 296.25 L-371.25 297.75 L-372.5 298 L-374 299.5 L-374.25 300.75 L-375.75 301.25 L-377.25 305.75 L-378.75 306.25 L-381 313.5 L-383 315.5 L-383.625 318 L-384.375 320 L-385 323.5 L-386 324.5 L-385 325.5 L-386 326.5 L-385 327.5 L-386 334.5 L-387 335.5 L-386 336.5 L-386.75 343 L-384 358.5 L-382 360.5 L-381 367.5 L-380 368.5 L-381 369.5 L-381 370.5 L-382.5 372 L-383.5 372 L-384.5 373 L-385.5 372 L-387.5 372 L-390 369.5 L-390.625 367 L-391.5 365 L-392 363.5 L-392.5 363 L-393.5 364 L-399 365.375 L-403.5 366 L-404.5 365 L-405.5 366 L-411.5 366 L-413 367.5 L-413 373.5 L-410.5 376 L-401 378.75 L-397.5 380 L-396 381.5 L-396 384.5 L-399 387.5 L-399.25 388.75 L-400.75 389.25 L-403.5 394 L-404.375 396 L-404.5 399 L-404 401.5 L-402.5 403 L-400 403.625 L-398 403.625 L-394.5 403 L-392.5 401 L-390.5 400 L-386.5 397 L-383.25 395.25 L-383.5 397 L-384.25 398.75 L-393 404.5 L-395 405.375 L-399 406.5 L-407 406.625 L-409.5 406 L-412 403.5 L-411 397.5 L-409 395.5 L-408.5 394 L-404.625 387 L-404 383.5 L-405 382.5 L-404 381.5 L-404.5 381 L-411 379.5 L-419.75 376.75 L-420 374.5 L-421 373.5 L-420 372.5 L-419.375 370 L-418.5 368 L-418 366.5 L-416.5 365 L-415.5 366 L-414.5 365 L-405.5 364 L-404.5 363 L-403.5 364 L-400 363.5 L-394.5 362 L-393 360.5 L-394.625 348 L-394 335.5 L-393 334.5 L-394 333.5 L-393 330.5 L-392 329.5 L-393 328.5 L-393 327.5 L-391 325.5 L-392 324.5 L-391 323.5 L-390.625 322 L-388.5 317 L-386.625 313 L-386 310.5 L-384 308.5 L-380.5 303 L-380 301.5 L-374.5 296 L-372 294.5 L-368 291.5 L-365.5 290 L-363.5 288 L-360 287.5 L-357 286.5 L-344.5 284 L-343.5 285 L-342.5 284 L-336.5 285 L-334.5 287 L-333.5 286 L-332 285.5 L-325 282.5 L-307 279.25 L-305 279.25 L-298 280.625 L-285 285.625 L-282.5 287 L-270.5 295 L-269 296.5 L-264 304.5 L-262.625 307 L-261.75 310 L-261.75 318 L-262 319.5 L-264.5 322 L-268.75 320.75 L-271.75 306 L-272.5 304 L-277 295.5 L-278.5 294 L-280 293.5 L-289 286.625 L-299 282.75 L-305.5 282 L-306.5 281 L-307.5 282 L-316 282.625 L-324 284.5 L-329 286.375 L-331.5 287 L-333.5 289 L-335 289.5 L-343.5 294 L-357 307.5 L-357 308.5 L-358.5 310 L-359.75 310.25 L-364.5 317 L-370.375 330 L-371.5 334 L-372 337.5 L-372 338 L-371 337.5 L-370.75 336.25 L-369.25 335.75 L-368 332.5 L-366.5 331 L-365.25 330.75 L-365 329.5 L-360.5 325 L-359.5 325 L-358 323.5 L-357.75 322.25 L-346.5 314 L-338 309.625 L-335 308.75 L-310.5 306 L-308.5 304 L-307.5 305 L-306.5 304 L-305.5 305 L-304.5 304 L-300 304.625 L-282 310.5 L-279.5 311 L-277.5 313 L-276.5 313 L-273 316.5 L-270 321.5 L-268 323.5 L-268 325.5 L-266 327.5 L-265.375 331 L-265 332.5 L-263 334.5 L-262 344.5 L-259 347.5 L-256.75 361 L-256 380.5 L-254.5 382 L-251.5 383 L-248 386.5 L-247.5 389 L-247.5 392 L-250 398.5 L-251.5 400 L-253 400.5 L-258 402.5 "
    fill="CanvasText"
  />

  <style>:root { color-scheme: light dark; }</style>
</svg>
