<svg xmlns="http://www.w3.org/2000/svg" xmlns:xlink="http://www.w3.org/1999/xlink" width="208" zoomAndPan="magnify" viewBox="0 0 78 103.5" height="276" preserveAspectRatio="xMidYMid meet" version="1.2">
	<style>:root { color-scheme: light dark; }</style>
	<g id="beb43a0e6a">
		<path style="fill:none;stroke-width:4;stroke-linecap:round;stroke-linejoin:round;stroke:CanvasText;stroke-opacity:1;stroke-miterlimit:4;" d="M -509.428043 491.858332 L -509.651673 492.560404 L -508.661313 493.16674 L -505.434659 496.485628 L -500.355074 500.7938 L -498.885509 502.740455 L -493.19893 506.474204 L -485.88305 512.760944 L -478.726906 519.685931 L -471.379079 525.047212 L -458.887773 532.770009 L -444.287961 543.077709 L -429.656202 552.268475 L -419.209509 559.384937 L -408.890604 566.91626 L -404.449961 570.713833 L -401.926142 572.022241 L -392.980962 578.277069 L -377.582472 589.637877 L -371.193058 594.999158 L -362.98266 602.562393 L -350.107989 613.380691 L -338.670937 624.007515 L -336.274907 625.826521 L -305.541822 659.494086 L -299.535773 665.334053 L -285.191537 677.492671 L -273.658644 686.109015 L -269.920836 688.470531 L -248.899662 703.692739 L -245.002119 705.958518 L -235.38605 713.840877 L -223.533686 721.850885 L -212.448051 729.892806 L -208.64635 733.307431 L -206.633684 734.264803 L -199.413646 739.115485 L -189.126688 747.540354 L -185.804192 749.838046 L -182.417803 752.869723 L -176.283965 757.177895 " transform="matrix(0.122273,0,0,0.122405,66.445314,-45.756926)"/>
		<path style="fill:none;stroke-width:4;stroke-linecap:round;stroke-linejoin:round;stroke:CanvasText;stroke-opacity:1;stroke-miterlimit:4;" d="M -507.287589 491.954069 L -507.447325 492.49658 L -507.095907 493.007178 L -507.511219 492.911441 L -506.488912 493.134827 L -506.456965 492.656142 L -506.137495 492.943353 L -506.29723 493.517776 L -505.818024 492.975265 L -505.881918 493.326302 L -505.306871 493.677338 L -503.965094 494.028374 L -500.866227 496.740927 L -492.080782 501.719259 L -489.077758 503.059579 L -487.033145 504.495636 L -486.138627 505.61257 L -472.752803 510.590902 L -469.238625 512.282258 L -467.705166 513.399191 L -463.871517 514.4523 L -461.028227 516.430868 L -452.466412 519.973143 L -451.987206 520.579478 L -446.204785 522.238922 L -443.680967 523.164381 L -442.243348 524.08984 L -439.208376 524.696175 L -436.844293 525.685459 L -435.821987 525.749284 L -432.850909 528.078888 L -430.838243 528.749048 L -429.815937 528.461837 L -424.257146 531.940287 L -420.39155 533.344432 L -417.132949 535.003876 L -416.302325 535.482561 L -415.663384 536.40802 L -413.906294 537.142005 L -412.468676 537.173918 L -410.264328 539.024836 L -408.443345 539.88647 L -404.194384 541.418265 L -402.852607 541.609739 L -400.201 543.205358 L -397.389658 544.03508 L -392.278126 546.492334 L -386.144288 548.438989 L -385.058087 548.18369 L -382.40648 549.428273 L -379.818767 550.002696 L -378.636726 549.715485 L -376.049013 551.023892 L -374.962812 551.917439 L -363.589654 554.502342 L -360.9061 555.523539 L -358.733699 555.81075 L -357.583605 555.619276 L -354.420844 557.15107 L -351.577555 557.693581 L -350.555249 557.406369 L -347.328594 558.746689 L -345.95487 558.810514 L -342.951845 560.438046 L -336.881901 561.682629 L -332.824623 563.054861 L -321.195888 564.77813 L -320.365264 565.416378 L -318.160916 565.990801 L -316.914981 565.671677 L -316.403827 566.214187 L -313.145226 567.267296 L -311.388137 567.618332 L -310.365831 567.45877 L -299.631614 570.043673 L -291.325375 571.224432 L -289.85581 571.894592 L -286.852785 572.309453 L -285.447114 571.958416 L -280.782841 573.713598 L -273.339173 575.596428 L -272.06129 575.628341 L -259.410249 579.872688 L -257.876789 580.096074 L -247.813461 584.148947 L -244.043707 585.170144 L -242.510247 585.265881 L -237.877922 587.882696 L -234.459585 588.967717 L -232.926125 589.127279 L -225.706087 592.797203 L -222.83085 594.935333 L -216.856748 598.605257 L -212.831416 600.583825 L -204.269601 606.423791 L -202.86393 606.80674 L -196.570356 612.199933 L -194.78132 613.157304 L -191.586613 615.806032 L -185.644457 621.358787 L -183.408162 622.667195 L -182.641432 622.762932 L -180.437084 625.188273 L -179.638407 626.688155 L -176.827065 628.507161 L -173.408728 633.230194 L -171.268274 635.208762 L -170.533492 636.421433 L -167.81799 638.591475 L -163.281506 643.250683 L -159.543698 645.995148 L -157.403244 648.069453 L -156.444832 648.324752 L -155.773944 648.899175 L -155.518367 649.792722 L -155.518367 649.409773 " transform="matrix(0.122273,0,0,0.122405,66.445314,-45.756926)"/>
		<path style="fill:none;stroke-width:4;stroke-linecap:round;stroke-linejoin:round;stroke:CanvasText;stroke-opacity:1;stroke-miterlimit:4;" d="M -186.251451 750.252907 L -186.698711 750.252907 L -187.177917 750.763505 L -186.634816 749.774221 L -186.219504 750.412469 L -185.101357 749.582747 L -184.110998 750.667768 L -183.056744 751.082629 L -181.107973 752.901635 L -173.792093 758.358653 L -169.159767 762.698737 L -165.42196 765.602764 L -160.597952 770.708745 L -154.591902 775.974289 L -152.930654 778.016681 L -149.320635 780.824971 L -147.62744 781.622781 L -145.77451 783.728998 L -137.6919 791.292233 L -131.430274 795.919529 L -127.149366 798.312958 L -125.040859 801.216985 L -125.008912 802.684954 " transform="matrix(0.122273,0,0,0.122405,66.445314,-45.756926)"/>
		<path style="fill:none;stroke-width:4;stroke-linecap:round;stroke-linejoin:round;stroke:CanvasText;stroke-opacity:1;stroke-miterlimit:4;" d="M -310.333883 562.576175 L -310.749195 562.863387 L -308.065641 563.788846 L -307.650329 563.565459 L -306.340499 564.331357 L -300.302503 564.810042 L -299.184355 565.256816 L -298.641255 566.341837 L -297.938419 566.150363 L -296.532748 566.660961 L -294.520082 568.12893 L -292.667152 568.735266 L -292.028211 569.277776 L -290.622539 569.628812 L -289.919704 569.054389 L -287.300044 570.618096 L -285.92632 570.93722 L -285.223484 570.777658 L -276.565827 573.936984 L -275.607415 573.777422 L -273.946167 574.54332 L -273.083596 575.500691 L -271.230666 575.787903 L -270.368095 575.564516 L -267.045599 577.319697 L -260.081137 578.979141 L -251.327639 581.595956 L -249.25108 582.425678 L -248.164879 583.478787 L -246.184161 583.861736 L -242.190777 585.265881 L -241.104576 585.265881 L -237.718186 586.925325 L -234.459585 587.723134 L -228.964688 590.467599 L -227.30344 591.839832 L -217.04843 595.956529 L -215.930282 596.881989 L -213.566199 597.29685 L -212.320263 596.850076 L -211.777163 597.456411 L -208.454667 599.052031 L -205.739166 600.775299 L -204.397389 601.030598 L -199.956746 604.189925 L -193.47149 609.61503 L -192.129713 611.434036 L -191.458824 611.434036 L -187.625176 613.63599 L -184.686045 615.64647 L -183.184532 617.433564 L -182.481697 617.369739 L -180.245402 618.614322 L -173.568463 620.848189 L -166.380372 625.41166 L -165.19833 625.762696 L -161.204946 629.113497 L -150.854094 636.357608 L -149.991524 636.676732 L -148.841429 637.72984 L -148.042752 639.07016 L -147.914964 638.782949 L -147.276022 639.038248 L -146.956552 638.814861 L -145.934245 639.931795 L -145.806457 639.676496 L -146.349557 640.346656 L -146.062034 641.367852 L -146.125928 640.53813 L -146.509293 640.66578 L -146.253716 640.825342 L -146.189822 640.474305 L -145.902298 641.431677 L -145.678669 640.570043 L -145.103621 642.389048 L -144.688309 642.644348 L -144.368839 642.420961 L -141.589443 647.303556 L -141.876967 646.090885 L -142.675644 645.548374 L -142.739538 645.037776 L -142.93122 645.261163 L -144.081315 643.34642 L -144.848045 643.091121 L -145.199463 642.516698 L -148.010805 640.506218 L -153.761278 633.198282 L -157.467139 629.241146 L -159.511751 627.42214 L -160.470163 627.071104 L -163.824606 622.826757 L -171.012698 617.24209 L -172.354475 616.827229 L -175.101923 614.848661 L -176.731224 613.061567 L -177.370165 612.997743 L -179.574513 611.434036 L -181.235761 610.891525 L -186.890393 606.966302 L -191.522719 604.189925 L -196.250885 600.551913 L -204.621019 595.03107 L -205.355801 594.201348 L -209.061662 592.573817 L -210.627068 592.382342 L -213.66204 590.659074 L -215.067711 589.446403 L -218.645784 588.137995 L -220.21119 587.882696 L -222.671115 586.701938 L -224.68378 586.670026 L -228.932741 584.499983 L -233.660908 583.957473 L -238.389075 582.329941 L -241.583782 581.627869 L -243.0214 580.734322 L -244.363177 580.670497 L -246.855049 579.457827 L -248.771874 578.979141 L -249.762233 579.074878 L -252.19021 577.160135 L -253.404199 576.936748 L -253.947299 577.830295 L -254.075088 577.192047 L -255.0335 576.362325 L -255.129341 576.872924 L -254.777923 576.649537 L -254.937659 576.841011 L -255.161288 576.202764 L -254.937659 575.468779 " transform="matrix(0.122273,0,0,0.122405,66.445314,-45.756926)"/>
		<path style="fill:none;stroke-width:4;stroke-linecap:round;stroke-linejoin:round;stroke:CanvasText;stroke-opacity:1;stroke-miterlimit:4;" d="M -142.515908 648.101365 L -142.420067 647.112081 L -141.493602 648.83535 L -137.947477 662.653412 L -137.084906 664.663893 L -132.388686 682.056142 L -128.714773 692.236193 L -123.954659 702.671542 L -122.261464 705.001146 L -114.658061 718.56391 L -113.220442 720.191441 L -110.504941 724.531525 L -107.118551 728.775873 L -103.572426 732.381972 L -96.671858 738.190026 L -93.572992 741.572739 L -91.720062 742.817322 L -90.53802 744.253379 L -90.026867 744.221467 L -88.333672 745.370312 L -88.205884 745.178838 L -87.630837 746.67872 L -87.471101 746.359596 L -88.397567 746.072385 L -88.525355 745.785173 L -88.748984 745.944735 L -89.835185 745.083101 L -91.208909 745.3384 L -92.039533 744.732065 L -92.550686 743.774693 L -93.029892 743.774693 L -94.084146 742.65776 L -100.154089 733.403168 L -105.648986 726.414356 L -119.098704 707.649874 L -125.90343 696.640102 L -130.024603 687.130211 L -133.059575 675.641753 L -135.647288 667.918956 L -136.829329 659.877035 L -136.637647 655.217827 L -136.445965 654.037069 L -136.286229 654.260455 L -136.445965 653.303084 L -136.445965 655.217827 L -136.957118 655.505038 L -137.212694 657.164482 L -137.37243 662.07899 L -136.701541 667.312621 L -135.934811 670.344297 L -132.772051 680.173311 L -129.545397 687.672722 L -126.254848 693.863724 L -123.347665 698.36337 L -111.143883 714.925898 L -109.09927 718.595822 L -107.949175 719.457456 L -102.677908 725.648459 L -96.320441 733.913766 L -87.279419 744.285291 L -80.538587 751.210279 L -73.925542 756.380085 L -67.216657 760.209571 L -62.744067 762.315788 L -60.411931 764.166707 L -57.856165 767.453682 " transform="matrix(0.122273,0,0,0.122405,66.445314,-45.756926)"/>
		<path style="fill:none;stroke-width:4;stroke-linecap:round;stroke-linejoin:round;stroke:CanvasText;stroke-opacity:1;stroke-miterlimit:4;" d="M -103.63632 732.764921 L -102.614014 731.488425 L -99.003995 734.839226 L -98.141424 735.126437 L -92.359004 741.349352 L -83.956923 752.040001 L -75.490949 763.688021 L -71.593406 770.740658 L -67.823651 776.740186 L -65.747092 779.325089 L -61.338396 787.079799 L -55.172611 800.195788 L -50.859756 813.343691 L -47.888678 826.012907 L -46.259377 836.416345 L -46.419112 839.224634 L -48.208149 836.001484 " transform="matrix(0.122273,0,0,0.122405,66.445314,-45.756926)"/>
		<path style="fill:none;stroke-width:4;stroke-linecap:round;stroke-linejoin:round;stroke:CanvasText;stroke-opacity:1;stroke-miterlimit:4;" d="M -126.861843 799.621366 L -127.245207 796.589689 L -126.734054 797.164112 L -125.424224 801.216985 L -123.060141 810.950262 L -119.258439 828.438249 L -117.117985 840.054356 L -114.019119 862.45685 L -111.431406 885.21038 L -109.450688 906.751239 L -105.297568 961.512891 L -102.454279 1010.019715 L -99.93046 1045.729673 L -100.026301 1051.31434 L -103.85995 1033.283843 " transform="matrix(0.122273,0,0,0.122405,66.445314,-45.756926)"/>
		<path style="fill:none;stroke-width:4;stroke-linecap:round;stroke-linejoin:round;stroke:CanvasText;stroke-opacity:1;stroke-miterlimit:4;" d="M -116.063732 851.606639 L -116.479044 851.510902 L -117.309668 853.680944 L -117.533297 863.988645 L -111.303618 1003.732975 L -108.652011 1037.52819 L -106.160139 1064.047381 L -103.029326 1092.608965 L -99.067889 1142.232723 L -97.023276 1160.103658 L -97.246906 1163.901232 L -98.524789 1162.209875 " transform="matrix(0.122273,0,0,0.122405,66.445314,-45.756926)"/>
		<path style="fill:none;stroke-width:4;stroke-linecap:round;stroke-linejoin:round;stroke:CanvasText;stroke-opacity:1;stroke-miterlimit:4;" d="M -95.042558 780.314373 L -95.489817 777.05931 L -95.585658 776.804011 L -95.745393 776.995485 L -96.512123 779.73995 L -100.090195 788.643505 L -102.677908 796.685426 L -108.460328 819.024095 L -110.9522 832.363472 " transform="matrix(0.122273,0,0,0.122405,66.445314,-45.756926)"/>
		<path style="fill:none;stroke-width:4;stroke-linecap:round;stroke-linejoin:round;stroke:CanvasText;stroke-opacity:1;stroke-miterlimit:4;" d="M -105.808721 815.960506 L -106.032351 815.800944 L -106.47961 816.27963 L -106.447663 820.938838 L -108.108911 834.724988 L -115.744261 883.646673 L -116.73462 891.529032 " transform="matrix(0.122273,0,0,0.122405,66.445314,-45.756926)"/>
		<path style="fill:none;stroke-width:4;stroke-linecap:round;stroke-linejoin:round;stroke:CanvasText;stroke-opacity:1;stroke-miterlimit:4;" d="M -113.476019 860.286808 L -113.763543 852.883135 L -113.220442 844.713564 L -111.431406 834.852638 L -109.290952 828.438249 L -102.645961 815.130784 L -100.345772 811.492772 L -97.023276 806.801652 L -88.812879 796.46204 " transform="matrix(0.122273,0,0,0.122405,66.445314,-45.756926)"/>
		<path style="fill:none;stroke-width:4;stroke-linecap:round;stroke-linejoin:round;stroke:CanvasText;stroke-opacity:1;stroke-miterlimit:4;" d="M -67.568075 1132.276059 L -67.248604 1132.786657 L -65.87488 1132.595183 L -60.603613 1126.53183 L -41.946522 1097.555385 L -29.359375 1075.152891 L -22.842173 1065.10049 L -16.165234 1055.654424 L -6.804742 1044.963776 L -4.217029 1042.634171 L -0.990375 1040.496042 L 0.830609 1040.559866 L 1.213974 1040.87899 L 1.213974 1043.719193 L -1.118163 1051.218603 L -3.641982 1058.015941 L -12.17185 1075.695402 L -14.79151 1082.109791 L -15.302663 1085.364854 L -14.823457 1086.609437 L -14.152569 1086.928561 L -13.385839 1086.5137 L -12.299638 1086.705174 L -10.830073 1086.354138 L -9.807767 1086.960473 L -9.296614 1086.5137 L -5.686594 1085.428679 L -2.555781 1083.354374 L 2.172386 1076.237912 L 11.564825 1060.345545 L 18.689023 1049.814458 L 19.423805 1049.17621 L 19.423805 1049.527246 L 16.197151 1055.558687 L 11.500931 1066.185511 L 8.082594 1072.567988 L -4.632341 1094.236497 L -24.120055 1121.936446 L -42.553517 1149.221535 L -48.016466 1156.178435 L -63.159379 1181.516868 L -66.993028 1186.399462 L -68.526487 1187.580221 L -68.558434 1187.261097 " transform="matrix(0.122273,0,0,0.122405,66.445314,-45.756926)"/>
		<path style="fill:none;stroke-width:4;stroke-linecap:round;stroke-linejoin:round;stroke:CanvasText;stroke-opacity:1;stroke-miterlimit:4;" d="M -72.519871 1125.06386 L -59.804936 1110.4799 L -45.173177 1092.449403 L -30.637258 1076.429386 L -10.159185 1056.165022 L 1.022291 1046.176446 L 13.513597 1033.698704 L 28.43288 1019.529605 L 44.981464 1005.647718 L 47.505282 1004.435048 L 45.205093 1006.828476 L 40.381085 1012.987567 L 35.461236 1020.901838 L 33.1291 1023.805865 L 21.723994 1040.20883 L 17.986187 1046.942343 L 14.855374 1054.090717 L 10.510572 1065.994037 L 3.801686 1086.928561 L -3.066934 1103.235789 L -7.315895 1112.07552 L -24.311738 1142.647584 L -34.534801 1162.848123 L -38.048979 1171.177255 L -40.157486 1177.878856 " transform="matrix(0.122273,0,0,0.122405,66.445314,-45.756926)"/>
		<path style="fill:none;stroke-width:4;stroke-linecap:round;stroke-linejoin:round;stroke:CanvasText;stroke-opacity:1;stroke-miterlimit:4;" d="M -267.205335 572.851963 L -266.438605 574.447582 L -266.438605 572.500927 L -268.355429 568.703353 L -272.157131 559.16155 L -276.278304 546.30086 L -284.39286 524.21749 L -290.015545 510.718551 L -300.078873 488.635181 L -303.177739 481.040034 L -313.43275 451.904027 " transform="matrix(0.122273,0,0,0.122405,66.445314,-45.756926)"/>
		<path style="fill:none;stroke-width:4;stroke-linecap:round;stroke-linejoin:round;stroke:CanvasText;stroke-opacity:1;stroke-miterlimit:4;" d="M -316.244092 445.904499 L -320.397211 442.330312 L -321.451465 440.989992 L -315.669045 446.734221 L -311.483978 450.34032 L -307.043335 455.095265 L -297.203636 466.679461 L -289.504392 476.540388 L -281.325941 489.847852 L -270.719513 509.314406 L -254.873765 537.110093 L -250.369227 545.630699 L -237.366768 565.480202 L -226.888128 579.202528 " transform="matrix(0.122273,0,0,0.122405,66.445314,-45.756926)"/>
		<path style="fill:none;stroke-width:4;stroke-linecap:round;stroke-linejoin:round;stroke:CanvasText;stroke-opacity:1;stroke-miterlimit:4;" d="M -303.369422 464.79663 L -303.880575 465.562527 L -303.593051 467.700657 L -303.784733 468.019781 L -301.228968 474.721382 L -297.874525 490.2308 L -297.682843 492.273193 L -296.40496 496.070767 L -295.702124 496.294153 L -296.309118 484.518484 L -296.117436 478.199832 L -295.446547 474.56182 L -294.967341 474.785206 L -294.583976 477.657321 L -292.315734 484.773783 L -289.696074 497.219613 L -286.980573 513.973614 L -285.15959 521.536849 L -280.207794 537.173918 L -279.473011 537.556866 L -278.993805 537.301567 L -278.195128 534.812401 L -278.38681 520.547565 L -277.492292 507.974086 L -274.585109 535.418736 L -273.083596 542.69476 L -271.134825 550.353732 L -269.537471 555.204415 L -267.301176 560.374221 L -266.438605 561.108206 L -265.639928 560.948644 L -265.064881 560.310396 L -264.425939 558.555215 L -262.636903 535.961247 L -261.774332 532.674271 L -260.752026 531.04674 L -260.208926 532.004111 L -254.841817 552.364213 L -251.551269 561.395417 L -249.634445 564.171795 L -248.963556 564.459006 L -244.778489 568.894828 " transform="matrix(0.122273,0,0,0.122405,66.445314,-45.756926)"/>
		<path style="fill:none;stroke-width:4;stroke-linecap:round;stroke-linejoin:round;stroke:CanvasText;stroke-opacity:1;stroke-miterlimit:4;" d="M -235.16242 573.362561 L -235.673574 573.139175 L -235.833309 573.74551 L -235.865256 575.75599 L -233.501173 591.648358 L -232.22329 620.273766 L -231.616295 626.113732 L -231.073195 627.741264 L -230.498148 627.900826 L -229.891153 627.517877 L -227.111758 621.454524 L -222.415538 595.988442 L -221.552967 593.116327 L -221.52102 597.29685 L -220.562608 602.817692 L -219.156937 614.465712 L -217.623477 639.485021 L -216.569224 649.473598 L -215.483023 654.707229 L -214.492664 655.185915 L -213.310622 654.515754 L -211.393798 650.048021 L -203.95013 622.539545 L -199.573381 603.870801 L -198.838598 601.31781 L -198.646916 600.966774 L -198.231604 601.381635 L -197.688504 625.092536 L -198.806651 664.472418 L -199.190016 669.833699 L -199.030281 687.736546 L -198.614969 692.459579 L -198.007974 693.480776 L -197.305139 693.704162 L -196.378674 691.980894 L -195.899468 692.140455 L -195.260526 691.629857 L -193.631225 689.332166 L -193.056178 688.438619 L -190.947671 682.439091 L -185.356933 662.110902 L -182.385856 647.654592 L -180.053719 632.208998 L -178.424419 627.071104 L -178.073001 627.007279 L -178.999466 666.865847 L -178.967519 683.843236 L -178.552207 697.725123 L -176.635382 717.064028 L -175.517235 722.201921 L -174.686611 722.903994 L -173.696252 722.903994 L -171.779427 720.893514 L -170.086233 717.606538 L -167.658255 705.830868 L -163.8885 682.343353 L -162.706459 677.20546 L -160.470163 669.833699 L -158.904757 668.206167 L -157.594927 679.375502 L -155.71005 708.00091 L -154.783584 715.691795 L -153.697384 722.808257 L -151.397195 733.115957 L -150.087365 740.679192 L -147.819123 747.029756 L -146.732922 748.178602 L -145.518933 748.657288 L -144.432733 748.01904 L -142.963167 745.912823 L -141.589443 742.210986 L -133.059575 711.192149 L -130.503809 702.894929 L -128.363355 698.076159 L -127.404943 696.863488 L -126.702107 696.48054 L -126.254848 697.948509 L -123.890765 717.542713 L -120.823846 732.988307 L -113.731596 763.017861 L -111.71893 770.10241 L -110.504941 772.432014 L -109.195111 773.548948 L -106.862975 773.644685 L -103.604373 772.017153 L -102.741802 771.283168 L -99.323466 766.783522 L -97.598324 763.592284 L -92.678474 757.879967 L -89.962973 756.252435 L -87.982255 755.6461 L -86.033483 755.6461 L -85.170912 756.029049 L -83.541611 757.816142 L -81.528946 761.230767 L -79.19681 767.740894 " transform="matrix(0.122273,0,0,0.122405,66.445314,-45.756926)"/>
		<path style="fill:none;stroke-width:4;stroke-linecap:round;stroke-linejoin:round;stroke:CanvasText;stroke-opacity:1;stroke-miterlimit:4;" d="M -456.74732 526.834305 L -456.236166 519.654019 L -455.373595 516.239394 L -454.926336 515.409672 L -454.926336 516.749992 L -454.095712 520.164617 L -451.156582 524.855737 L -448.345239 530.121281 L -445.693632 536.40802 L -444.95885 539.375872 L -442.946184 543.556394 L -439.112535 549.715485 L -437.035975 551.311104 L -435.694198 551.055805 L -434.607998 549.970784 L -433.809321 548.31134 L -433.681533 547.226319 L -431.509132 540.907667 L -428.793631 535.0677 L -427.771324 534.39754 L -426.205918 534.908138 L -421.573592 543.269183 L -413.395141 562.831475 L -407.772456 574.54332 L -406.877938 576.011289 L -403.395707 580.000337 L -399.817635 582.744802 L -397.229922 583.574524 L -395.313098 581.851256 L -390.584931 574.639057 L -387.741642 569.245864 L -386.144288 568.033193 L -384.195516 567.426858 L -382.023116 567.937456 L -378.061678 572.692401 L -373.972453 578.500455 L -370.777746 583.957473 L -369.052604 586.06369 L -366.14542 592.605729 L -364.771696 596.658602 L -363.813284 597.935097 L -359.244852 606.551441 L -356.816875 609.966066 L -353.558273 613.476428 L -349.628783 616.348543 L -346.466023 615.869857 L -344.676987 614.848661 L -343.590787 613.316866 L -341.354491 609.232081 L -337.073584 596.052267 L -335.955436 593.403539 L -334.869236 591.807919 L -333.207988 590.403775 L -331.578687 591.042022 L -328.128403 597.360674 L -325.636531 602.881517 L -321.036153 614.338063 L -319.566588 619.156833 L -308.864318 643.984668 L -304.615357 649.856546 L -301.292862 655.12209 L -299.663561 656.941096 L -297.107795 658.696277 L -295.542389 659.079225 L -293.945035 658.728189 L -291.740687 657.419781 L -290.239174 655.824162 L -288.194562 652.3138 L -286.980573 649.537423 L -282.3163 635.655535 L -280.527264 631.730312 L -278.802122 629.528358 L -278.035393 629.304971 L -277.236716 629.624095 L -276.374145 630.996327 L -275.543521 631.6984 L -274.265638 633.932267 L -273.275279 636.485257 L -272.508549 637.442629 L -268.515165 645.548374 L -264.873198 654.547667 L -262.445221 661.82369 L -257.205901 674.39717 L -254.618188 679.662713 L -246.343896 691.374558 L -243.820077 694.023286 L -242.126882 695.395519 L -239.698905 696.735839 L -237.973763 697.086875 L -236.024991 696.991138 L -232.22329 695.746555 L -228.677165 693.193564 L -222.255803 685.311205 L -218.294366 681.290245 L -215.227447 678.705342 L -213.150887 677.74797 L -209.988127 677.045898 L -206.889261 677.620321 L -205.100225 678.641517 L -202.384723 681.066858 L -197.241245 688.151407 L -191.778295 699.95899 L -185.037463 716.521517 L -178.903625 728.297187 L -166.891525 747.668004 L -157.435192 763.751846 L -152.451448 770.421534 L -149.863735 772.623488 L -147.531599 775.240304 L -142.739538 778.718754 L -141.493602 779.261264 L -136.637647 779.325089 L -133.858252 778.718754 L -124.657495 778.303893 L -120.951634 778.942141 L -116.95825 780.027162 L -114.945584 780.888796 L -109.227058 784.399158 L -103.796056 789.154104 L -97.08717 796.525864 L -90.889438 804.854997 L -84.052765 815.194609 " transform="matrix(0.122273,0,0,0.122405,66.445314,-45.756926)"/>
		<path style="fill:none;stroke-width:4;stroke-linecap:round;stroke-linejoin:round;stroke:CanvasText;stroke-opacity:1;stroke-miterlimit:4;" d="M -62.424596 774.506319 L -61.849549 773.261736 L -60.63556 775.910464 L -57.792271 787.047886 L -51.882062 823.77904 L -46.99416 849.787634 L -44.693971 865.903388 L -39.550492 896.826488 L -36.100208 915.942006 L -33.831966 926.600742 L -31.755406 941.120877 L -30.094158 967.097558 L -30.030264 984.904668 L -30.988676 1005.073295 L -34.694537 1049.942107 L -35.045954 1052.750397 L -35.716843 1047.29338 " transform="matrix(0.122273,0,0,0.122405,66.445314,-45.756926)"/>
		<path style="fill:none;stroke-width:4;stroke-linecap:round;stroke-linejoin:round;stroke:CanvasText;stroke-opacity:1;stroke-miterlimit:4;" d="M -64.277526 770.932132 L -62.264861 776.165763 L -57.345011 802.333918 L -54.693404 824.002427 L -53.00021 840.884078 L -52.073744 854.127718 L -49.134614 915.846269 L -46.067695 986.564112 L -45.876012 996.8399 L -46.163536 1019.529605 L -47.601154 1039.634407 L -51.850115 1083.290549 L -51.977903 1083.769235 L -52.169586 1080.737558 L -53.351627 1076.939985 L -55.300399 1067.653481 L -55.971287 1062.834711 L -56.833858 1051.793026 " transform="matrix(0.122273,0,0,0.122405,66.445314,-45.756926)"/>
		<path style="fill:none;stroke-width:4;stroke-linecap:round;stroke-linejoin:round;stroke:CanvasText;stroke-opacity:1;stroke-miterlimit:4;" d="M -61.530078 809.131256 L -60.63556 812.194845 L -59.645201 818.353935 L -56.9297 854.351104 L -54.757299 873.115586 L -50.412497 905.698131 L -48.591513 922.388308 L -46.802477 951.396665 L -44.949547 1006.892301 L -43.352193 1082.301265 L -43.959188 1103.171964 L -45.300965 1120.564214 L -45.588489 1122.319395 L -46.259377 1123.500153 L -48.016466 1119.925966 " transform="matrix(0.122273,0,0,0.122405,66.445314,-45.756926)"/>
		<path style="fill:none;stroke-width:4;stroke-linecap:round;stroke-linejoin:round;stroke:CanvasText;stroke-opacity:1;stroke-miterlimit:4;" d="M -131.334433 582.840539 L -130.376021 579.713126 L -129.130085 577.383522 L -126.989631 574.798619 L -119.641804 568.862915 L -115.137267 565.863151 L -107.02271 561.331592 L -101.655602 559.384937 L -87.279419 555.172502 L -83.829135 553.576883 L -74.852008 551.598315 L -71.018359 551.087717 L -60.63556 548.566639 L -46.514954 546.04556 L -21.180925 542.790497 L -4.121188 541.162966 L 0.287508 540.428981 L 23.513031 539.694996 L 32.522105 540.365156 L 36.196019 541.641651 L 39.230991 543.301095 L 40.668609 544.641416 L 41.595074 546.237035 L 41.850651 547.673092 L 41.243656 551.183454 L 38.432314 555.874575 L 37.218325 556.704297 L 35.74876 558.587127 L 33.001311 561.076293 L 29.710763 563.086774 L 22.362936 569.022477 L 20.669741 569.947936 L 14.823427 574.383758 L 8.881271 577.383522 L 6.325505 578.149419 L -3.897558 583.606437 L -13.162209 587.595485 L -24.407579 593.052502 L -28.081493 594.137523 L -39.67828 598.541433 L -55.428187 602.817692 L -58.495106 603.296378 L -59.932724 603.200641 L -68.590381 605.306858 L -74.82006 605.945106 L -76.385467 606.519529 L -80.28301 605.785544 L -81.273369 606.00893 L -81.624787 606.551441 L -82.008152 606.264229 L -81.848417 605.913193 L -81.528946 606.487616 L -81.816469 605.913193 L -81.081687 606.583353 L -80.474692 606.00893 " transform="matrix(0.122273,0,0,0.122405,66.445314,-45.756926)"/>
		<path style="fill:none;stroke-width:4;stroke-linecap:round;stroke-linejoin:round;stroke:CanvasText;stroke-opacity:1;stroke-miterlimit:4;" d="M -84.883389 610.700051 L -82.966564 610.795788 " transform="matrix(0.122273,0,0,0.122405,66.445314,-45.756926)"/>
		<path style="fill:none;stroke-width:4;stroke-linecap:round;stroke-linejoin:round;stroke:CanvasText;stroke-opacity:1;stroke-miterlimit:4;" d="M -165.358066 563.469722 L -165.709483 559.257288 L -165.42196 555.587363 L -164.399653 550.481382 L -161.49247 539.631171 L -156.25315 523.164381 L -153.154284 515.537321 L -148.873376 506.889065 L -142.867326 496.421803 L -133.283204 483.178164 L -124.114394 473.189587 L -118.875074 468.306992 L -112.006454 462.945712 L -110.888306 461.764954 L -110.728571 461.413917 L -111.335565 461.669217 L -111.335565 462.11599 L -111.271671 461.764954 " transform="matrix(0.122273,0,0,0.122405,66.445314,-45.756926)"/>
		<path style="fill:none;stroke-width:4;stroke-linecap:round;stroke-linejoin:round;stroke:CanvasText;stroke-opacity:1;stroke-miterlimit:4;" d="M -103.348797 481.26342 L -102.038967 495.592081 L -102.00702 502.708543 L -102.262596 509.282494 L -103.604373 519.973143 L -108.076964 539.375872 L -114.658061 564.65048 L -118.204186 578.883404 L -118.779233 582.170379 " transform="matrix(0.122273,0,0,0.122405,66.445314,-45.756926)"/>
		<path style="fill:none;stroke-width:4;stroke-linecap:round;stroke-linejoin:round;stroke:CanvasText;stroke-opacity:1;stroke-miterlimit:4;" d="M -154.144643 569.852199 L -153.665437 573.330649 L -153.026495 585.904128 " transform="matrix(0.122273,0,0,0.122405,66.445314,-45.756926)"/>
		<path style="fill:none;stroke-width:4;stroke-linecap:round;stroke-linejoin:round;stroke:CanvasText;stroke-opacity:1;stroke-miterlimit:4;" d="M -157.307403 570.522359 L -156.955985 570.330885 L -156.317044 572.149891 L -156.444832 575.468779 L -158.393604 588.20182 L -160.150693 596.530952 L -160.310428 600.168964 " transform="matrix(0.122273,0,0,0.122405,66.445314,-45.756926)"/>
		<path style="fill:none;stroke-width:4;stroke-linecap:round;stroke-linejoin:round;stroke:CanvasText;stroke-opacity:1;stroke-miterlimit:4;" d="M -80.698322 606.80674 L -82.455411 605.179208 L -83.317982 604.987734 L -85.202859 603.551677 L -85.682065 603.519764 L -87.694731 603.806976 L -88.940667 604.413311 L -89.579608 604.253749 L -93.38131 604.828172 L -100.633296 606.455704 L -104.019685 606.93439 L -123.251823 607.859849 L -128.395302 608.657658 L -130.120444 609.359731 L -133.283204 609.519293 L -136.797382 611.497861 L -136.669594 611.785072 L -136.637647 611.465948 L -136.989065 611.274474 L -138.043318 612.42332 L -140.119878 613.508341 L -140.343507 614.178501 L -140.982449 613.891289 L -141.142184 614.369975 " transform="matrix(0.122273,0,0,0.122405,66.445314,-45.756926)"/>
		<path style="fill:none;stroke-width:4;stroke-linecap:round;stroke-linejoin:round;stroke:CanvasText;stroke-opacity:1;stroke-miterlimit:4;" d="M -159.831222 594.743859 L -161.109105 593.754575 L -162.067517 593.914137 L -163.089823 594.520472 L -164.527442 596.243741 L -166.955419 600.232789 L -168.424985 603.647414 L -170.757121 607.700287 L -171.587745 608.338534 L -173.344834 613.157304 L -174.36714 615.167785 L -174.335193 615.869857 " transform="matrix(0.122273,0,0,0.122405,66.445314,-45.756926)"/>
		<path style="fill:none;stroke-width:4;stroke-linecap:round;stroke-linejoin:round;stroke:CanvasText;stroke-opacity:1;stroke-miterlimit:4;" d="M -159.607593 630.166605 L -160.18264 630.613379 L -159.799275 629.624095 L -159.479804 629.464533 L -158.138027 626.20947 L -154.655796 619.826993 L -147.403811 610.763876 L -146.062034 609.997978 L -145.00778 608.561921 L -142.483961 606.296142 L -139.512884 606.040843 L -139.289254 605.402595 L -138.937836 606.13658 L -138.554471 606.072755 " transform="matrix(0.122273,0,0,0.122405,66.445314,-45.756926)"/>
		<path style="fill:none;stroke-width:4;stroke-linecap:round;stroke-linejoin:round;stroke:CanvasText;stroke-opacity:1;stroke-miterlimit:4;" d="M -207.87962 598.700994 L -208.231038 598.988206 L -208.039355 598.477608 L -207.048996 598.030834 L -205.547484 595.286369 L -204.652966 592.861028 L -199.47754 584.308509 L -190.148994 570.458534 L -185.804192 565.895063 L -182.513644 561.586892 L -180.149561 560.150834 " transform="matrix(0.122273,0,0,0.122405,66.445314,-45.756926)"/>
		<path style="fill:none;stroke-width:4;stroke-linecap:round;stroke-linejoin:round;stroke:CanvasText;stroke-opacity:1;stroke-miterlimit:4;" d="M -169.479238 557.214895 L -165.517801 551.343016 L -163.792659 549.045325 L -162.227253 547.864566 L -160.470163 545.311576 L -158.904757 543.715956 L -158.64918 543.747869 L -159.671487 546.268947 " transform="matrix(0.122273,0,0,0.122405,66.445314,-45.756926)"/>
		<path style="fill:none;stroke-width:4;stroke-linecap:round;stroke-linejoin:round;stroke:CanvasText;stroke-opacity:1;stroke-miterlimit:4;" d="M -167.27489 565.831239 L -166.923472 569.5969 L -167.27489 574.000809 L -168.80835 583.127751 L -175.836706 603.296378 L -179.766196 612.96583 L -181.044079 618.390935 " transform="matrix(0.122273,0,0,0.122405,66.445314,-45.756926)"/>
		<path style="fill:none;stroke-width:4;stroke-linecap:round;stroke-linejoin:round;stroke:CanvasText;stroke-opacity:1;stroke-miterlimit:4;" d="M -189.861471 553.162022 L -190.660148 553.098197 L -191.938031 552.396125 L -192.92839 550.800506 L -193.599278 548.917675 L -194.142379 544.737153 L -193.535384 512.856681 L -192.481131 497.953597 L -191.458824 490.103151 L -189.094741 477.91262 L -186.507028 469.040977 L -184.206839 463.392485 L -181.970544 459.43535 L -179.957878 457.329132 L -178.552207 456.180286 L -176.890959 455.414389 L -176.156176 455.669688 L -174.399087 454.808054 L -173.82404 454.903791 L -174.239352 455.28674 " transform="matrix(0.122273,0,0,0.122405,66.445314,-45.756926)"/>
		<path style="fill:none;stroke-width:4;stroke-linecap:round;stroke-linejoin:round;stroke:CanvasText;stroke-opacity:1;stroke-miterlimit:4;" d="M -164.176024 456.052637 L -156.093414 469.487751 L -150.406835 481.135771 L -140.53519 499.900253 L -137.084906 508.420859 L -133.98604 518.537085 " transform="matrix(0.122273,0,0,0.122405,66.445314,-45.756926)"/>
		<path style="fill:none;stroke-width:4;stroke-linecap:round;stroke-linejoin:round;stroke:CanvasText;stroke-opacity:1;stroke-miterlimit:4;" d="M -105.968457 528.940522 L -106.383769 529.03626 L -106.096245 528.461837 L -104.850309 528.940522 L -104.466944 528.685223 L -90.601915 526.642831 L -80.858057 526.132233 L -77.056356 525.781196 L -75.842367 525.334423 L -73.062971 525.717372 L -72.328189 525.302511 L -72.455977 524.696175 L -72.839342 524.823825 L -72.743501 524.568526 " transform="matrix(0.122273,0,0,0.122405,66.445314,-45.756926)"/>
		<path style="fill:none;stroke-width:4;stroke-linecap:round;stroke-linejoin:round;stroke:CanvasText;stroke-opacity:1;stroke-miterlimit:4;" d="M -63.223273 528.749048 L -63.510797 529.993631 L -65.33178 533.791205 L -66.290192 534.812401 L -69.293217 540.460893 L -73.286601 545.247751 " transform="matrix(0.122273,0,0,0.122405,66.445314,-45.756926)"/>
		<path style="fill:none;stroke-width:4;stroke-linecap:round;stroke-linejoin:round;stroke:CanvasText;stroke-opacity:1;stroke-miterlimit:4;" d="M -102.070914 526.068408 L -102.55012 525.270598 L -101.368078 524.568526 L -100.537454 523.611154 L -94.786981 519.813581 L -87.055789 513.78214 L -74.181119 505.133884 L -67.18471 501.240573 L -61.498131 498.464196 L -51.722327 494.50706 L -44.725918 492.081719 L -32.074877 488.794743 L -24.72705 486.528964 L -18.369582 485.060994 L -13.673363 483.5292 L -13.417786 483.146251 L -14.24841 483.561112 L -14.120622 483.114339 L -12.17185 484.646133 L -11.40512 484.997169 L -11.08565 484.74187 L -10.414761 486.241752 L -9.903608 486.465139 " transform="matrix(0.122273,0,0,0.122405,66.445314,-45.756926)"/>
		<path style="fill:none;stroke-width:4;stroke-linecap:round;stroke-linejoin:round;stroke:CanvasText;stroke-opacity:1;stroke-miterlimit:4;" d="M -11.437067 485.507768 L -9.903608 486.20984 L -10.574496 487.390598 L -13.48168 490.677574 L -37.889244 514.324651 L -69.516846 541.960775 L -76.704938 548.502814 L -79.771857 551.853614 L -84.97923 556.385173 L -92.550686 562.257052 L -93.828569 562.895299 L -94.371669 562.831475 L -93.828569 561.842191 L -89.611555 559.065813 " transform="matrix(0.122273,0,0,0.122405,66.445314,-45.756926)"/>
		<path style="fill:none;stroke-width:4;stroke-linecap:round;stroke-linejoin:round;stroke:CanvasText;stroke-opacity:1;stroke-miterlimit:4;" d="M -138.714207 617.656951 L -139.576778 617.976075 L -139.353148 618.167549 L -127.43689 612.550969 L -114.051066 608.338534 L -109.386794 606.423791 L -93.093786 602.562393 L -73.126866 597.201112 L -55.012875 593.722662 L -47.53726 592.988678 L -32.937448 590.435687 L -29.455217 589.446403 L -25.972986 588.87198 L -7.347842 587.978433 L 6.101876 588.840068 L 14.503956 590.499512 L 18.113975 591.776007 L 23.896395 594.584297 L 28.688456 598.190396 L 30.669175 601.477372 L 31.180328 603.392115 L 30.892804 604.860085 L 29.614922 606.200405 L 28.113409 607.444988 L 23.704713 609.742679 L 21.915677 611.051087 L 14.216432 613.189217 " transform="matrix(0.122273,0,0,0.122405,66.445314,-45.756926)"/>
		<path style="fill:none;stroke-width:4;stroke-linecap:round;stroke-linejoin:round;stroke:CanvasText;stroke-opacity:1;stroke-miterlimit:4;" d="M -35.74879 619.858905 L -36.930832 619.571694 L -41.020057 619.507869 L -47.920625 620.337591 L -50.763914 620.943926 L -66.034615 625.730784 L -71.465618 628.124213 L -75.107584 630.134693 L -76.928567 630.741028 L -98.301159 635.272587 L -115.10532 636.932031 L -121.207211 636.740556 L -124.338024 635.942747 L -127.053525 636.070396 L -134.369405 634.825813 L -138.969783 633.645055 L -139.321201 633.357844 L -138.45863 633.070632 " transform="matrix(0.122273,0,0,0.122405,66.445314,-45.756926)"/>
		<path style="fill:none;stroke-width:4;stroke-linecap:round;stroke-linejoin:round;stroke:CanvasText;stroke-opacity:1;stroke-miterlimit:4;" d="M 32.713788 596.881989 L 37.825319 594.041786 L 39.646302 592.605729 L 39.965773 591.712182 L 38.975414 591.424971 " transform="matrix(0.122273,0,0,0.122405,66.445314,-45.756926)"/>
		<path style="fill:none;stroke-width:4;stroke-linecap:round;stroke-linejoin:round;stroke:CanvasText;stroke-opacity:1;stroke-miterlimit:4;" d="M -165.070542 542.311811 L -165.709483 541.833126 L -166.18869 540.875754 L -166.284531 539.471609 L -163.8885 532.195586 L -144.049368 494.156024 L -135.83897 480.210312 L -125.647854 465.785914 L -120.568269 459.562999 L -92.678474 429.72492 L -92.327057 429.756832 L -92.774316 430.363168 L -93.413257 430.490817 L -93.956357 433.07572 " transform="matrix(0.122273,0,0,0.122405,66.445314,-45.756926)"/>
		<path style="fill:none;stroke-width:4;stroke-linecap:round;stroke-linejoin:round;stroke:CanvasText;stroke-opacity:1;stroke-miterlimit:4;" d="M -88.557302 428.033564 L -89.22819 428.671811 L -98.524789 502.325594 L -104.94615 549.332536 L -105.361462 550.513294 L -105.904563 549.332536 " transform="matrix(0.122273,0,0,0.122405,66.445314,-45.756926)"/>
		<path style="fill:none;stroke-width:4;stroke-linecap:round;stroke-linejoin:round;stroke:CanvasText;stroke-opacity:1;stroke-miterlimit:4;" d="M -82.774882 435.915922 L -83.701347 447.340556 L -85.777907 461.924516 L -87.566943 471.530143 L -92.103427 490.103151 L -97.406641 506.474204 L -108.076964 528.876698 " transform="matrix(0.122273,0,0,0.122405,66.445314,-45.756926)"/>
		<path style="fill:none;stroke-width:4;stroke-linecap:round;stroke-linejoin:round;stroke:CanvasText;stroke-opacity:1;stroke-miterlimit:4;" d="M -192.545025 548.024128 L -194.078484 546.268947 L -194.941055 543.428745 L -195.452209 538.482325 L -195.164685 533.216782 L -192.001925 511.069587 L -188.551641 490.135063 L -183.695686 468.626116 L -180.820449 458.350329 L -176.890959 447.117169 L -169.511185 430.39508 L -165.485854 422.799933 L -163.057876 416.257894 L -160.821581 408.662746 L -158.808916 403.588677 L -157.850504 402.376007 L -158.010239 403.780152 L -157.307403 405.439596 L -156.732356 408.247885 L -156.79625 413.321954 " transform="matrix(0.122273,0,0,0.122405,66.445314,-45.756926)"/>
		<path style="fill:none;stroke-width:4;stroke-linecap:round;stroke-linejoin:round;stroke:CanvasText;stroke-opacity:1;stroke-miterlimit:4;" d="M -150.119312 400.110227 L -149.544264 398.769907 L -148.777535 398.514608 L -147.914964 398.865644 L -146.732922 400.652738 L -145.870351 404.96091 L -144.975833 417.502477 L -144.560521 456.467498 L -145.071674 471.849267 L -147.08434 490.198888 L -148.745588 500.442763 L -152.068083 516.271306 " transform="matrix(0.122273,0,0,0.122405,66.445314,-45.756926)"/>
		<path style="fill:none;stroke-width:4;stroke-linecap:round;stroke-linejoin:round;stroke:CanvasText;stroke-opacity:1;stroke-miterlimit:4;" d="M -118.108345 498.049335 L -120.089063 501.655434 L -122.389252 507.048627 L -131.078856 528.461837 L -139.544831 553.00246 L -147.691334 580.57476 L -149.1609 587.40401 L -151.55693 602.019882 " transform="matrix(0.122273,0,0,0.122405,66.445314,-45.756926)"/>
		<path style="fill:none;stroke-width:4;stroke-linecap:round;stroke-linejoin:round;stroke:CanvasText;stroke-opacity:1;stroke-miterlimit:4;" d="M -123.731029 532.38706 L -125.072806 533.280607 L -128.107778 537.524954 L -131.590009 545.822174 L -133.826305 552.3323 L -138.171106 567.969368 L -141.84502 583.446875 " transform="matrix(0.122273,0,0,0.122405,66.445314,-45.756926)"/>
		<path style="fill:none;stroke-width:4;stroke-linecap:round;stroke-linejoin:round;stroke:CanvasText;stroke-opacity:1;stroke-miterlimit:4;" d="M -149.704 599.817928 L -149.863735 599.594541 L -148.39417 598.030834 L -139.321201 589.925089 L -134.113828 585.361618 L -127.916096 580.542848 L -123.28377 577.192047 L -112.389818 571.320169 L -109.546529 569.820287 L -103.796056 567.714069 L -100.952766 565.799326 L -94.914769 562.895299 L -86.129324 559.448762 L -71.785089 555.044853 L -60.699454 552.651424 " transform="matrix(0.122273,0,0,0.122405,66.445314,-45.756926)"/>
		<path style="fill:none;stroke-width:4;stroke-linecap:round;stroke-linejoin:round;stroke:CanvasText;stroke-opacity:1;stroke-miterlimit:4;" d="M -161.588311 596.084179 L -160.470163 593.69075 L -159.799275 592.988678 L -157.083774 590.88246 L -152.291713 587.818871 L -144.528574 583.893648 L -134.52914 579.936512 L -125.615907 576.872924 L -104.562786 570.650009 L -79.676016 565.129166 " transform="matrix(0.122273,0,0,0.122405,66.445314,-45.756926)"/>
		<path style="fill:none;stroke-width:4;stroke-linecap:round;stroke-linejoin:round;stroke:CanvasText;stroke-opacity:1;stroke-miterlimit:4;" d="M -453.456771 604.413311 L -454.351289 605.785544 L -455.98059 606.168492 L -456.875108 607.285426 L -445.150532 601.636934 L -440.134842 600.105139 L -432.243914 599.115855 L -430.32709 599.371154 L -429.847884 599.945577 L -428.633895 599.97749 L -428.538054 603.200641 L -429.272837 606.072755 L -431.029926 609.391643 L -435.630304 615.486909 L -438.313858 617.656951 L -439.336165 619.093008 L -439.751477 619.156833 L -437.738811 618.901534 L -436.844293 618.263286 L -436.10951 618.390935 L -432.659226 616.603842 L -430.295143 615.263522 L -428.442213 613.667903 L -425.471135 611.785072 L -423.586258 610.859613 L -421.797222 610.28519 L -420.551286 610.508577 L -420.008185 611.497861 L -419.880397 617.465476 L -423.075104 624.326639 L -424.161305 627.996563 L -425.535029 630.102781 L -425.63087 631.347363 " transform="matrix(0.122273,0,0,0.122405,66.445314,-45.756926)"/>
		<path style="fill:none;stroke-width:4;stroke-linecap:round;stroke-linejoin:round;stroke:CanvasText;stroke-opacity:1;stroke-miterlimit:4;" d="M -416.302325 641.942275 L -418.985879 641.750801 L -418.953932 641.974187 L -417.22879 641.559326 L -416.653743 641.750801 L -414.83276 639.453109 L -411.318582 637.666016 L -405.98342 634.347128 L -399.210641 631.475013 L -398.284176 631.347363 L -397.773023 631.602663 L -398.060546 631.921786 L -398.060546 633.772705 L -397.709128 635.591711 L -398.252229 638.144701 L -400.999677 644.527178 L -402.884554 647.590767 L -408.82671 654.675316 L -409.657334 656.047549 " transform="matrix(0.122273,0,0,0.122405,66.445314,-45.756926)"/>
		<path style="fill:none;stroke-width:4;stroke-linecap:round;stroke-linejoin:round;stroke:CanvasText;stroke-opacity:1;stroke-miterlimit:4;" d="M -413.490983 641.782713 L -413.171512 641.782713 L -413.171512 642.101837 L -412.404782 641.910363 L -411.350529 642.357136 L -410.743534 642.867734 L -409.944857 642.803909 L -408.794763 643.282595 L -407.644668 644.048492 L -404.993061 646.920607 " transform="matrix(0.122273,0,0,0.122405,66.445314,-45.756926)"/>
		<path style="fill:none;stroke-width:4;stroke-linecap:round;stroke-linejoin:round;stroke:CanvasText;stroke-opacity:1;stroke-miterlimit:4;" d="M -390.680772 644.367616 L -390.48909 646.82487 L -389.243154 651.64364 L -389.402889 653.303084 L -390.009884 653.941332 L -390.201566 657.036833 L -391.128031 658.951576 " transform="matrix(0.122273,0,0,0.122405,66.445314,-45.756926)"/>
		<path style="fill:none;stroke-width:4;stroke-linecap:round;stroke-linejoin:round;stroke:CanvasText;stroke-opacity:1;stroke-miterlimit:4;" d="M -375.250336 652.952048 L -375.729542 654.32428 L -376.368484 655.154002 L -380.585497 658.058029 L -385.473399 660.387633 L -393.587956 665.110666 L -398.859223 667.695569 L -401.319148 670.152823 L -400.999677 670.822983 L -399.785688 670.854895 " transform="matrix(0.122273,0,0,0.122405,66.445314,-45.756926)"/>
		<path style="fill:none;stroke-width:4;stroke-linecap:round;stroke-linejoin:round;stroke:CanvasText;stroke-opacity:1;stroke-miterlimit:4;" d="M -369.148445 669.099714 L -370.07491 669.674137 L -369.787387 670.695333 L -371.161111 672.354777 L -374.962812 680.875384 L -377.326896 684.321921 L -378.636726 687.38551 L -378.540885 687.768459 L -370.138804 682.471003 L -367.838615 681.673193 L -364.548067 679.8861 L -363.014607 678.54578 L -359.149011 677.045898 L -357.328028 675.769402 L -354.069427 676.503387 " transform="matrix(0.122273,0,0,0.122405,66.445314,-45.756926)"/>
		<path style="fill:none;stroke-width:4;stroke-linecap:round;stroke-linejoin:round;stroke:CanvasText;stroke-opacity:1;stroke-miterlimit:4;" d="M -358.733699 697.757035 L -358.957329 698.299546 L -358.605911 698.937793 L -358.669805 698.395283 L -358.190599 698.203808 L -356.689087 695.969942 L -351.577555 692.236193 L -344.325569 687.672722 L -338.031996 684.545308 L -338.383414 685.757979 L -338.191731 685.885628 " transform="matrix(0.122273,0,0,0.122405,66.445314,-45.756926)"/>
		<path style="fill:none;stroke-width:4;stroke-linecap:round;stroke-linejoin:round;stroke:CanvasText;stroke-opacity:1;stroke-miterlimit:4;" d="M -350.044095 713.553665 L -349.948254 711.894221 L -350.203831 711.447448 L -349.980201 711.064499 L -345.41177 709.245493 L -339.565455 707.522225 L -329.949386 703.054491 L -325.476796 700.150464 L -323.016871 699.512216 L -321.962618 698.905881 L -318.480387 699.480304 L -317.969234 699.129268 L -316.787192 700.884449 L -316.116304 704.011862 L -316.435774 706.149992 L -318.352599 710.841113 L -322.569612 715.979006 L -328.16035 721.308375 L -329.054868 721.882798 L -330.428592 721.723236 " transform="matrix(0.122273,0,0,0.122405,66.445314,-45.756926)"/>
		<path style="fill:none;stroke-width:4;stroke-linecap:round;stroke-linejoin:round;stroke:CanvasText;stroke-opacity:1;stroke-miterlimit:4;" d="M -334.517818 712.660119 L -335.508177 711.958046 L -334.294188 712.532469 L -333.751088 711.926134 L -327.425568 714.351475 " transform="matrix(0.122273,0,0,0.122405,66.445314,-45.756926)"/>
		<path style="fill:none;stroke-width:4;stroke-linecap:round;stroke-linejoin:round;stroke:CanvasText;stroke-opacity:1;stroke-miterlimit:4;" d="M -322.952977 732.924482 L -319.9819 730.690616 L -319.21517 729.733244 L -317.36224 728.87161 L -316.851086 728.20145 L -314.327268 727.084516 L -311.547872 725.074036 L -309.151842 723.733716 L -308.289271 723.797541 L -307.9698 723.318855 L -305.477928 721.882798 L -304.711199 721.595586 L -303.369422 721.659411 L -301.708174 722.967819 L -301.356756 725.26551 L -302.666586 730.052368 L -305.509875 735.796597 L -305.925187 739.434609 L -305.477928 739.434609 L -305.158458 738.732536 L -303.656945 737.679428 L -302.251274 737.232654 L -297.395319 733.786117 L -293.082464 731.839461 L -289.887757 729.765156 L -287.172255 728.616311 L -285.894373 726.542006 L -285.223484 726.031408 " transform="matrix(0.122273,0,0,0.122405,66.445314,-45.756926)"/>
		<path style="fill:none;stroke-width:4;stroke-linecap:round;stroke-linejoin:round;stroke:CanvasText;stroke-opacity:1;stroke-miterlimit:4;" d="M -247.557885 747.955215 L -247.71762 746.423421 L -247.749567 747.540354 L -252.509681 756.571559 L -255.672441 761.869015 L -263.65921 772.527751 " transform="matrix(0.122273,0,0,0.122405,66.445314,-45.756926)"/>
		<path style="fill:none;stroke-width:4;stroke-linecap:round;stroke-linejoin:round;stroke:CanvasText;stroke-opacity:1;stroke-miterlimit:4;" d="M -234.938791 754.529167 L -235.130473 756.029049 L -237.015351 760.528695 L -239.123857 764.07097 L -240.753158 766.113362 L -245.002119 770.389622 L -250.656751 774.665881 " transform="matrix(0.122273,0,0,0.122405,66.445314,-45.756926)"/>
		<path style="fill:none;stroke-width:4;stroke-linecap:round;stroke-linejoin:round;stroke:CanvasText;stroke-opacity:1;stroke-miterlimit:4;" d="M -257.461477 745.753261 L -258.132366 745.785173 L -258.96299 744.572503 L -259.410249 744.732065 L -259.442196 745.115013 L -259.282461 745.657524 L -258.835202 745.434137 L -258.515731 746.838282 L -256.822536 749.135974 L -254.107035 750.923067 L -249.953915 752.869723 L -246.439737 755.518451 L -245.832743 755.550363 L -236.568092 759.635148 L -233.948432 759.730885 L -233.884538 759.316024 L -234.299849 759.603236 L -235.002685 759.12455 " transform="matrix(0.122273,0,0,0.122405,66.445314,-45.756926)"/>
		<path style="fill:none;stroke-width:4;stroke-linecap:round;stroke-linejoin:round;stroke:CanvasText;stroke-opacity:1;stroke-miterlimit:4;" d="M -267.652594 757.848055 L -268.419324 756.507734 L -268.994371 756.44391 L -269.058265 756.060961 L -268.323482 757.465106 L -267.780382 757.11407 L -266.917811 758.231003 L -262.445221 760.943556 L -261.03955 760.975468 L -259.122725 762.156226 L -255.480759 763.592284 L -247.877356 765.794238 L -245.002119 767.198383 L -244.650701 767.708981 L -244.55486 767.517507 L -244.427072 768.315317 L -244.01176 768.187667 L -243.117242 769.176951 L -241.743517 769.464162 " transform="matrix(0.122273,0,0,0.122405,66.445314,-45.756926)"/>
		<path style="fill:none;stroke-width:4;stroke-linecap:round;stroke-linejoin:round;stroke:CanvasText;stroke-opacity:1;stroke-miterlimit:4;" d="M -223.469792 772.527751 L -223.853157 771.091694 L -223.661474 769.5599 L -223.246162 769.017389 L -221.904385 768.315317 L -219.731984 768.060018 L -217.144271 768.187667 L -215.898335 769.176951 L -215.51497 772.336277 L -216.058071 775.208392 L -217.431795 777.218872 L -219.220831 779.037878 L -220.562608 779.612301 L -224.460151 783.441787 L -225.258828 784.654457 L -226.121399 788.611593 L -225.418563 793.749487 L -225.514404 796.557777 L -226.21724 798.47252 L -228.325747 799.749015 L -229.571683 799.81284 L -231.105142 799.589453 L -233.501173 798.663994 L -235.066579 797.67471 L -236.759774 795.504668 L -237.845975 795.440843 L -238.165445 794.355822 L -238.00571 795.408931 L -237.814028 794.579209 L -236.727827 793.206976 " transform="matrix(0.122273,0,0,0.122405,66.445314,-45.756926)"/>
		<path style="fill:none;stroke-width:4;stroke-linecap:round;stroke-linejoin:round;stroke:CanvasText;stroke-opacity:1;stroke-miterlimit:4;" d="M -201.490205 780.697322 L -201.681888 780.53776 L -202.480565 783.473699 L -207.432361 790.941197 L -211.297957 798.025746 L -212.607787 800.036227 L -212.831416 799.876665 L -213.693987 801.536109 " transform="matrix(0.122273,0,0,0.122405,66.445314,-45.756926)"/>
	</g>
</svg>
