<?xml version="1.0" encoding="UTF-8" standalone="no"?>
<!DOCTYPE svg PUBLIC "-//W3C//DTD SVG 1.1//EN"
 "http://www.w3.org/Graphics/SVG/1.1/DTD/svg11.dtd">
<!-- Generated by graphviz version 2.44.0 (0)
 -->
<!-- Pages: 1 -->
<svg width="260pt" height="188pt"
 viewBox="0.00 0.00 260.00 188.00" xmlns="http://www.w3.org/2000/svg" xmlns:xlink="http://www.w3.org/1999/xlink">
<g id="graph0" class="graph" transform="scale(1 1) rotate(0) translate(4 184)">
<polygon fill="white" stroke="transparent" points="-4,4 -4,-184 256,-184 256,4 -4,4"/>
<!-- e -->
<g id="node1" class="node">
<title>e</title>
<ellipse fill="none" stroke="black" cx="126" cy="-162" rx="18" ry="18"/>
<text text-anchor="middle" x="126" y="-158.3" font-family="Times,serif" font-size="14.00">e</text>
</g>
<!-- b -->
<g id="node2" class="node">
<title>b</title>
<ellipse fill="none" stroke="black" cx="72" cy="-90" rx="18" ry="18"/>
<text text-anchor="middle" x="72" y="-86.3" font-family="Times,serif" font-size="14.00">b</text>
</g>
<!-- e&#45;&gt;b -->
<g id="edge1" class="edge">
<title>e&#45;&gt;b</title>
<path fill="none" stroke="black" d="M115.33,-147.17C107.79,-137.39 97.52,-124.08 88.87,-112.87"/>
<polygon fill="black" stroke="black" points="91.53,-110.58 82.65,-104.8 85.98,-114.86 91.53,-110.58"/>
</g>
<!-- g -->
<g id="node5" class="node">
<title>g</title>
<ellipse fill="none" stroke="black" cx="126" cy="-90" rx="18" ry="18"/>
<text text-anchor="middle" x="126" y="-86.3" font-family="Times,serif" font-size="14.00">g</text>
</g>
<!-- e&#45;&gt;g -->
<g id="edge4" class="edge">
<title>e&#45;&gt;g</title>
<path fill="none" stroke="black" d="M126,-143.7C126,-135.98 126,-126.71 126,-118.11"/>
<polygon fill="black" stroke="black" points="129.5,-118.1 126,-108.1 122.5,-118.1 129.5,-118.1"/>
</g>
<!-- c -->
<g id="node6" class="node">
<title>c</title>
<ellipse fill="none" stroke="black" cx="180" cy="-90" rx="18" ry="18"/>
<text text-anchor="middle" x="180" y="-86.3" font-family="Times,serif" font-size="14.00">c</text>
</g>
<!-- e&#45;&gt;c -->
<g id="edge5" class="edge">
<title>e&#45;&gt;c</title>
<path fill="none" stroke="black" d="M136.67,-147.17C144.21,-137.39 154.48,-124.08 163.13,-112.87"/>
<polygon fill="black" stroke="black" points="166.02,-114.86 169.35,-104.8 160.47,-110.58 166.02,-114.86"/>
</g>
<!-- d -->
<g id="node3" class="node">
<title>d</title>
<ellipse fill="none" stroke="black" cx="18" cy="-18" rx="18" ry="18"/>
<text text-anchor="middle" x="18" y="-14.3" font-family="Times,serif" font-size="14.00">d</text>
</g>
<!-- b&#45;&gt;d -->
<g id="edge2" class="edge">
<title>b&#45;&gt;d</title>
<path fill="none" stroke="black" d="M61.33,-75.17C53.79,-65.39 43.52,-52.08 34.87,-40.87"/>
<polygon fill="black" stroke="black" points="37.53,-38.58 28.65,-32.8 31.98,-42.86 37.53,-38.58"/>
</g>
<!-- i -->
<g id="node4" class="node">
<title>i</title>
<ellipse fill="none" stroke="black" cx="72" cy="-18" rx="18" ry="18"/>
<text text-anchor="middle" x="72" y="-14.3" font-family="Times,serif" font-size="14.00">i</text>
</g>
<!-- b&#45;&gt;i -->
<g id="edge3" class="edge">
<title>b&#45;&gt;i</title>
<path fill="none" stroke="black" d="M72,-71.7C72,-63.98 72,-54.71 72,-46.11"/>
<polygon fill="black" stroke="black" points="75.5,-46.1 72,-36.1 68.5,-46.1 75.5,-46.1"/>
</g>
<!-- a -->
<g id="node7" class="node">
<title>a</title>
<ellipse fill="none" stroke="black" cx="126" cy="-18" rx="18" ry="18"/>
<text text-anchor="middle" x="126" y="-14.3" font-family="Times,serif" font-size="14.00">a</text>
</g>
<!-- c&#45;&gt;a -->
<g id="edge6" class="edge">
<title>c&#45;&gt;a</title>
<path fill="none" stroke="black" d="M169.33,-75.17C161.79,-65.39 151.52,-52.08 142.87,-40.87"/>
<polygon fill="black" stroke="black" points="145.53,-38.58 136.65,-32.8 139.98,-42.86 145.53,-38.58"/>
</g>
<!-- f -->
<g id="node8" class="node">
<title>f</title>
<ellipse fill="none" stroke="black" cx="180" cy="-18" rx="18" ry="18"/>
<text text-anchor="middle" x="180" y="-14.3" font-family="Times,serif" font-size="14.00">f</text>
</g>
<!-- c&#45;&gt;f -->
<g id="edge7" class="edge">
<title>c&#45;&gt;f</title>
<path fill="none" stroke="black" d="M180,-71.7C180,-63.98 180,-54.71 180,-46.11"/>
<polygon fill="black" stroke="black" points="183.5,-46.1 180,-36.1 176.5,-46.1 183.5,-46.1"/>
</g>
<!-- h -->
<g id="node9" class="node">
<title>h</title>
<ellipse fill="none" stroke="black" cx="234" cy="-18" rx="18" ry="18"/>
<text text-anchor="middle" x="234" y="-14.3" font-family="Times,serif" font-size="14.00">h</text>
</g>
<!-- c&#45;&gt;h -->
<g id="edge8" class="edge">
<title>c&#45;&gt;h</title>
<path fill="none" stroke="black" d="M190.67,-75.17C198.21,-65.39 208.48,-52.08 217.13,-40.87"/>
<polygon fill="black" stroke="black" points="220.02,-42.86 223.35,-32.8 214.47,-38.58 220.02,-42.86"/>
</g>
</g>
</svg>
