<?xml version="1.0" encoding="UTF-8" standalone="no"?>
<!DOCTYPE svg PUBLIC "-//W3C//DTD SVG 1.1//EN"
 "http://www.w3.org/Graphics/SVG/1.1/DTD/svg11.dtd">
<!-- Generated by graphviz version 2.44.0 (0)
 -->
<!-- Pages: 1 -->
<svg width="404pt" height="125pt"
 viewBox="0.00 0.00 404.00 125.00" xmlns="http://www.w3.org/2000/svg" xmlns:xlink="http://www.w3.org/1999/xlink">
<g id="graph0" class="graph" transform="scale(1 1) rotate(0) translate(4 121)">
<polygon fill="white" stroke="transparent" points="-4,4 -4,-121 400,-121 400,4 -4,4"/>
<!-- d -->
<g id="node1" class="node">
<title>d</title>
<ellipse fill="none" stroke="black" cx="18" cy="-99" rx="18" ry="18"/>
<text text-anchor="middle" x="18" y="-95.3" font-family="Times,serif" font-size="14.00">d</text>
</g>
<!-- b -->
<g id="node2" class="node">
<title>b</title>
<ellipse fill="none" stroke="black" cx="90" cy="-72" rx="18" ry="18"/>
<text text-anchor="middle" x="90" y="-68.3" font-family="Times,serif" font-size="14.00">b</text>
</g>
<!-- d&#45;&#45;b -->
<g id="edge1" class="edge">
<title>d&#45;&#45;b</title>
<path fill="none" stroke="black" d="M35.24,-92.74C46.54,-88.38 61.56,-82.58 72.85,-78.23"/>
</g>
<!-- e -->
<g id="node5" class="node">
<title>e</title>
<ellipse fill="none" stroke="black" cx="162" cy="-72" rx="18" ry="18"/>
<text text-anchor="middle" x="162" y="-68.3" font-family="Times,serif" font-size="14.00">e</text>
</g>
<!-- b&#45;&#45;e -->
<g id="edge7" class="edge">
<title>b&#45;&#45;e</title>
<path fill="none" stroke="black" d="M108.3,-72C119.15,-72 133.08,-72 143.9,-72"/>
</g>
<!-- c -->
<g id="node3" class="node">
<title>c</title>
<ellipse fill="none" stroke="black" cx="306" cy="-45" rx="18" ry="18"/>
<text text-anchor="middle" x="306" y="-41.3" font-family="Times,serif" font-size="14.00">c</text>
</g>
<!-- f -->
<g id="node4" class="node">
<title>f</title>
<ellipse fill="none" stroke="black" cx="378" cy="-72" rx="18" ry="18"/>
<text text-anchor="middle" x="378" y="-68.3" font-family="Times,serif" font-size="14.00">f</text>
</g>
<!-- c&#45;&#45;f -->
<g id="edge2" class="edge">
<title>c&#45;&#45;f</title>
<path fill="none" stroke="black" d="M323.24,-51.26C334.54,-55.62 349.56,-61.42 360.85,-65.77"/>
</g>
<!-- h -->
<g id="node7" class="node">
<title>h</title>
<ellipse fill="none" stroke="black" cx="378" cy="-18" rx="18" ry="18"/>
<text text-anchor="middle" x="378" y="-14.3" font-family="Times,serif" font-size="14.00">h</text>
</g>
<!-- c&#45;&#45;h -->
<g id="edge4" class="edge">
<title>c&#45;&#45;h</title>
<path fill="none" stroke="black" d="M323.24,-38.74C334.54,-34.38 349.56,-28.58 360.85,-24.23"/>
</g>
<!-- g -->
<g id="node6" class="node">
<title>g</title>
<ellipse fill="none" stroke="black" cx="234" cy="-99" rx="18" ry="18"/>
<text text-anchor="middle" x="234" y="-95.3" font-family="Times,serif" font-size="14.00">g</text>
</g>
<!-- e&#45;&#45;g -->
<g id="edge3" class="edge">
<title>e&#45;&#45;g</title>
<path fill="none" stroke="black" d="M179.24,-78.26C190.54,-82.62 205.56,-88.42 216.85,-92.77"/>
</g>
<!-- a -->
<g id="node8" class="node">
<title>a</title>
<ellipse fill="none" stroke="black" cx="234" cy="-45" rx="18" ry="18"/>
<text text-anchor="middle" x="234" y="-41.3" font-family="Times,serif" font-size="14.00">a</text>
</g>
<!-- e&#45;&#45;a -->
<g id="edge6" class="edge">
<title>e&#45;&#45;a</title>
<path fill="none" stroke="black" d="M179.24,-65.74C190.54,-61.38 205.56,-55.58 216.85,-51.23"/>
</g>
<!-- a&#45;&#45;c -->
<g id="edge5" class="edge">
<title>a&#45;&#45;c</title>
<path fill="none" stroke="black" d="M252.3,-45C263.15,-45 277.08,-45 287.9,-45"/>
</g>
<!-- i -->
<g id="node9" class="node">
<title>i</title>
<ellipse fill="none" stroke="black" cx="18" cy="-45" rx="18" ry="18"/>
<text text-anchor="middle" x="18" y="-41.3" font-family="Times,serif" font-size="14.00">i</text>
</g>
<!-- i&#45;&#45;b -->
<g id="edge8" class="edge">
<title>i&#45;&#45;b</title>
<path fill="none" stroke="black" d="M35.24,-51.26C46.54,-55.62 61.56,-61.42 72.85,-65.77"/>
</g>
</g>
</svg>
