<?xml version="1.0" encoding="UTF-8" standalone="no"?>
<!DOCTYPE svg PUBLIC "-//W3C//DTD SVG 1.1//EN"
 "http://www.w3.org/Graphics/SVG/1.1/DTD/svg11.dtd">
<!-- Generated by graphviz version 2.44.0 (0)
 -->
<!-- Pages: 1 -->
<svg width="360pt" height="132pt"
 viewBox="0.00 0.00 360.00 132.00" xmlns="http://www.w3.org/2000/svg" xmlns:xlink="http://www.w3.org/1999/xlink">
<g id="graph0" class="graph" transform="scale(1 1) rotate(0) translate(4 128)">
<polygon fill="white" stroke="transparent" points="-4,4 -4,-128 356,-128 356,4 -4,4"/>
<!-- h -->
<g id="node1" class="node">
<title>h</title>
<ellipse fill="none" stroke="black" cx="97" cy="-29" rx="18" ry="18"/>
<text text-anchor="middle" x="97" y="-25.3" font-family="Times,serif" font-size="14.00">h</text>
</g>
<!-- b -->
<g id="node2" class="node">
<title>b</title>
<ellipse fill="none" stroke="black" cx="176" cy="-18" rx="18" ry="18"/>
<text text-anchor="middle" x="176" y="-14.3" font-family="Times,serif" font-size="14.00">b</text>
</g>
<!-- h&#45;&#45;b -->
<g id="edge1" class="edge">
<title>h&#45;&#45;b</title>
<path fill="none" stroke="black" d="M114.19,-23.44C120.05,-21.68 126.75,-19.95 133,-19 141.08,-17.77 150.12,-17.43 157.75,-17.43"/>
<text text-anchor="middle" x="136.5" y="-22.8" font-family="Times,serif" font-size="14.00">3</text>
</g>
<!-- d -->
<g id="node3" class="node">
<title>d</title>
<ellipse fill="none" stroke="black" cx="176" cy="-83" rx="18" ry="18"/>
<text text-anchor="middle" x="176" y="-79.3" font-family="Times,serif" font-size="14.00">d</text>
</g>
<!-- h&#45;&#45;d -->
<g id="edge6" class="edge">
<title>h&#45;&#45;d</title>
<path fill="none" stroke="black" d="M112.12,-38.9C125.93,-48.59 146.84,-63.25 160.71,-72.98"/>
<text text-anchor="middle" x="136.5" y="-60.8" font-family="Times,serif" font-size="14.00">1</text>
</g>
<!-- c -->
<g id="node4" class="node">
<title>c</title>
<ellipse fill="none" stroke="black" cx="255" cy="-106" rx="18" ry="18"/>
<text text-anchor="middle" x="255" y="-102.3" font-family="Times,serif" font-size="14.00">c</text>
</g>
<!-- d&#45;&#45;c -->
<g id="edge2" class="edge">
<title>d&#45;&#45;c</title>
<path fill="none" stroke="black" d="M193.33,-87.88C206.31,-91.75 224.39,-97.15 237.43,-101.05"/>
<text text-anchor="middle" x="215.5" y="-98.8" font-family="Times,serif" font-size="14.00">2</text>
</g>
<!-- g -->
<g id="node5" class="node">
<title>g</title>
<ellipse fill="none" stroke="black" cx="255" cy="-52" rx="18" ry="18"/>
<text text-anchor="middle" x="255" y="-48.3" font-family="Times,serif" font-size="14.00">g</text>
</g>
<!-- d&#45;&#45;g -->
<g id="edge5" class="edge">
<title>d&#45;&#45;g</title>
<path fill="none" stroke="black" d="M192.95,-76.58C206.17,-71.26 224.86,-63.73 238.07,-58.41"/>
<text text-anchor="middle" x="215.5" y="-71.8" font-family="Times,serif" font-size="14.00">3</text>
</g>
<!-- e -->
<g id="node6" class="node">
<title>e</title>
<ellipse fill="none" stroke="black" cx="334" cy="-52" rx="18" ry="18"/>
<text text-anchor="middle" x="334" y="-48.3" font-family="Times,serif" font-size="14.00">e</text>
</g>
<!-- g&#45;&#45;e -->
<g id="edge3" class="edge">
<title>g&#45;&#45;e</title>
<path fill="none" stroke="black" d="M273.09,-52C285.85,-52 303.21,-52 315.96,-52"/>
<text text-anchor="middle" x="294.5" y="-55.8" font-family="Times,serif" font-size="14.00">4</text>
</g>
<!-- f -->
<g id="node7" class="node">
<title>f</title>
<ellipse fill="none" stroke="black" cx="97" cy="-94" rx="18" ry="18"/>
<text text-anchor="middle" x="97" y="-90.3" font-family="Times,serif" font-size="14.00">f</text>
</g>
<!-- f&#45;&#45;d -->
<g id="edge4" class="edge">
<title>f&#45;&#45;d</title>
<path fill="none" stroke="black" d="M115.09,-91.56C127.85,-89.74 145.21,-87.26 157.96,-85.43"/>
<text text-anchor="middle" x="136.5" y="-91.8" font-family="Times,serif" font-size="14.00">4</text>
</g>
<!-- a -->
<g id="node8" class="node">
<title>a</title>
<ellipse fill="none" stroke="black" cx="18" cy="-29" rx="18" ry="18"/>
<text text-anchor="middle" x="18" y="-25.3" font-family="Times,serif" font-size="14.00">a</text>
</g>
<!-- a&#45;&#45;h -->
<g id="edge7" class="edge">
<title>a&#45;&#45;h</title>
<path fill="none" stroke="black" d="M36.09,-29C48.85,-29 66.21,-29 78.96,-29"/>
<text text-anchor="middle" x="57.5" y="-32.8" font-family="Times,serif" font-size="14.00">2</text>
</g>
</g>
</svg>
