<?xml version="1.0" encoding="UTF-8" standalone="no"?>
<!DOCTYPE svg PUBLIC "-//W3C//DTD SVG 1.1//EN"
 "http://www.w3.org/Graphics/SVG/1.1/DTD/svg11.dtd">
<!-- Generated by graphviz version 2.44.0 (0)
 -->
<!-- Pages: 1 -->
<svg width="182pt" height="260pt"
 viewBox="0.00 0.00 182.49 260.00" xmlns="http://www.w3.org/2000/svg" xmlns:xlink="http://www.w3.org/1999/xlink">
<g id="graph0" class="graph" transform="scale(1 1) rotate(0) translate(4 256)">
<polygon fill="white" stroke="transparent" points="-4,4 -4,-256 178.49,-256 178.49,4 -4,4"/>
<!-- df -->
<g id="node1" class="node">
<title>df</title>
<ellipse fill="none" stroke="black" cx="28.6" cy="-18" rx="28.7" ry="18"/>
<text text-anchor="middle" x="28.6" y="-14.3" font-family="Times,serif" font-size="14.00">df(4)</text>
</g>
<!-- dg -->
<g id="node2" class="node">
<title>dg</title>
<ellipse fill="none" stroke="black" cx="66.6" cy="-90" rx="29.8" ry="18"/>
<text text-anchor="middle" x="66.6" y="-86.3" font-family="Times,serif" font-size="14.00">dg(3)</text>
</g>
<!-- dg&#45;&gt;df -->
<g id="edge1" class="edge">
<title>dg&#45;&gt;df</title>
<path fill="none" stroke="black" d="M57.78,-72.76C53.18,-64.28 47.44,-53.71 42.28,-44.2"/>
<polygon fill="black" stroke="black" points="45.21,-42.27 37.36,-35.15 39.06,-45.61 45.21,-42.27"/>
</g>
<!-- eg -->
<g id="node3" class="node">
<title>eg</title>
<ellipse fill="none" stroke="black" cx="104.6" cy="-18" rx="29.5" ry="18"/>
<text text-anchor="middle" x="104.6" y="-14.3" font-family="Times,serif" font-size="14.00">eg(4)</text>
</g>
<!-- dg&#45;&gt;eg -->
<g id="edge2" class="edge">
<title>dg&#45;&gt;eg</title>
<path fill="none" stroke="black" d="M75.41,-72.76C79.95,-64.4 85.59,-54.02 90.7,-44.61"/>
<polygon fill="black" stroke="black" points="93.87,-46.09 95.57,-35.63 87.72,-42.75 93.87,-46.09"/>
</g>
<!-- cd -->
<g id="node4" class="node">
<title>cd</title>
<ellipse fill="none" stroke="black" cx="67.6" cy="-162" rx="29.5" ry="18"/>
<text text-anchor="middle" x="67.6" y="-158.3" font-family="Times,serif" font-size="14.00">cd(2)</text>
</g>
<!-- cd&#45;&gt;dg -->
<g id="edge3" class="edge">
<title>cd&#45;&gt;dg</title>
<path fill="none" stroke="black" d="M67.35,-143.7C67.24,-135.98 67.11,-126.71 66.98,-118.11"/>
<polygon fill="black" stroke="black" points="70.48,-118.05 66.84,-108.1 63.49,-118.15 70.48,-118.05"/>
</g>
<!-- dh -->
<g id="node5" class="node">
<title>dh</title>
<ellipse fill="none" stroke="black" cx="105.6" cy="-234" rx="29.8" ry="18"/>
<text text-anchor="middle" x="105.6" y="-230.3" font-family="Times,serif" font-size="14.00">dh(1)</text>
</g>
<!-- dh&#45;&gt;cd -->
<g id="edge4" class="edge">
<title>dh&#45;&gt;cd</title>
<path fill="none" stroke="black" d="M96.78,-216.76C92.25,-208.4 86.61,-198.02 81.5,-188.61"/>
<polygon fill="black" stroke="black" points="84.47,-186.75 76.63,-179.63 78.32,-190.09 84.47,-186.75"/>
</g>
<!-- ha -->
<g id="node6" class="node">
<title>ha</title>
<ellipse fill="none" stroke="black" cx="143.6" cy="-162" rx="29.5" ry="18"/>
<text text-anchor="middle" x="143.6" y="-158.3" font-family="Times,serif" font-size="14.00">ha(2)</text>
</g>
<!-- dh&#45;&gt;ha -->
<g id="edge5" class="edge">
<title>dh&#45;&gt;ha</title>
<path fill="none" stroke="black" d="M114.41,-216.76C118.95,-208.4 124.59,-198.02 129.7,-188.61"/>
<polygon fill="black" stroke="black" points="132.87,-190.09 134.57,-179.63 126.72,-186.75 132.87,-190.09"/>
</g>
<!-- bh -->
<g id="node7" class="node">
<title>bh</title>
<ellipse fill="none" stroke="black" cx="144.6" cy="-90" rx="29.8" ry="18"/>
<text text-anchor="middle" x="144.6" y="-86.3" font-family="Times,serif" font-size="14.00">bh(3)</text>
</g>
<!-- ha&#45;&gt;bh -->
<g id="edge6" class="edge">
<title>ha&#45;&gt;bh</title>
<path fill="none" stroke="black" d="M143.84,-143.7C143.95,-135.98 144.09,-126.71 144.21,-118.11"/>
<polygon fill="black" stroke="black" points="147.71,-118.15 144.35,-108.1 140.71,-118.05 147.71,-118.15"/>
</g>
</g>
</svg>
