<?xml version="1.0" encoding="UTF-8" standalone="no"?>
<!DOCTYPE svg PUBLIC "-//W3C//DTD SVG 1.1//EN"
 "http://www.w3.org/Graphics/SVG/1.1/DTD/svg11.dtd">
<!-- Generated by graphviz version 2.44.0 (0)
 -->
<!-- Pages: 1 -->
<svg width="316pt" height="220pt"
 viewBox="0.00 0.00 316.00 220.00" xmlns="http://www.w3.org/2000/svg" xmlns:xlink="http://www.w3.org/1999/xlink">
<g id="graph0" class="graph" transform="scale(1 1) rotate(0) translate(4 216)">
<polygon fill="white" stroke="transparent" points="-4,4 -4,-216 312,-216 312,4 -4,4"/>
<g id="clust1" class="cluster">
<title>cluster_0</title>
<polygon fill="none" stroke="black" points="8,-8 8,-204 150,-204 150,-8 8,-8"/>
</g>
<g id="clust3" class="cluster">
<title>cluster_1</title>
<polygon fill="none" stroke="black" points="158,-80 158,-204 300,-204 300,-80 158,-80"/>
</g>
<!-- parent -->
<g id="node1" class="node">
<title>parent</title>
<ellipse fill="none" stroke="black" cx="79" cy="-178" rx="32.49" ry="18"/>
<text text-anchor="middle" x="79" y="-174.3" font-family="Times,serif" font-size="14.00">parent</text>
</g>
<!-- elem -->
<g id="node2" class="node">
<title>elem</title>
<ellipse fill="none" stroke="black" cx="79" cy="-106" rx="28.7" ry="18"/>
<text text-anchor="middle" x="79" y="-102.3" font-family="Times,serif" font-size="14.00">elem</text>
</g>
<!-- parent&#45;&gt;elem -->
<g id="edge1" class="edge">
<title>parent&#45;&gt;elem</title>
<path fill="none" stroke="black" d="M79,-159.7C79,-151.98 79,-142.71 79,-134.11"/>
<polygon fill="black" stroke="black" points="82.5,-134.1 79,-124.1 75.5,-134.1 82.5,-134.1"/>
</g>
<!-- near -->
<g id="node3" class="node">
<title>near</title>
<ellipse fill="none" stroke="black" cx="43" cy="-34" rx="27" ry="18"/>
<text text-anchor="middle" x="43" y="-30.3" font-family="Times,serif" font-size="14.00">near</text>
</g>
<!-- elem&#45;&gt;near -->
<g id="edge2" class="edge">
<title>elem&#45;&gt;near</title>
<path fill="none" stroke="black" d="M70.65,-88.76C66.29,-80.28 60.85,-69.71 55.96,-60.2"/>
<polygon fill="black" stroke="black" points="58.99,-58.44 51.3,-51.15 52.77,-61.64 58.99,-58.44"/>
</g>
<!-- far -->
<g id="node4" class="node">
<title>far</title>
<ellipse fill="none" stroke="black" cx="115" cy="-34" rx="27" ry="18"/>
<text text-anchor="middle" x="115" y="-30.3" font-family="Times,serif" font-size="14.00">far</text>
</g>
<!-- elem&#45;&gt;far -->
<g id="edge3" class="edge">
<title>elem&#45;&gt;far</title>
<path fill="none" stroke="black" d="M87.35,-88.76C91.71,-80.28 97.15,-69.71 102.04,-60.2"/>
<polygon fill="black" stroke="black" points="105.23,-61.64 106.7,-51.15 99.01,-58.44 105.23,-61.64"/>
</g>
<!-- parent&#39; -->
<g id="node5" class="node">
<title>parent&#39;</title>
<ellipse fill="none" stroke="black" cx="229" cy="-178" rx="34.39" ry="18"/>
<text text-anchor="middle" x="229" y="-174.3" font-family="Times,serif" font-size="14.00">parent&#39;</text>
</g>
<!-- near&#39; -->
<g id="node6" class="node">
<title>near&#39;</title>
<ellipse fill="none" stroke="black" cx="193" cy="-106" rx="27.1" ry="18"/>
<text text-anchor="middle" x="193" y="-102.3" font-family="Times,serif" font-size="14.00">near&#39;</text>
</g>
<!-- parent&#39;&#45;&gt;near&#39; -->
<g id="edge4" class="edge">
<title>parent&#39;&#45;&gt;near&#39;</title>
<path fill="none" stroke="black" d="M220.47,-160.41C216.16,-152.04 210.85,-141.71 206.05,-132.37"/>
<polygon fill="black" stroke="black" points="209.16,-130.76 201.47,-123.47 202.93,-133.96 209.16,-130.76"/>
</g>
<!-- far&#39; -->
<g id="node7" class="node">
<title>far&#39;</title>
<ellipse fill="none" stroke="black" cx="265" cy="-106" rx="27" ry="18"/>
<text text-anchor="middle" x="265" y="-102.3" font-family="Times,serif" font-size="14.00">far&#39;</text>
</g>
<!-- parent&#39;&#45;&gt;far&#39; -->
<g id="edge5" class="edge">
<title>parent&#39;&#45;&gt;far&#39;</title>
<path fill="none" stroke="transparent" d="M237.53,-160.41C241.84,-152.04 247.15,-141.71 251.95,-132.37"/>
<polygon fill="transparent" stroke="transparent" points="255.07,-133.96 256.53,-123.47 248.84,-130.76 255.07,-133.96"/>
</g>
</g>
</svg>
