<?xml version="1.0" encoding="UTF-8" standalone="no"?>
<!DOCTYPE svg PUBLIC "-//W3C//DTD SVG 1.1//EN"
 "http://www.w3.org/Graphics/SVG/1.1/DTD/svg11.dtd">
<!-- Generated by graphviz version 2.44.0 (0)
 -->
<!-- Pages: 1 -->
<svg width="1088pt" height="584pt"
 viewBox="0.00 0.00 1088.00 584.03" xmlns="http://www.w3.org/2000/svg" xmlns:xlink="http://www.w3.org/1999/xlink">
<g id="graph0" class="graph" transform="scale(1 1) rotate(0) translate(4 580.03)">
<polygon fill="white" stroke="transparent" points="-4,4 -4,-580.03 1084,-580.03 1084,4 -4,4"/>
<!-- ar -->
<g id="node1" class="node">
<title>ar</title>
<polygon fill="none" stroke="black" points="0,-501.53 0,-575.53 1080,-575.53 1080,-501.53 0,-501.53"/>
<text text-anchor="middle" x="32" y="-531.03" font-family="Times,serif" font-size="30.00">c</text>
<polyline fill="none" stroke="black" points="64,-501.53 64,-575.53 "/>
<text text-anchor="middle" x="104" y="-547.53" font-family="Times,serif" font-size="30.00">cd</text>
<text text-anchor="middle" x="104" y="-514.53" font-family="Times,serif" font-size="30.00">2</text>
<polyline fill="none" stroke="black" points="144,-501.53 144,-575.53 "/>
<text text-anchor="middle" x="177" y="-531.03" font-family="Times,serif" font-size="30.00">d</text>
<polyline fill="none" stroke="black" points="210,-501.53 210,-575.53 "/>
<text text-anchor="middle" x="248" y="-547.53" font-family="Times,serif" font-size="30.00">df</text>
<text text-anchor="middle" x="248" y="-514.53" font-family="Times,serif" font-size="30.00">4</text>
<polyline fill="none" stroke="black" points="286,-501.53 286,-575.53 "/>
<text text-anchor="middle" x="316.5" y="-531.03" font-family="Times,serif" font-size="30.00">f</text>
<polyline fill="none" stroke="black" points="347,-501.53 347,-575.53 "/>
<text text-anchor="middle" x="387.5" y="-547.53" font-family="Times,serif" font-size="30.00">dg</text>
<text text-anchor="middle" x="387.5" y="-514.53" font-family="Times,serif" font-size="30.00">3</text>
<polyline fill="none" stroke="black" points="428,-501.53 428,-575.53 "/>
<text text-anchor="middle" x="460.5" y="-531.03" font-family="Times,serif" font-size="30.00">e</text>
<polyline fill="none" stroke="black" points="493,-501.53 493,-575.53 "/>
<text text-anchor="middle" x="532.5" y="-547.53" font-family="Times,serif" font-size="30.00">eg</text>
<text text-anchor="middle" x="532.5" y="-514.53" font-family="Times,serif" font-size="30.00">4</text>
<polyline fill="none" stroke="black" points="572,-501.53 572,-575.53 "/>
<text text-anchor="middle" x="605.5" y="-531.03" font-family="Times,serif" font-size="30.00">g</text>
<polyline fill="none" stroke="black" points="639,-501.53 639,-575.53 "/>
<text text-anchor="middle" x="680" y="-547.53" font-family="Times,serif" font-size="30.00">dh</text>
<text text-anchor="middle" x="680" y="-514.53" font-family="Times,serif" font-size="30.00">1</text>
<polyline fill="none" stroke="black" points="721,-501.53 721,-575.53 "/>
<text text-anchor="middle" x="753" y="-531.03" font-family="Times,serif" font-size="30.00">a</text>
<polyline fill="none" stroke="black" points="785,-501.53 785,-575.53 "/>
<text text-anchor="middle" x="825" y="-547.53" font-family="Times,serif" font-size="30.00">ha</text>
<text text-anchor="middle" x="825" y="-514.53" font-family="Times,serif" font-size="30.00">2</text>
<polyline fill="none" stroke="black" points="865,-501.53 865,-575.53 "/>
<text text-anchor="middle" x="898" y="-531.03" font-family="Times,serif" font-size="30.00">b</text>
<polyline fill="none" stroke="black" points="931,-501.53 931,-575.53 "/>
<text text-anchor="middle" x="972" y="-547.53" font-family="Times,serif" font-size="30.00">bh</text>
<text text-anchor="middle" x="972" y="-514.53" font-family="Times,serif" font-size="30.00">3</text>
<polyline fill="none" stroke="black" points="1013,-501.53 1013,-575.53 "/>
<text text-anchor="middle" x="1046.5" y="-531.03" font-family="Times,serif" font-size="30.00">h</text>
</g>
<!-- cd -->
<g id="node2" class="node">
<title>cd</title>
<ellipse fill="none" stroke="black" cx="104" cy="-134.29" rx="31.64" ry="31.64"/>
<text text-anchor="middle" x="104" y="-126.79" font-family="Times,serif" font-size="30.00">cd</text>
</g>
<!-- ar&#45;&gt;cd -->
<g id="edge16" class="edge">
<title>ar:cd&#45;&gt;cd</title>
<path fill="none" stroke="grey" stroke-dasharray="5,2" d="M104,-501.03C104,-376.89 104,-229.06 104,-166.11"/>
</g>
<!-- dh -->
<g id="node3" class="node">
<title>dh</title>
<ellipse fill="none" stroke="black" cx="680" cy="-33.23" rx="33.47" ry="33.47"/>
<text text-anchor="middle" x="680" y="-25.73" font-family="Times,serif" font-size="30.00">dh</text>
</g>
<!-- ar&#45;&gt;dh -->
<g id="edge15" class="edge">
<title>ar:dh&#45;&gt;dh</title>
<path fill="none" stroke="grey" stroke-dasharray="5,2" d="M680,-501.03C680,-428.93 680,-410.91 680,-338.81 680,-338.81 680,-338.81 680,-234.34 680,-175.28 680,-106.42 680,-66.81"/>
</g>
<!-- ha -->
<g id="node4" class="node">
<title>ha</title>
<ellipse fill="none" stroke="black" cx="825" cy="-235.34" rx="31.64" ry="31.64"/>
<text text-anchor="middle" x="825" y="-227.84" font-family="Times,serif" font-size="30.00">ha</text>
</g>
<!-- ar&#45;&gt;ha -->
<g id="edge17" class="edge">
<title>ar:ha&#45;&gt;ha</title>
<path fill="none" stroke="grey" stroke-dasharray="5,2" d="M825,-501.03C825,-416.47 825,-316.73 825,-267.31"/>
</g>
<!-- dg -->
<g id="node5" class="node">
<title>dg</title>
<ellipse fill="none" stroke="black" cx="387" cy="-235.34" rx="33.47" ry="33.47"/>
<text text-anchor="middle" x="387" y="-227.84" font-family="Times,serif" font-size="30.00">dg</text>
</g>
<!-- ar&#45;&gt;dg -->
<g id="edge18" class="edge">
<title>ar:dg&#45;&gt;dg</title>
<path fill="none" stroke="grey" stroke-dasharray="5,2" d="M387,-501.03C387,-417.39 387,-318.9 387,-268.94"/>
</g>
<!-- bh -->
<g id="node6" class="node">
<title>bh</title>
<ellipse fill="none" stroke="black" cx="972" cy="-337.81" rx="33.47" ry="33.47"/>
<text text-anchor="middle" x="972" y="-330.31" font-family="Times,serif" font-size="30.00">bh</text>
</g>
<!-- ar&#45;&gt;bh -->
<g id="edge19" class="edge">
<title>ar:bh&#45;&gt;bh</title>
<path fill="none" stroke="grey" stroke-dasharray="5,2" d="M972,-501.03C972,-455.97 972,-403.87 972,-371.13"/>
</g>
<!-- df -->
<g id="node7" class="node">
<title>df</title>
<ellipse fill="none" stroke="black" cx="248" cy="-337.81" rx="28.98" ry="28.98"/>
<text text-anchor="middle" x="248" y="-330.31" font-family="Times,serif" font-size="30.00">df</text>
</g>
<!-- ar&#45;&gt;df -->
<g id="edge20" class="edge">
<title>ar:df&#45;&gt;df</title>
<path fill="none" stroke="grey" stroke-dasharray="5,2" d="M248,-501.03C248,-453.99 248,-399.29 248,-366.94"/>
</g>
<!-- eg -->
<g id="node8" class="node">
<title>eg</title>
<ellipse fill="none" stroke="black" cx="532" cy="-337.81" rx="31.64" ry="31.64"/>
<text text-anchor="middle" x="532" y="-330.31" font-family="Times,serif" font-size="30.00">eg</text>
</g>
<!-- ar&#45;&gt;eg -->
<g id="edge21" class="edge">
<title>ar:eg&#45;&gt;eg</title>
<path fill="none" stroke="grey" stroke-dasharray="5,2" d="M532,-501.03C532,-455.4 532,-402.56 532,-369.91"/>
</g>
<!-- c -->
<g id="node9" class="node">
<title>c</title>
<ellipse fill="none" stroke="black" cx="32" cy="-436.04" rx="28.98" ry="28.98"/>
<text text-anchor="middle" x="32" y="-428.54" font-family="Times,serif" font-size="30.00">c</text>
</g>
<!-- ar&#45;&gt;c -->
<g id="edge22" class="edge">
<title>ar:c&#45;&gt;c</title>
<path fill="none" stroke="grey" stroke-dasharray="5,2" d="M32,-501.03C32,-489.25 32,-476.26 32,-465.07"/>
</g>
<!-- d -->
<g id="node10" class="node">
<title>d</title>
<ellipse fill="none" stroke="black" cx="177" cy="-436.04" rx="28.98" ry="28.98"/>
<text text-anchor="middle" x="177" y="-428.54" font-family="Times,serif" font-size="30.00">d</text>
</g>
<!-- ar&#45;&gt;d -->
<g id="edge23" class="edge">
<title>ar:d&#45;&gt;d</title>
<path fill="none" stroke="grey" stroke-dasharray="5,2" d="M177,-501.03C177,-489.25 177,-476.26 177,-465.07"/>
</g>
<!-- f -->
<g id="node11" class="node">
<title>f</title>
<ellipse fill="none" stroke="black" cx="316" cy="-436.04" rx="28.98" ry="28.98"/>
<text text-anchor="middle" x="316" y="-428.54" font-family="Times,serif" font-size="30.00">f</text>
</g>
<!-- ar&#45;&gt;f -->
<g id="edge24" class="edge">
<title>ar:f&#45;&gt;f</title>
<path fill="none" stroke="grey" stroke-dasharray="5,2" d="M316,-501.03C316,-489.25 316,-476.26 316,-465.07"/>
</g>
<!-- e -->
<g id="node12" class="node">
<title>e</title>
<ellipse fill="none" stroke="black" cx="460" cy="-436.04" rx="28.98" ry="28.98"/>
<text text-anchor="middle" x="460" y="-428.54" font-family="Times,serif" font-size="30.00">e</text>
</g>
<!-- ar&#45;&gt;e -->
<g id="edge25" class="edge">
<title>ar:e&#45;&gt;e</title>
<path fill="none" stroke="grey" stroke-dasharray="5,2" d="M460,-501.03C460,-489.25 460,-476.26 460,-465.07"/>
</g>
<!-- g -->
<g id="node13" class="node">
<title>g</title>
<ellipse fill="none" stroke="black" cx="606" cy="-436.04" rx="28.98" ry="28.98"/>
<text text-anchor="middle" x="606" y="-428.54" font-family="Times,serif" font-size="30.00">g</text>
</g>
<!-- ar&#45;&gt;g -->
<g id="edge26" class="edge">
<title>ar:g&#45;&gt;g</title>
<path fill="none" stroke="grey" stroke-dasharray="5,2" d="M606,-501.03C606,-489.25 606,-476.26 606,-465.07"/>
</g>
<!-- a -->
<g id="node14" class="node">
<title>a</title>
<ellipse fill="none" stroke="black" cx="753" cy="-436.04" rx="28.98" ry="28.98"/>
<text text-anchor="middle" x="753" y="-428.54" font-family="Times,serif" font-size="30.00">a</text>
</g>
<!-- ar&#45;&gt;a -->
<g id="edge27" class="edge">
<title>ar:a&#45;&gt;a</title>
<path fill="none" stroke="grey" stroke-dasharray="5,2" d="M753,-501.03C753,-489.25 753,-476.26 753,-465.07"/>
</g>
<!-- b -->
<g id="node15" class="node">
<title>b</title>
<ellipse fill="none" stroke="black" cx="898" cy="-436.04" rx="28.98" ry="28.98"/>
<text text-anchor="middle" x="898" y="-428.54" font-family="Times,serif" font-size="30.00">b</text>
</g>
<!-- ar&#45;&gt;b -->
<g id="edge28" class="edge">
<title>ar:b&#45;&gt;b</title>
<path fill="none" stroke="grey" stroke-dasharray="5,2" d="M898,-501.03C898,-489.25 898,-476.26 898,-465.07"/>
</g>
<!-- h -->
<g id="node16" class="node">
<title>h</title>
<ellipse fill="none" stroke="black" cx="1047" cy="-436.04" rx="28.98" ry="28.98"/>
<text text-anchor="middle" x="1047" y="-428.54" font-family="Times,serif" font-size="30.00">h</text>
</g>
<!-- ar&#45;&gt;h -->
<g id="edge29" class="edge">
<title>ar:h&#45;&gt;h</title>
<path fill="none" stroke="grey" stroke-dasharray="5,2" d="M1047,-501.03C1047,-489.25 1047,-476.26 1047,-465.07"/>
</g>
<!-- cd&#45;&gt;dh -->
<g id="edge1" class="edge">
<title>cd&#45;&gt;dh</title>
<path fill="none" stroke="black" d="M135.38,-127.89C232.15,-111.25 526.1,-60.7 637.02,-41.62"/>
<polygon fill="black" stroke="black" points="637.91,-45.02 647.17,-39.88 636.72,-38.13 637.91,-45.02"/>
</g>
<!-- ha&#45;&gt;dh -->
<g id="edge2" class="edge">
<title>ha&#45;&gt;dh</title>
<path fill="none" stroke="black" d="M806.64,-209C780.88,-173.46 733.95,-108.69 705.02,-68.77"/>
<polygon fill="black" stroke="black" points="707.84,-66.69 699.14,-60.64 702.17,-70.79 707.84,-66.69"/>
</g>
<!-- dg&#45;&gt;cd -->
<g id="edge3" class="edge">
<title>dg&#45;&gt;cd</title>
<path fill="none" stroke="black" d="M355.9,-223.46C304.16,-205.35 200.47,-169.05 143.58,-149.14"/>
<polygon fill="black" stroke="black" points="144.46,-145.74 133.86,-145.74 142.15,-152.35 144.46,-145.74"/>
</g>
<!-- bh&#45;&gt;ha -->
<g id="edge4" class="edge">
<title>bh&#45;&gt;ha</title>
<path fill="none" stroke="black" d="M944.69,-318.15C920.67,-301.73 885.58,-277.75 859.6,-259.99"/>
<polygon fill="black" stroke="black" points="861.4,-256.98 851.17,-254.23 857.45,-262.76 861.4,-256.98"/>
</g>
<!-- df&#45;&gt;dg -->
<g id="edge5" class="edge">
<title>df&#45;&gt;dg</title>
<path fill="none" stroke="black" d="M271.27,-319.99C293.35,-304.03 326.82,-279.84 352.1,-261.57"/>
<polygon fill="black" stroke="black" points="354.27,-264.31 360.33,-255.62 350.17,-258.64 354.27,-264.31"/>
</g>
<!-- eg&#45;&gt;dg -->
<g id="edge6" class="edge">
<title>eg&#45;&gt;dg</title>
<path fill="none" stroke="black" d="M506.08,-318.85C482.8,-302.72 448.43,-278.9 422.58,-261"/>
<polygon fill="black" stroke="black" points="424.39,-257.99 414.18,-255.17 420.4,-263.74 424.39,-257.99"/>
</g>
<!-- c&#45;&gt;cd -->
<g id="edge7" class="edge">
<title>c&#45;&gt;cd</title>
<path fill="none" stroke="black" d="M38.58,-407.64C51.34,-354.52 79.49,-237.32 94.36,-175.41"/>
<polygon fill="black" stroke="black" points="97.78,-176.15 96.72,-165.61 90.98,-174.51 97.78,-176.15"/>
</g>
<!-- d&#45;&gt;df -->
<g id="edge8" class="edge">
<title>d&#45;&gt;df</title>
<path fill="none" stroke="black" d="M193.83,-412.23C203.13,-399.62 214.83,-383.77 224.97,-370.02"/>
<polygon fill="black" stroke="black" points="227.93,-371.91 231.05,-361.78 222.3,-367.75 227.93,-371.91"/>
</g>
<!-- f&#45;&gt;df -->
<g id="edge9" class="edge">
<title>f&#45;&gt;df</title>
<path fill="none" stroke="black" d="M299.54,-411.74C290.77,-399.33 279.85,-383.89 270.33,-370.41"/>
<polygon fill="black" stroke="black" points="272.94,-368.04 264.31,-361.89 267.22,-372.08 272.94,-368.04"/>
</g>
<!-- e&#45;&gt;eg -->
<g id="edge10" class="edge">
<title>e&#45;&gt;eg</title>
<path fill="none" stroke="black" d="M477.06,-412.23C486.09,-400.17 497.33,-385.15 507.29,-371.84"/>
<polygon fill="black" stroke="black" points="510.1,-373.92 513.29,-363.82 504.5,-369.73 510.1,-373.92"/>
</g>
<!-- g&#45;&gt;eg -->
<g id="edge11" class="edge">
<title>g&#45;&gt;eg</title>
<path fill="none" stroke="black" d="M588.46,-412.23C579.12,-400.08 567.46,-384.92 557.17,-371.53"/>
<polygon fill="black" stroke="black" points="559.84,-369.27 550.97,-363.47 554.29,-373.53 559.84,-369.27"/>
</g>
<!-- a&#45;&gt;ha -->
<g id="edge12" class="edge">
<title>a&#45;&gt;ha</title>
<path fill="none" stroke="black" d="M762.56,-408.65C774.97,-374.39 796.73,-314.35 811.01,-274.96"/>
<polygon fill="black" stroke="black" points="814.35,-276.01 814.46,-265.42 807.77,-273.63 814.35,-276.01"/>
</g>
<!-- b&#45;&gt;bh -->
<g id="edge13" class="edge">
<title>b&#45;&gt;bh</title>
<path fill="none" stroke="black" d="M915.54,-412.23C924.51,-400.56 935.62,-386.11 945.61,-373.13"/>
<polygon fill="black" stroke="black" points="948.65,-374.91 951.97,-364.85 943.1,-370.64 948.65,-374.91"/>
</g>
<!-- h&#45;&gt;bh -->
<g id="edge14" class="edge">
<title>h&#45;&gt;bh</title>
<path fill="none" stroke="black" d="M1029.6,-412.72C1020.29,-400.76 1008.62,-385.79 998.23,-372.46"/>
<polygon fill="black" stroke="black" points="1000.86,-370.14 991.95,-364.41 995.34,-374.45 1000.86,-370.14"/>
</g>
</g>
</svg>
