<?xml version="1.0" encoding="UTF-8"?>
<!--

This is a spritesheet! It's not intended to be used by itself. Many of these are modified from https://github.com/tabler/tabler-icons.

-->

<svg xmlns="http://www.w3.org/2000/svg">

<!-- from tabler -->
<symbol id="github" width="24" height="24" viewBox="0 0 24 24" stroke-width="1" stroke="currentColor" fill="none" stroke-linecap="round" stroke-linejoin="round">
  <path d="M9 19c-4.3 1.4 -4.3 -2.5 -6 -3m12 5v-3.5c0 -1 .1 -1.4 -.5 -2c2.8 -.3 5.5 -1.4 5.5 -6a4.6 4.6 0 0 0 -1.3 -3.2a4.2 4.2 0 0 0 -.1 -3.2s-1.1 -.3 -3.5 1.3a12.3 12.3 0 0 0 -6.2 0c-2.4 -1.6 -3.5 -1.3 -3.5 -1.3a4.2 4.2 0 0 0 -.1 3.2a4.6 4.6 0 0 0 -1.3 3.2c0 4.6 2.7 5.7 5.5 6c-.6 .6 -.6 1.2 -.5 2v3.5"></path>
</symbol>

<!-- from tabler -->
<symbol id="twitter" width="24" height="24" viewBox="0 0 24 24" stroke-width="1" stroke="currentColor" fill="none" stroke-linecap="round" stroke-linejoin="round">
 <path d="M22 4.01c-1 .49 -1.98 .689 -3 .99c-1.121 -1.265 -2.783 -1.335 -4.38 -.737s-2.643 2.06 -2.62 3.737v1c-3.245 .083 -6.135 -1.395 -8 -4c0 0 -4.182 7.433 4 11c-1.872 1.247 -3.739 2.088 -6 2c3.308 1.803 6.913 2.423 10.034 1.517c3.58 -1.04 6.522 -3.723 7.651 -7.742a13.84 13.84 0 0 0 .497 -3.753c-.002 -.249 1.51 -2.772 1.818 -4.013z"></path>
</symbol>

<!-- from tabler -->
<symbol id="email" width="24" height="24" viewBox="0 0 24 24" stroke-width="1" stroke="currentColor" fill="none" stroke-linecap="round" stroke-linejoin="round">
 <polyline points="3 9 12 15 21 9 12 3 3 9"></polyline>
 <path d="M21 9v10a2 2 0 0 1 -2 2h-14a2 2 0 0 1 -2 -2v-10"></path>
 <line x1="3" y1="19" x2="9" y2="13"></line>
 <line x1="15" y1="13" x2="21" y2="19"></line>
</symbol>

<!-- from tabler -->
<symbol id="rss" width="24" height="24" viewBox="0 0 24 24" stroke-width="1" stroke="currentColor" fill="none" stroke-linecap="round" stroke-linejoin="round">
  <circle cx="5" cy="19" r="1" />
  <path d="M4 4a16 16 0 0 1 16 16" />
  <path d="M4 11a9 9 0 0 1 9 9" />
</symbol>

<!-- from tabler -->
<symbol id="tag" width="24" height="24" viewBox="0 0 24 24" stroke-width="1" stroke="currentColor" fill="none" stroke-linecap="round" stroke-linejoin="round">
  <path stroke="none" d="M0 0h24v24H0z" fill="none"/>
  <path d="M11 3l9 9a1.5 1.5 0 0 1 0 2l-6 6a1.5 1.5 0 0 1 -2 0l-9 -9v-4a4 4 0 0 1 4 -4h4" />
  <circle cx="9" cy="9" r="2" />
</symbol>

<!-- tracing the actual logo -->
<symbol id="mastodon" width="24" height="24" viewBox="-1.5 -1.5 27 27" stroke-width="1" stroke="currentColor" fill="none" stroke-linecap="round" stroke-linejoin="round">
  <path d="
    M 21.545312 14.491488
    c -0.308581 1.587526 -2.763772 3.324918 -5.583563 3.661629 -1.470399 0.175449 -2.918124 0.336711 -4.461879 0.265901 -2.524668 -0.115672 -4.516805 -0.602613 -4.516805 -0.602613 0.0 0.245774 0.015156 0.479786 0.045469 0.698642 0.328224 2.491566 2.47059 2.640825 4.499951 2.710422 2.048276 0.070083 3.872119 -0.505006 3.872119 -0.505006
    l 0.084148 1.85173
    s -1.43269 0.769331 -3.984881 0.91083
    c -1.407349 0.077357 -3.154804 -0.035405 -5.190106 -0.574119
    C 1.895537 21.74054 1.136391 17.035191 1.020233 12.260851
    c -0.035405 -1.417534 -0.01358 -2.754194 -0.01358 -3.872119 0.0 -4.88201 3.198696 -6.313002 3.198696 -6.313002
    C 5.818217 1.335014 8.585748 1.023523 11.462889 1.0
    h 0.070689
    c 2.877141 0.023523 5.646491 0.335014 7.259238 1.07573 0.0 0.0 3.198575 1.430992 3.198575 6.313002 0.0 0.0 0.040134 3.601974 -0.446079 6.102755
  "/>
  <path d="
    M 6.3 14
    l 0 -5.5
    c 0 -4.5 5.5 -4.5 5.5 0
    l 0 3 l 0 -3
    c 0 -4.5 5.5 -4.5 5.5 0
    l 0 5.5
  "/>
</symbol>

</svg>
