<?xml version="1.0" encoding="UTF-8"?>

<!--

1000 samples of parametric curve

   x = 100 sin 2t - 50 sin 3t - 50 sin 5t
   y = 50√3 sin 5t - 50√3 sin 3t

Beizer control points generated from

   https://web.archive.org/web/20131225210855/http://people.sc.fsu.edu/~jburkardt/html/bezier_interpolation.html

Colour is hsluv with 100% saturation, 80% brightness, using official javascript hsluv library

   https://github.com/hsluv/hsluv/tree/master/javascript

-->

<svg xmlns="http://www.w3.org/2000/svg"
    width="200"
    height="200"
    viewBox="-200 -200 400 400"
    stroke-width="15"
>

<g id="root"
    stroke-linecap="round"
>

<path stroke="#ff4d81" d="M 0          0          C -1.25663   1.08828,    -2.51327   2.17655,    -3.76232   3.25537   "/>
<path stroke="#ff4d7e" d="M -3.76232   3.25537    C -5.01137   4.33418,    -6.25284   5.40353,    -7.47920   6.45404   "/>
<path stroke="#ff4e7a" d="M -7.47920   6.45404    C -8.70557   7.50457,    -9.91682   8.53625,    -11.10558  9.53993   "/>
<path stroke="#ff4f77" d="M -11.10558  9.53993    C -12.29435  10.54362,   -13.46062  11.51930,   -14.59720  12.45810  "/>
<path stroke="#ff4f73" d="M -14.59720  12.45810   C -15.73379  13.39691,   -16.84068  14.29884,   -17.91094  15.15539  "/>
<path stroke="#ff5070" d="M -17.91094  15.15539   C -18.98122  16.01196,   -20.01485  16.82314,   -21.00524  17.58094  "/>
<path stroke="#ff506c" d="M -21.00524  17.58094   C -21.99563  18.33876,   -22.94277  19.04318,   -23.84040  19.68675  "/>
<path stroke="#ff5168" d="M -23.84040  19.68675   C -24.73804  20.33035,   -25.58618  20.91309,   -26.37898  21.42818  "/>
<path stroke="#ff5163" d="M -26.37898  21.42818   C -27.17180  21.94329,   -27.90929  22.39073,   -28.58610  22.76442  "/>
<path stroke="#ff525f" d="M -28.58610  22.76442   C -29.26293  23.13814,   -29.87908  23.43809,   -30.42973  23.65896  "/>
<path stroke="#ff535a" d="M -30.42973  23.65896   C -30.98040  23.87987,   -31.46557  24.02169,   -31.88098  24.07997  "/>
<path stroke="#ff5355" d="M -31.88098  24.07997   C -32.29641  24.13827,   -32.64208  24.11303,   -32.91434  24.00065  "/>
<path stroke="#ff544f" d="M -32.91434  24.00065   C -33.18662  23.88831,   -33.38549  23.68883,   -33.50792  23.39959  "/>
<path stroke="#ff5449" d="M -33.50792  23.39959   C -33.63038  23.11037,   -33.67639  22.73139,   -33.64362  22.26096  "/>
<path stroke="#ff5542" d="M -33.64362  22.26096   C -33.61086  21.79057,   -33.49931  21.22874,   -33.30729  20.57479  "/>
<path stroke="#ff5539" d="M -33.30729  20.57479   C -33.11528  19.92088,   -32.84280  19.17486,   -32.48886  18.33707  "/>
<path stroke="#ff562f" d="M -32.48886  18.33707   C -32.13494  17.49932,   -31.69956  16.56979,   -31.18243  15.54987  "/>
<path stroke="#ff5722" d="M -31.18243  15.54987   C -30.66533  14.52998,   -30.06648  13.41968,   -29.38632  12.22136  "/>
<path stroke="#ff570b" d="M -29.38632  12.22136   C -28.70618  11.02308,   -27.94472  9.73678,    -27.10307  8.36584   "/>
<path stroke="#fc5a00" d="M -27.10307  8.36584    C -26.26145  6.99493,    -25.33964  5.53939,    -24.33946  4.00358   "/>
<path stroke="#f95e00" d="M -24.33946  4.00358    C -23.33931  2.46781,    -22.26079  0.85177,    -21.10642  -0.83922  "/>
<path stroke="#f66100" d="M -21.10642  -0.83922   C -19.95206  -2.53018,   -18.72185  -4.29609,   -17.41893  -6.13073  "/>
<path stroke="#f26400" d="M -17.41893  -6.13073   C -16.11604  -7.96534,   -14.74045  -9.86866,   -13.29596  -11.83363 "/>
<path stroke="#ef6700" d="M -13.29596  -11.83363  C -11.85148  -13.79858,  -10.33811  -15.82516,  -8.76022   -17.90549 "/>
<path stroke="#ed6900" d="M -8.76022   -17.90549  C -7.18235   -19.98580,  -5.53998   -22.11987,  -3.83805   -24.29907 "/>
<path stroke="#ea6c00" d="M -3.83805   -24.29907  C -2.13614   -26.47825,  -0.37469   -28.70257,  1.44083    -30.96274 "/>
<path stroke="#e76e00" d="M 1.44083    -30.96274  C 3.25635    -33.22290,  5.12593    -35.51892,  7.04363    -37.84094 "/>
<path stroke="#e57000" d="M 7.04363    -37.84094  C 8.96131    -40.16294,  10.92711   -42.51094,  12.93463   -44.87461 "/>
<path stroke="#e27100" d="M 12.93463   -44.87461  C 14.94215   -47.23825,  16.99140   -49.61755,  19.07562   -52.00176 "/>
<path stroke="#e07300" d="M 19.07562   -52.00176  C 21.15983   -54.38595,  23.27902   -56.77505,  25.42612   -59.15799 "/>
<path stroke="#de7400" d="M 25.42612   -59.15799  C 27.57320   -61.54093,  29.74819   -63.91771,  31.94376   -66.27709 "/>
<path stroke="#dc7600" d="M 31.94376   -66.27709  C 34.13932   -68.63646,  36.35545   -70.97841,  38.58464   -73.29159 "/>
<path stroke="#da7700" d="M 38.58464   -73.29159  C 40.81382   -75.60478,  43.05606   -77.88918,  45.30368   -80.13344 "/>
<path stroke="#d87900" d="M 45.30368   -80.13344  C 47.55131   -82.37770,  49.80433   -84.58182,  52.05501   -86.73455 "/>
<path stroke="#d67a00" d="M 52.05501   -86.73455  C 54.30569   -88.88728,  56.55403   -90.98861,  58.79230   -93.02750 "/>
<path stroke="#d47b00" d="M 58.79230   -93.02750  C 61.03058   -95.06640,  63.25878   -97.04284,  65.46923   -98.94611 "/>
<path stroke="#d27c00" d="M 65.46923   -98.94611  C 67.67969   -100.84939, 69.87239   -102.67949, 72.03979   -104.42608"/>
<path stroke="#d07d00" d="M 72.03979   -104.42608 C 74.20719   -106.17270, 76.34929   -107.83581, 78.45870   -109.40562"/>
<path stroke="#cf7e00" d="M 78.45870   -109.40562 C 80.56812   -110.97545, 82.64486   -112.45197, 84.68177   -113.82598"/>
<path stroke="#cd7f00" d="M 84.68177   -113.82598 C 86.71870   -115.20003, 88.71581   -116.47156, 90.66627   -117.63210"/>
<path stroke="#cb8000" d="M 90.66627   -117.63210 C 92.61674   -118.79266, 94.52055   -119.84222, 96.37124   -120.77306"/>
<path stroke="#ca8100" d="M 96.37124   -120.77306 C 98.22194   -121.70393, 100.01951  -122.51608, 101.75787  -123.20267"/>
<path stroke="#c88200" d="M 101.75787  -123.20267 C 103.49624  -123.88929, 105.17541  -124.45033, 106.78976  -124.87988"/>
<path stroke="#c68200" d="M 106.78976  -124.87988 C 108.40412  -125.30947, 109.95365  -125.60757, 111.43324  -125.76925"/>
<path stroke="#c58300" d="M 111.43324  -125.76925 C 112.91284  -125.93096, 114.32250  -125.95626, 115.65762  -125.84127"/>
<path stroke="#c38400" d="M 115.65762  -125.84127 C 116.99277  -125.72632, 118.25338  -125.47108, 119.43544  -125.07277"/>
<path stroke="#c28500" d="M 119.43544  -125.07277 C 120.61752  -124.67451, 121.72106  -124.13317, 122.74263  -123.44713"/>
<path stroke="#c08500" d="M 122.74263  -123.44713 C 123.76423  -122.76114, 124.70386  -121.93043, 125.55875  -120.95454"/>
<path stroke="#bf8600" d="M 125.55875  -120.95454 C 126.41366  -119.97870, 127.18382  -118.85767, 127.86709  -117.59216"/>
<path stroke="#be8700" d="M 127.86709  -117.59216 C 128.55038  -116.32669, 129.14678  -114.91674, 129.65480  -113.36419"/>
<path stroke="#bc8700" d="M 129.65480  -113.36419 C 130.16284  -111.81169, 130.58249  -110.11660, 130.91294  -108.28198"/>
<path stroke="#bb8800" d="M 130.91294  -108.28198 C 131.24342  -106.44741, 131.48468  -104.47332, 131.63658  -102.36396"/>
<path stroke="#b98900" d="M 131.63658  -102.36396 C 131.78850  -100.25464, 131.85105  -98.01004,  131.82474  -95.63557 "/>
<path stroke="#b88900" d="M 131.82474  -95.63557  C 131.79844  -93.26113,  131.68328  -90.75682,  131.48040  -88.12914 "/>
<path stroke="#b78a00" d="M 131.48040  -88.12914  C 131.27754  -85.50149,  130.98697  -82.75048,  130.61045  -79.88368 "/>
<path stroke="#b58a00" d="M 130.61045  -79.88368  C 130.23396  -77.01691,  129.77153  -74.03435,  129.22556  -70.94461 "/>
<path stroke="#b48b00" d="M 129.22556  -70.94461  C 128.67961  -67.85490,  128.05013  -64.65800,  127.34008  -61.36347 "/>
<path stroke="#b38b00" d="M 127.34008  -61.36347  C 126.63005  -58.06898,  125.83947  -54.67685,  124.97187  -51.19754 "/>
<path stroke="#b28c00" d="M 124.97187  -51.19754  C 124.10428  -47.71826,  123.15967  -44.15180,  122.14210  -40.50941 "/>
<path stroke="#b08c00" d="M 122.14210  -40.50941  C 121.12455  -36.86704,  120.03403  -33.14875,  118.87508  -29.36652 "/>
<path stroke="#af8d00" d="M 118.87508  -29.36652  C 117.71614  -25.58430,  116.48878  -21.73814,  115.19794  -17.84065 "/>
<path stroke="#ae8d00" d="M 115.19794  -17.84065  C 113.90713  -13.94318,  112.55285  -9.99438,   111.14046  -6.00739  "/>
<path stroke="#ac8e00" d="M 111.14046  -6.00739   C 109.72808  -2.02042,   108.25759  2.00472,    106.73468  6.05448   "/>
<path stroke="#ab8e00" d="M 106.73468  6.05448    C 105.21177  10.10422,   103.63645  14.17856,   102.01467  18.26360  "/>
<path stroke="#aa8f00" d="M 102.01467  18.26360   C 100.39290  22.34863,   98.72467   26.44436,   97.01619   30.53665  "/>
<path stroke="#a98f00" d="M 97.01619   30.53665   C 95.30771   34.62895,   93.55897   38.71781,   91.77633   42.78902  "/>
<path stroke="#a79000" d="M 91.77633   42.78902   C 89.99370   46.86023,   88.17717   50.91379,   86.33320   54.93548  "/>
<path stroke="#a69000" d="M 86.33320   54.93548   C 84.48925   58.95717,   82.61786   62.94699,   80.72557   66.89086  "/>
<path stroke="#a59100" d="M 80.72557   66.89086   C 78.83327   70.83474,   76.92007   74.73265,   74.99248   78.57076  "/>
<path stroke="#a49100" d="M 74.99248   78.57076   C 73.06488   82.40888,   71.12289   86.18719,   69.17294   89.89219  "/>
<path stroke="#a29200" d="M 69.17294   89.89219   C 67.22300   93.59720,   65.26510   97.22890,   63.30557   100.77425 "/>
<path stroke="#a19200" d="M 63.30557   100.77425  C 61.34604   104.31962,  59.38487   107.77864,  57.42822   111.13882 "/>
<path stroke="#a09200" d="M 57.42822   111.13882  C 55.47155   114.49904,  53.51940   117.76041,  51.57766   120.91115 "/>
<path stroke="#9e9300" d="M 51.57766   120.91115  C 49.63590   124.06192,  47.70457   127.10205,  45.78926   130.02049 "/>
<path stroke="#9d9300" d="M 45.78926   130.02049  C 43.87394   132.93897,  41.97465   135.73576,  40.09668   138.40067 "/>
<path stroke="#9c9400" d="M 40.09668   138.40067  C 38.21870   141.06561,  36.36203   143.59868,  34.53159   145.99061 "/>
<path stroke="#9a9400" d="M 34.53159   145.99061  C 32.70112   148.38258,  30.89689   150.63341,  29.12336   152.73487 "/>
<path stroke="#999500" d="M 29.12336   152.73487  C 27.34982   154.83637,  25.60698   156.78849,  23.89889   158.58407 "/>
<path stroke="#989500" d="M 23.89889   158.58407  C 22.19077   160.37970,  20.51740   162.01878,  18.88231   163.49530 "/>
<path stroke="#969500" d="M 18.88231   163.49530  C 17.24720   164.97187,  15.65037   166.28587,  14.09486   167.43248 "/>
<path stroke="#959600" d="M 14.09486   167.43248  C 12.53932   168.57913,  11.02509   169.55838,  9.55466    170.36662 "/>
<path stroke="#939600" d="M 9.55466    170.36662  C 8.08421    171.17492,  6.65756    171.81221,  5.27664    172.27614 "/>
<path stroke="#929700" d="M 5.27664    172.27614  C 3.89570    172.74013,  2.56049    173.03075,  1.27239    173.14696 "/>
<path stroke="#919700" d="M 1.27239    173.14696  C -0.01573   173.26321,  -1.25675   173.20504,  -2.44987   172.97265 "/>
<path stroke="#8f9700" d="M -2.44987   172.97265  C -3.64301   172.74032,  -4.78825   172.33377,  -5.88537   171.75451 "/>
<path stroke="#8e9800" d="M -5.88537   171.75451  C -6.98250   171.17530,  -8.03151   170.42337,  -9.03274   169.50151 "/>
<path stroke="#8c9800" d="M -9.03274   169.50151  C -10.03398  168.57969,  -10.98744  167.48793,  -11.89402  166.23025 "/>
<path stroke="#8a9900" d="M -11.89402  166.23025  C -12.80061  164.97262,  -13.66032  163.54906,  -14.47457  161.96482 "/>
<path stroke="#899900" d="M -14.47457  161.96482  C -15.28885  160.38062,  -16.05767  158.63574,  -16.78300  156.73658 "/>
<path stroke="#879a00" d="M -16.78300  156.73658  C -17.50835  154.83746,  -18.19020  152.78407,  -18.83101  150.58393 "/>
<path stroke="#869a00" d="M -18.83101  150.58393  C -19.47183  148.38383,  -20.07161  146.03698,  -20.63325  143.55198 "/>
<path stroke="#849a00" d="M -20.63325  143.55198  C -21.19491  141.06701,  -21.71843  138.44388,  -22.20715  135.69217 "/>
<path stroke="#829b00" d="M -22.20715  135.69217  C -22.69588  132.94050,  -23.14981  130.06025,  -23.57266  127.06190 "/>
<path stroke="#809b00" d="M -23.57266  127.06190  C -23.99553  124.06358,  -24.38731  120.94717,  -24.75207  117.72397 "/>
<path stroke="#7e9c00" d="M -24.75207  117.72397  C -25.11685  114.50080,  -25.45460  111.17085,  -25.76970  107.74616 "/>
<path stroke="#7c9c00" d="M -25.76970  107.74616  C -26.08480  104.32149,  -26.37725  100.80208,  -26.65164  97.20060  "/>
<path stroke="#7a9d00" d="M -26.65164  97.20060   C -26.92604  93.59915,   -27.18238  89.91563,   -27.42546  86.16325  "/>
<path stroke="#789d00" d="M -27.42546  86.16325   C -27.66855  82.41089,   -27.89838  78.58967,   -28.11988  74.71323  "/>
<path stroke="#769d00" d="M -28.11988  74.71323   C -28.34139  70.83680,   -28.55458  66.90514,   -28.76446  62.93220  "/>
<path stroke="#749e00" d="M -28.76446  62.93220   C -28.97435  58.95926,   -29.18093  54.94505,   -29.38926  50.90369  "/>
<path stroke="#729e00" d="M -29.38926  50.90369   C -29.59758  46.86234,   -29.80765  42.79385,   -30.02448  38.71245  "/>
<path stroke="#6f9f00" d="M -30.02448  38.71245   C -30.24130  34.63105,   -30.46489  30.53675,   -30.70016  26.44374  "/>
<path stroke="#6d9f00" d="M -30.70016  26.44374   C -30.93542  22.35072,   -31.18238  18.25900,   -31.44581  14.18264  "/>
<path stroke="#6aa000" d="M -31.44581  14.18264   C -31.70923  10.10627,   -31.98913  6.04527,    -32.29008  2.01343   "/>
<path stroke="#67a000" d="M -32.29008  2.01343    C -32.59103  -2.01842,   -32.91303  -6.02110,   -33.26044  -9.98116  "/>
<path stroke="#64a100" d="M -33.26044  -9.98116   C -33.60783  -13.94124,  -33.98062  -17.85870,  -34.38283  -21.72056 "/>
<path stroke="#61a100" d="M -34.38283  -21.72056  C -34.78503  -25.58245,  -35.21666  -29.38873,  -35.68140  -33.12699 "/>
<path stroke="#5ea200" d="M -35.68140  -33.12699  C -36.14612  -36.86529,  -36.64396  -40.53556,  -37.17819  -44.12607 "/>
<path stroke="#5ba200" d="M -37.17819  -44.12607  C -37.71240  -47.71661,  -38.28300  -51.22739,  -38.89284  -54.64740 "/>
<path stroke="#57a300" d="M -38.89284  -54.64740  C -39.50267  -58.06745,  -40.15174  -61.39673,  -40.84241  -64.62510 "/>
<path stroke="#53a300" d="M -40.84241  -64.62510  C -41.53307  -67.85351,  -42.26534  -70.98099,  -43.04108  -73.99830 "/>
<path stroke="#4ea400" d="M -43.04108  -73.99830  C -43.81680  -77.01566,  -44.63599  -79.92285,  -45.49998  -82.71160 "/>
<path stroke="#49a400" d="M -45.49998  -82.71160  C -46.36395  -85.50040,  -47.27271  -88.17076,  -48.22704  -90.71546 "/>
<path stroke="#43a500" d="M -48.22704  -90.71546  C -49.18134  -93.26020,  -50.18121  -95.67927,  -51.22681  -97.96655 "/>
<path stroke="#3da600" d="M -51.22681  -97.96655  C -52.27240  -100.25387, -53.36373  -102.40938, -54.50039  -104.42807"/>
<path stroke="#36a600" d="M -54.50039  -104.42807 C -55.63703  -106.44681, -56.81901  -108.32873, -58.04531  -110.06998"/>
<path stroke="#2ca700" d="M -58.04531  -110.06998 C -59.27159  -111.81126, -60.54220  -113.41188, -61.85552  -114.86914"/>
<path stroke="#20a700" d="M -61.85552  -114.86914 C -63.16883  -116.32644, -64.52485  -117.64038, -65.92138  -118.80948"/>
<path stroke="#0aa800" d="M -65.92138  -118.80948 C -67.31789  -119.97862, -68.75491  -121.00292, -70.22965  -121.88206"/>
<path stroke="#00a817" d="M -70.22965  -121.88206 C -71.70436  -122.76124, -73.21679  -123.49526, -74.76358  -124.08500"/>
<path stroke="#00a826" d="M -74.76358  -124.08500 C -76.31034  -124.67478, -77.89145  -125.12027, -79.50300  -125.42349"/>
<path stroke="#00a831" d="M -79.50300  -125.42349 C -81.11452  -125.72676, -82.75648  -125.88776, -84.42443  -125.90964"/>
<path stroke="#00a839" d="M -84.42443  -125.90964 C -86.09236  -125.93156, -87.78627  -125.81437, -89.50125  -125.56228"/>
<path stroke="#00a73f" d="M -89.50125  -125.56228 C -91.21620  -125.31023, -92.95221  -124.92329, -94.70387  -124.40672"/>
<path stroke="#00a745" d="M -94.70387  -124.40672 C -96.45553  -123.89019, -98.22283  -123.24403, -100.00000 -122.47448"/>
<path stroke="#00a74a" d="M -100.00000 -122.47448 C -101.77714 -121.70497, -103.56414 -120.81207, -105.35480 -119.80293"/>
<path stroke="#00a74f" d="M -105.35480 -119.80293 C -107.14545 -118.79382, -108.93977 -117.66848, -110.73126 -116.43488"/>
<path stroke="#00a753" d="M -110.73126 -116.43488 C -112.52273 -115.20130, -114.31137 -113.85948, -116.09040 -112.41814"/>
<path stroke="#00a656" d="M -116.09040 -112.41814 C -117.86943 -110.97683, -119.63885 -109.43600, -121.39167 -107.80507"/>
<path stroke="#00a65a" d="M -121.39167 -107.80507 C -123.14449 -106.17417, -124.88071 -104.45316, -126.59320 -102.65204"/>
<path stroke="#00a65d" d="M -126.59320 -102.65204 C -128.30569 -100.85093, -129.99444 -98.96971,  -131.65222 -97.01885 "/>
<path stroke="#00a660" d="M -131.65222 -97.01885  C -133.31000 -95.06799,  -134.93680 -93.04750,  -136.52536 -90.96821 "/>
<path stroke="#00a663" d="M -136.52536 -90.96821  C -138.11392 -88.88893,  -139.66423 -86.75085,  -141.16907 -84.56511 "/>
<path stroke="#00a665" d="M -141.16907 -84.56511  C -142.67390 -82.37937,  -144.13325 -80.14598,  -145.53996 -77.87622 "/>
<path stroke="#00a668" d="M -145.53996 -77.87622  C -146.94668 -75.60646,  -148.30076 -73.30035,  -149.59520 -70.96924 "/>
<path stroke="#00a56a" d="M -149.59520 -70.96924  C -150.88966 -68.63814,  -152.12449 -66.28206,  -153.29290 -63.91233 "/>
<path stroke="#00a56c" d="M -153.29290 -63.91233  C -154.46133 -61.54259,  -155.56335 -59.15922,  -156.59246 -56.77340 "/>
<path stroke="#00a56e" d="M -156.59246 -56.77340  C -157.62158 -54.38758,  -158.57779 -51.99932,  -159.45493 -49.61958 "/>
<path stroke="#00a570" d="M -159.45493 -49.61958  C -160.33209 -47.23984,  -161.13017 -44.86862,  -161.84342 -42.51655 "/>
<path stroke="#00a572" d="M -161.84342 -42.51655  C -162.55669 -40.16446,  -163.18511 -37.83153,  -163.72339 -35.52795 "/>
<path stroke="#00a574" d="M -163.72339 -35.52795  C -164.26168 -33.22435,  -164.70981 -30.95010,  -165.06298 -28.71486 "/>
<path stroke="#00a576" d="M -165.06298 -28.71486  C -165.41616 -26.47961,  -165.67437 -24.28338,  -165.83334 -22.13523 "/>
<path stroke="#00a578" d="M -165.83334 -22.13523  C -165.99233 -19.98706,  -166.05208 -17.88698,  -166.00890 -15.84337 "/>
<path stroke="#00a579" d="M -166.00890 -15.84337  C -165.96575 -13.79972,  -165.81967 -11.81255,  -165.56762 -9.88947  "/>
<path stroke="#00a47b" d="M -165.56762 -9.88947   C -165.31559 -7.96636,   -164.95759 -6.10735,   -164.49122 -4.31923  "/>
<path stroke="#00a47c" d="M -164.49122 -4.31923   C -164.02488 -2.53108,   -163.45018 -0.81383,   -162.76541 0.82658   "/>
<path stroke="#00a47e" d="M -162.76541 0.82658    C -162.08067 2.46704,    -161.28586 4.03068,    -160.38001 5.51248   "/>
<path stroke="#00a47f" d="M -160.38001 5.51248    C -159.47419 6.99431,    -158.45732 8.39431,    -157.32914 9.70844   "/>
<path stroke="#00a481" d="M -157.32914 9.70844    C -156.20099 11.02261,   -154.96155 12.25089,   -153.61128 13.39025  "/>
<path stroke="#00a482" d="M -153.61128 13.39025   C -152.26105 14.52965,   -150.80000 15.58012,   -149.22937 16.53961  "/>
<path stroke="#00a483" d="M -149.22937 16.53961   C -147.65877 17.49914,   -145.97859 18.36770,   -144.19081 19.14426  "/>
<path stroke="#00a485" d="M -144.19081 19.14426   C -142.40306 19.92086,   -140.50771 20.60546,   -138.50748 21.19806  "/>
<path stroke="#00a486" d="M -138.50748 21.19806   C -136.50727 21.79069,   -134.40220 22.29133,   -132.19568 22.70097  "/>
<path stroke="#00a387" d="M -132.19568 22.70097   C -129.98920 23.11064,   -127.68129 23.42933,   -125.27609 23.65901  "/>
<path stroke="#00a388" d="M -125.27609 23.65901   C -122.87093 23.88872,   -120.36848 24.02944,   -117.77360 24.08412  "/>
<path stroke="#00a38a" d="M -117.77360 24.08412   C -115.17875 24.13883,   -112.49145 24.10750,   -109.71721 23.99401  "/>
<path stroke="#00a38b" d="M -109.71721 23.99401   C -106.94298 23.88055,   -104.08181 23.68494,   -101.13980 23.41192  "/>
<path stroke="#00a38c" d="M -101.13980 23.41192   C -98.19781  23.13894,   -95.17498  22.78857,   -92.07798  22.36637  "/>
<path stroke="#00a38d" d="M -92.07798  22.36637   C -88.98101  21.94421,   -85.80988  21.45024,   -82.57180  20.89079  "/>
<path stroke="#00a38e" d="M -82.57180  20.89079   C -79.33374  20.33137,   -76.02873  19.70649,   -72.66447  19.02317  "/>
<path stroke="#00a38f" d="M -72.66447  19.02317   C -69.30023  18.33987,   -65.87673  17.59815,   -62.40210  16.80564  "/>
<path stroke="#00a390" d="M -62.40210  16.80564   C -58.92749  16.01315,   -55.40174  15.16989,   -51.83334  14.28403  "/>
<path stroke="#00a391" d="M -51.83334  14.28403   C -48.26496  13.39818,   -44.65393  12.46974,   -41.00905  11.50733  "/>
<path stroke="#00a392" d="M -41.00905  11.50733   C -37.36418  10.54494,   -33.68547  9.54859,    -29.98194  8.52725   "/>
<path stroke="#00a293" d="M -29.98194  8.52725    C -26.27842  7.50593,    -22.55010  6.45963,    -18.80619  5.39760   "/>
<path stroke="#00a294" d="M -18.80619  5.39760    C -15.06228  4.33557,    -11.30279  3.25782,    -7.53704   2.17375   "/>
<path stroke="#00a295" d="M -7.53704   2.17375    C -3.77129   1.08968,    0.00069    -0.00070,   3.76956    -1.08792  "/>
<path stroke="#00a296" d="M 3.76956    -1.08792   C 7.53843    -2.17515,   11.30417   -3.25922,   15.05743   -4.33068  "/>
<path stroke="#00a297" d="M 15.05743   -4.33068   C 18.81069   -5.40215,   22.55147   -6.46100,   26.27049   -7.49795  "/>
<path stroke="#00a298" d="M 26.27049   -7.49795   C 29.98953   -8.53490,   33.68681   -9.54993,   37.35323   -10.53395 "/>
<path stroke="#00a299" d="M 37.35323   -10.53395  C 41.01967   -11.51799,  44.65524   -12.47103,  48.25107   -13.38430 "/>
<path stroke="#00a29a" d="M 48.25107   -13.38430  C 51.84691   -14.29759,  55.40300   -15.17111,  58.91076   -15.99653 "/>
<path stroke="#00a29b" d="M 58.91076   -15.99653  C 62.41852   -16.82197,  65.87795   -17.59930,  69.28078   -18.32068 "/>
<path stroke="#00a29c" d="M 69.28078   -18.32068  C 72.68363   -19.04209,  76.02988   -19.70755,  79.31171   -20.30981 "/>
<path stroke="#00a29d" d="M 79.31171   -20.30981  C 82.59355   -20.91210,  85.81096   -21.45119,  88.95656   -21.92051 "/>
<path stroke="#00a19e" d="M 88.95656   -21.92051  C 92.10218   -22.38985,  95.17598   -22.78941,  98.17111   -23.11335 "/>
<path stroke="#00a19f" d="M 98.17111   -23.11335  C 101.16626  -23.43732,  104.08273  -23.68566,  106.91423  -23.85334 "/>
<path stroke="#00a1a0" d="M 106.91423  -23.85334  C 109.74574  -24.02105,  112.49228  -24.10809,  115.14814  -24.11029 "/>
<path stroke="#00a1a1" d="M 115.14814  -24.11029  C 117.80402  -24.11252,  120.36922  -24.02990,  122.83868  -23.85917 "/>
<path stroke="#00a1a2" d="M 122.83868  -23.85917  C 125.30817  -23.68847,  127.68192  -23.42965,  129.95554  -23.08039 "/>
<path stroke="#00a1a3" d="M 129.95554  -23.08039  C 132.22920  -22.73117,  134.40272  -22.29150,  136.47244  -21.76006 "/>
<path stroke="#00a1a4" d="M 136.47244  -21.76006  C 138.54219  -21.22866,  140.50813  -20.60548,  142.36729  -19.89019 "/>
<path stroke="#00a1a5" d="M 142.36729  -19.89019  C 144.22648  -19.17494,  145.97890  -18.36757,  147.62232  -17.46878 "/>
<path stroke="#00a1a6" d="M 147.62232  -17.46878  C 149.26576  -16.57002,  150.80020  -15.57984,  152.22416  -14.49993 "/>
<path stroke="#00a1a7" d="M 152.22416  -14.49993  C 153.64814  -13.42006,  154.96164  -12.25047,  156.16391  -10.99387 "/>
<path stroke="#00a0a8" d="M 156.16391  -10.99387  C 157.36622  -9.73731,   158.45730  -8.39374,   159.43716  -6.96688  "/>
<path stroke="#00a0a9" d="M 159.43716  -6.96688   C 160.41706  -5.54006,   161.28574  -4.02996,   162.04394  -2.44125  "/>
<path stroke="#00a0aa" d="M 162.04394  -2.44125   C 162.80218  -0.85258,   163.44994  0.81469,    163.98870  2.55493   "/>
<path stroke="#00a0ab" d="M 163.98870  2.55493    C 164.52748  4.29515,    164.95725  6.10834,    165.28018  7.98798   "/>
<path stroke="#00a0ac" d="M 165.28018  7.98798    C 165.60313  9.86759,    165.81923  11.81366,   165.93133  13.81883  "/>
<path stroke="#00a0ad" d="M 165.93133  13.81883   C 166.04344  15.82397,   166.05155  17.88820,   165.95911  20.00340  "/>
<path stroke="#00a0ae" d="M 165.95911  20.00340   C 165.86670  22.11857,   165.67376  24.28470,   165.38435  26.49295  "/>
<path stroke="#00a0af" d="M 165.38435  26.49295   C 165.09496  28.70118,   164.70911  30.95151,   164.23145  33.23449  "/>
<path stroke="#00a0b0" d="M 164.23145  33.23449   C 163.75380  35.51744,   163.18434  37.83303,   162.52821  40.17122  "/>
<path stroke="#009fb1" d="M 162.52821  40.17122   C 161.87210  42.50940,   161.12933  44.87018,   160.30552  47.24307  "/>
<path stroke="#009fb2" d="M 160.30552  47.24307   C 159.48172  49.61595,   158.57688  52.00094,   157.59705  54.38717  "/>
<path stroke="#009fb3" d="M 157.59705  54.38717   C 156.61722  56.77340,   155.56239  59.16087,   154.43895  61.53846  "/>
<path stroke="#009fb5" d="M 154.43895  61.53846   C 153.31553  63.91604,   152.12349  66.28373,   150.86953  68.63023  "/>
<path stroke="#009fb6" d="M 150.86953  68.63023   C 149.61559  70.97673,   148.29972  73.30203,   146.92887  75.59476  "/>
<path stroke="#009fb7" d="M 146.92887  75.59476   C 145.55802  77.88749,   144.13219  80.14765,   142.65847  82.36391  "/>
<path stroke="#009fb8" d="M 142.65847  82.36391   C 141.18476  84.58016,   139.66316  86.75250,   138.10090  88.86974  "/>
<path stroke="#009eb9" d="M 138.10090  88.86974   C 136.53864  90.98698,   134.93572  93.04911,   133.29940  95.04518  "/>
<path stroke="#009eba" d="M 133.29940  95.04518   C 131.66308  97.04126,   129.99337  98.97127,   128.29751  100.82461 "/>
<path stroke="#009ebc" d="M 128.29751  100.82461  C 126.60165  102.67797,  124.87965  104.45465,  123.13869  106.14450 "/>
<path stroke="#009ebd" d="M 123.13869  106.14450  C 121.39773  107.83438,  119.63781  109.43741,  117.86597  110.94400 "/>
<path stroke="#009ebe" d="M 117.86597  110.94400  C 116.09412  112.45062,  114.31036  113.86079,  112.52154  115.16554 "/>
<path stroke="#009ec0" d="M 112.52154  115.16554  C 110.73270  116.47032,  108.93880  117.66968,  107.14643  118.75537 "/>
<path stroke="#009dc1" d="M 107.14643  118.75537  C 105.35406  119.84109,  103.56321  120.81315,  101.78020  121.66410 "/>
<path stroke="#009dc2" d="M 101.78020  121.66410  C 99.99717   122.51509,  98.22196   123.24498,  96.46053   123.84721 "/>
<path stroke="#009dc4" d="M 96.46053   123.84721  C 94.69908   124.44948,  92.95140   124.92409,  91.22302   125.26546 "/>
<path stroke="#009dc5" d="M 91.22302   125.26546  C 89.49462   125.60686,  87.78553   125.81502,  86.10084   125.88535 "/>
<path stroke="#009dc7" d="M 86.10084   125.88535  C 84.41612   125.95572,  82.75581   125.88825,  81.12450   125.67945 "/>
<path stroke="#009cc9" d="M 81.12450   125.67945  C 79.49318   125.47070,  77.89086   125.12060,  76.32165   124.62676 "/>
<path stroke="#009cca" d="M 76.32165   124.62676  C 74.75241   124.13296,  73.21628   123.49542,  71.71681   122.71288 "/>
<path stroke="#009ccc" d="M 71.71681   122.71288  C 70.21732   121.93039,  68.75448   121.00290,  67.33129   119.93033 "/>
<path stroke="#009cce" d="M 67.33129   119.93033  C 65.90807   118.85780,  64.52451   117.64019,  63.18298   116.27860 "/>
<path stroke="#009bd0" d="M 63.18298   116.27860  C 61.84144   114.91705,  60.54194   113.41151,  59.28631   111.76427 "/>
<path stroke="#009bd1" d="M 59.28631   111.76427  C 58.03065   110.11708,  56.81884   108.32819,  55.65210   106.40106 "/>
<path stroke="#009bd3" d="M 55.65210   106.40106  C 54.48534   104.47398,  53.36365   102.40866,  52.28763   100.20975 "/>
<path stroke="#009bd6" d="M 52.28763   100.20975  C 51.21159   98.01087,   50.18122   95.67839,   49.19654   93.21808  "/>
<path stroke="#009ad8" d="M 49.19654   93.21808   C 48.21183   90.75781,   47.27281   88.16971,   46.37891   85.46065  "/>
<path stroke="#009ada" d="M 46.37891   85.46065   C 45.48499   82.75163,   44.63617   79.92165,   43.83134   76.97863  "/>
<path stroke="#0099dc" d="M 43.83134   76.97863   C 43.02648   74.03565,   42.26560   70.97964,   41.54701   67.81952  "/>
<path stroke="#0099df" d="M 41.54701   67.81952   C 40.82840   64.65944,   40.15207   61.39525,   39.51584   58.03682  "/>
<path stroke="#0099e2" d="M 39.51584   58.03682   C 38.87958   54.67842,   38.28341   51.22578,   37.72463   47.68962  "/>
<path stroke="#0098e4" d="M 37.72463   47.68962   C 37.16584   44.15348,   36.64443   40.53384,   36.15728   36.84218  "/>
<path stroke="#0098e7" d="M 36.15728   36.84218   C 35.67012   33.15054,   35.21720   29.38690,   34.79498   25.56345  "/>
<path stroke="#0097ea" d="M 34.79498   25.56345   C 34.37274   21.74002,   33.98120   17.85679,   33.61644   13.92656  "/>
<path stroke="#0096ee" d="M 33.61644   13.92656   C 33.25167   9.99634,    32.91367   6.01912,    32.59821   2.00819   "/>
<path stroke="#0096f1" d="M 32.59821   2.00819    C 32.28274   -2.00270,   31.98980   -6.04730,   31.71489   -10.11191 "/>
<path stroke="#0095f5" d="M 31.71489   -10.11191  C 31.43998   -14.17650,  31.18308   -18.26108,  30.93950   -22.35167 "/>
<path stroke="#0094fa" d="M 30.93950   -22.35167  C 30.69591   -26.44226,  30.46561   -30.53885,  30.24374   -34.62728 "/>
<path stroke="#0093fe" d="M 30.24374   -34.62728  C 30.02186   -38.71570,  29.80839   -42.79596,  29.59835   -46.85382 "/>
<path stroke="#1f92ff" d="M 29.59835   -46.85382  C 29.38830   -50.91168,  29.18168   -54.94714,  28.97344   -58.94603 "/>
<path stroke="#3091ff" d="M 28.97344   -58.94603  C 28.76519   -62.94491,  28.55532   -66.90721,  28.33880   -70.81890 "/>
<path stroke="#3d90ff" d="M 28.33880   -70.81890  C 28.12229   -74.73061,  27.89911   -78.59170,  27.66431   -82.38844 "/>
<path stroke="#478fff" d="M 27.66431   -82.38844  C 27.42952   -86.18520,  27.18309   -89.91760,  26.92020   -93.57228 "/>
<path stroke="#4f8eff" d="M 26.92020   -93.57228  C 26.65731   -97.22698,  26.37794   -100.80397, 26.07742   -104.29038"/>
<path stroke="#578cff" d="M 26.07742   -104.29038 C 25.77691   -107.77681, 25.45525   -111.17265, 25.10800   -114.46565"/>
<path stroke="#5e8bff" d="M 25.10800   -114.46565 C 24.76076   -117.75868, 24.38792   -120.94886, 23.98532   -124.02463"/>
<path stroke="#648aff" d="M 23.98532   -124.02463 C 23.58273   -127.10044, 23.15037   -130.06182, 22.68442   -132.89803"/>
<path stroke="#6a89ff" d="M 22.68442   -132.89803 C 22.21848   -135.73427, 21.71894   -138.44532, 21.18232   -141.02131"/>
<path stroke="#6f88ff" d="M 21.18232   -141.02131 C 20.64572   -143.59733, 20.07205   -146.03828, 19.45826   -148.33523"/>
<path stroke="#7486ff" d="M 19.45826   -148.33523 C 18.84448   -150.63222, 18.19058   -152.78521, 17.49394   -154.78631"/>
<path stroke="#7985ff" d="M 17.49394   -154.78631 C 16.79732   -156.78746, 16.05797   -158.63672, 15.27377   -160.32730"/>
<path stroke="#7d84ff" d="M 15.27377   -160.32730 C 14.48958   -162.01792, 13.66054   -163.54987, 12.78503   -164.91750"/>
<path stroke="#8283ff" d="M 12.78503   -164.91750 C 11.90955   -166.28519, 10.98759   -167.48856, 10.01809   -168.52319"/>
<path stroke="#8682ff" d="M 10.01809   -168.52319 C 9.04861    -169.55787, 8.03158    -170.42382, 6.96647    -171.11783"/>
<path stroke="#8a80ff" d="M 6.96647    -171.11783 C 5.90139    -171.81189, 4.78823    -172.33402, 3.62703    -172.68230"/>
<path stroke="#8e7fff" d="M 3.62703    -172.68230 C 2.46586    -173.03063, 1.25664    -173.20510, 0          -173.20508"/>
<path stroke="#927eff" d="M 0          -173.20508 C -1.25662   -173.20510, -2.56068   -173.03063, -3.91099   -172.68230"/>
<path stroke="#957cff" d="M -3.91099   -172.68230 C -5.26128   -172.33402, -6.65783   -171.81189, -8.09888   -171.11783"/>
<path stroke="#997bff" d="M -8.09888   -171.11783 C -9.53991   -170.42382, -11.02544  -169.55787, -12.55318  -168.52319"/>
<path stroke="#9c79ff" d="M -12.55318  -168.52319 C -14.08089  -167.48856, -15.65081  -166.28519, -17.26007  -164.91750"/>
<path stroke="#a078ff" d="M -17.26007  -164.91750 C -18.86932  -163.54987, -20.51791  -162.01792, -22.20248  -160.32730"/>
<path stroke="#a377ff" d="M -22.20248  -160.32730 C -23.88704  -158.63672, -25.60757  -156.78746, -27.36020  -154.78631"/>
<path stroke="#a675ff" d="M -27.36020  -154.78631 C -29.11282  -152.78521, -30.89754  -150.63222, -32.71003  -148.33523"/>
<path stroke="#aa74ff" d="M -32.71003  -148.33523 C -34.52251  -146.03828, -36.36275  -143.59733, -38.22598  -141.02131"/>
<path stroke="#ad72ff" d="M -38.22598  -141.02131 C -40.08921  -138.44532, -41.97543  -135.73427, -43.87948  -132.89803"/>
<path stroke="#b070ff" d="M -43.87948  -132.89803 C -45.78352  -130.06182, -47.70539  -127.10044, -49.63958  -124.02463"/>
<path stroke="#b36fff" d="M -49.63958  -124.02463 C -51.57377  -120.94886, -53.52027  -117.75868, -55.47328  -114.46565"/>
<path stroke="#b66dff" d="M -55.47328  -114.46565 C -57.42628  -111.17265, -59.38578  -107.77681, -61.34572  -104.29038"/>
<path stroke="#b96bff" d="M -61.34572  -104.29038 C -63.30566  -100.80397, -65.26603  -97.22698,  -67.22058  -93.57228 "/>
<path stroke="#bc69ff" d="M -67.22058  -93.57228  C -69.17512  -89.91760,  -71.12384  -86.18520,  -73.06032  -82.38844 "/>
<path stroke="#bf67ff" d="M -73.06032  -82.38844  C -74.99680  -78.59170,  -76.92104  -74.73061,  -78.82654  -70.81890 "/>
<path stroke="#c266ff" d="M -78.82654  -70.81890  C -80.73205  -66.90721,  -82.61883  -62.94491,  -84.48034  -58.94603 "/>
<path stroke="#c563ff" d="M -84.48034  -58.94603  C -86.34186  -54.94714,  -88.17813  -50.91168,  -89.98264  -46.85382 "/>
<path stroke="#c861ff" d="M -89.98264  -46.85382  C -91.78715  -42.79596,  -93.55992  -38.71570,  -95.29452  -34.62728 "/>
<path stroke="#cb5fff" d="M -95.29452  -34.62728  C -97.02914  -30.53885,  -98.72560  -26.44226,  -100.37764 -22.35167 "/>
<path stroke="#ce5dff" d="M -100.37764 -22.35167  C -102.02970 -18.26108,  -103.63734 -14.17650,  -105.19452 -10.11191 "/>
<path stroke="#d15aff" d="M -105.19452 -10.11191  C -106.75171 -6.04730,   -108.25844 -2.00270,   -109.70892 2.00819   "/>
<path stroke="#d458ff" d="M -109.70892 2.00819    C -111.15941 6.01912,    -112.55365 9.99634,    -113.88617 13.92656  "/>
<path stroke="#d755ff" d="M -113.88617 13.92656   C -115.21871 17.85679,   -116.48952 21.74002,   -117.69351 25.56345  "/>
<path stroke="#da52ff" d="M -117.69351 25.56345   C -118.89752 29.38690,   -120.03471 33.15054,   -121.10039 36.84218  "/>
<path stroke="#dd4fff" d="M -121.10039 36.84218   C -122.16609 40.53384,   -123.16029 44.15348,   -124.07876 47.68962  "/>
<path stroke="#e04cff" d="M -124.07876 47.68962   C -124.99725 51.22578,   -125.84001 54.67842,   -126.60333 58.03682  "/>
<path stroke="#e348ff" d="M -126.60333 58.03682   C -127.36668 61.39525,   -128.05058 64.65944,   -128.65188 67.81952  "/>
<path stroke="#e644ff" d="M -128.65188 67.81952   C -129.25319 70.97964,   -129.77190 74.03565,   -130.20540 76.97863  "/>
<path stroke="#e940ff" d="M -130.20540 76.97863   C -130.63893 79.92165,   -130.98725 82.75163,   -131.24837 85.46065  "/>
<path stroke="#ec3bff" d="M -131.24837 85.46065   C -131.50952 88.16971,   -131.68347 90.75781,   -131.76886 93.21808  "/>
<path stroke="#ef35ff" d="M -131.76886 93.21808   C -131.85428 95.67839,   -131.85114 98.01087,   -131.75873 100.20975 "/>
<path stroke="#f22fff" d="M -131.75873 100.20975  C -131.66634 102.40866,  -131.48467 104.47398,  -131.21367 106.40106 "/>
<path stroke="#f527ff" d="M -131.21367 106.40106  C -130.94270 108.32819,  -130.58239 110.11708,  -130.13335 111.76427 "/>
<path stroke="#f91cff" d="M -130.13335 111.76427  C -129.68433 113.41151,  -129.14658 114.91705,  -128.52136 116.27860 "/>
<path stroke="#fc0aff" d="M -128.52136 116.27860  C -127.89618 117.64019,  -127.18352 118.85780,  -126.38533 119.93033 "/>
<path stroke="#fe00fd" d="M -126.38533 119.93033  C -125.58717 121.00290,  -124.70347 121.93039,  -123.73680 122.71288 "/>
<path stroke="#fe00fb" d="M -123.73680 122.71288  C -122.77017 123.49542,  -121.72057 124.13296,  -120.59121 124.62676 "/>
<path stroke="#ff03f8" d="M -120.59121 124.62676  C -119.46188 125.12060,  -118.25280 125.47070,  -116.96777 125.67945 "/>
<path stroke="#ff0cf5" d="M -116.96777 125.67945  C -115.68277 125.88825,  -114.32183 125.95572,  -112.88936 125.88535 "/>
<path stroke="#ff13f2" d="M -112.88936 125.88535  C -111.45690 125.81502,  -109.95291 125.60686,  -108.38232 125.26546 "/>
<path stroke="#ff17ef" d="M -108.38232 125.26546  C -106.81175 124.92409,  -105.17459 124.44948,  -103.47630 123.84721 "/>
<path stroke="#ff1bec" d="M -103.47630 123.84721  C -101.77802 123.24498,  -100.01862 122.51509,  -98.20400  121.66410 "/>
<path stroke="#ff1fe9" d="M -98.20400  121.66410  C -96.38941  120.81315,  -94.51961  119.84109,  -92.60095  118.75537 "/>
<path stroke="#ff22e6" d="M -92.60095  118.75537  C -90.68230  117.66968,  -88.71481  116.47032,  -86.70518  115.16554 "/>
<path stroke="#ff24e4" d="M -86.70518  115.16554  C -84.69556  113.86079,  -82.64381  112.45062,  -80.55696  110.94400 "/>
<path stroke="#ff27e1" d="M -80.55696  110.94400  C -78.47013  109.43741,  -76.34820  107.83438,  -74.19848  106.14450 "/>
<path stroke="#ff29de" d="M -74.19848  106.14450  C -72.04877  104.45465,  -69.87128  102.67797,  -67.67349  100.82461 "/>
<path stroke="#ff2bdc" d="M -67.67349  100.82461  C -65.47571  98.97127,   -63.25764  97.04126,   -61.02694  95.04518  "/>
<path stroke="#ff2dd9" d="M -61.02694  95.04518   C -58.79623  93.04911,   -56.55289  90.98698,   -54.30462  88.86974  "/>
<path stroke="#ff2ed7" d="M -54.30462  88.86974   C -52.05636  86.75250,   -49.80318  84.58016,   -47.55282  82.36391  "/>
<path stroke="#ff30d4" d="M -47.55282  82.36391   C -45.30246  80.14765,   -43.05492  77.88749,   -40.81789  75.59476  "/>
<path stroke="#ff31d2" d="M -40.81789  75.59476   C -38.58086  73.30203,   -36.35433  70.97673,   -34.14590  68.63023  "/>
<path stroke="#ff33cf" d="M -34.14590  68.63023   C -31.93745  66.28373,   -29.74710  63.91604,   -27.58223  61.53846  "/>
<path stroke="#ff34cd" d="M -27.58223  61.53846   C -25.41735  59.16087,   -23.27797  56.77340,   -21.17123  54.38717  "/>
<path stroke="#ff35ca" d="M -21.17123  54.38717   C -19.06448  52.00094,   -16.99039  49.61595,   -14.95581  47.24307  "/>
<path stroke="#ff37c8" d="M -14.95581  47.24307   C -12.92122  44.87018,   -10.92615  42.50940,   -8.97711   40.17122  "/>
<path stroke="#ff38c6" d="M -8.97711   40.17122   C -7.02806   37.83303,   -5.12504   35.51744,   -3.27415   33.23449  "/>
<path stroke="#ff39c3" d="M -3.27415   33.23449   C -1.42325   30.95151,   0.37551    28.70118,   2.11650    26.49295  "/>
<path stroke="#ff3ac1" d="M 2.11650    26.49295   C 3.85750    24.28470,   5.54073    22.11857,   7.16103    20.00340  "/>
<path stroke="#ff3bbf" d="M 7.16103    20.00340   C 8.78136    17.88820,   10.33877   15.82397,   11.82868   13.81883  "/>
<path stroke="#ff3cbc" d="M 11.82868   13.81883   C 13.31861   11.81366,   14.74103   9.86759,    16.09195   7.98798   "/>
<path stroke="#ff3dba" d="M 16.09195   7.98798    C 17.44289   6.10834,    18.72233   4.29515,    19.92689   2.55493   "/>
<path stroke="#ff3eb8" d="M 19.92689   2.55493    C 21.13148   0.81469,    22.26118   -0.85258,   23.31328   -2.44125  "/>
<path stroke="#ff3fb5" d="M 23.31328   -2.44125   C 24.36541   -4.02996,   25.33993   -5.54006,   26.23479   -6.96688  "/>
<path stroke="#ff3fb3" d="M 26.23479   -6.96688   C 27.12968   -8.39374,   27.94491   -9.73731,   28.67911   -10.99387 "/>
<path stroke="#ff40b1" d="M 28.67911   -10.99387  C 29.41335   -12.25047,  30.06656   -13.42006,  30.63810   -14.49993 "/>
<path stroke="#ff41ae" d="M 30.63810   -14.49993  C 31.20966   -15.57984,  31.69953   -16.57002,  32.10777   -17.46878 "/>
<path stroke="#ff42ac" d="M 32.10777   -17.46878  C 32.51604   -18.36757,  32.84267   -19.17494,  33.08842   -19.89019 "/>
<path stroke="#ff43a9" d="M 33.08842   -19.89019  C 33.33419   -20.60548,  33.49908   -21.22866,  33.58454   -21.76006 "/>
<path stroke="#ff43a7" d="M 33.58454   -21.76006  C 33.67002   -22.29150,  33.67606   -22.73117,  33.60481   -23.08039 "/>
<path stroke="#ff44a5" d="M 33.60481   -23.08039  C 33.53358   -23.42965,  33.38506   -23.68847,  33.16204   -23.85917 "/>
<path stroke="#ff45a2" d="M 33.16204   -23.85917  C 32.93904   -24.02990,  32.64155   -24.11252,  32.27302   -24.11029 "/>
<path stroke="#ff46a0" d="M 32.27302   -24.11029  C 31.90451   -24.10809,  31.46495   -24.02105,  30.95841   -23.85334 "/>
<path stroke="#ff469d" d="M 30.95841   -23.85334  C 30.45189   -23.68566,  29.87838   -23.43732,  29.24252   -23.11335 "/>
<path stroke="#ff479b" d="M 29.24252   -23.11335  C 28.60669   -22.78941,  27.90851   -22.38985,  27.15316   -21.92051 "/>
<path stroke="#ff4898" d="M 27.15316   -21.92051  C 26.39783   -21.45119,  25.58533   -20.91210,  24.72132   -20.30981 "/>
<path stroke="#ff4896" d="M 24.72132   -20.30981  C 23.85734   -19.70755,  22.94185   -19.04209,  21.98098   -18.32068 "/>
<path stroke="#ff4993" d="M 21.98098   -18.32068  C 21.02012   -17.59930,  20.01388   -16.82197,  18.96876   -15.99653 "/>
<path stroke="#ff4a90" d="M 18.96876   -15.99653  C 17.92365   -15.17111,  16.83966   -14.29759,  15.72363   -13.38430 "/>
<path stroke="#ff4a8e" d="M 15.72363   -13.38430  C 14.60762   -12.47103,  13.45956   -11.51799,  12.28659   -10.53395 "/>
<path stroke="#ff4b8b" d="M 12.28659   -10.53395  C 11.11362   -9.54993,   9.91573    -8.53490,   8.70026    -7.49795  "/>
<path stroke="#ff4b88" d="M 8.70026    -7.49795   C 7.48478    -6.46100,   6.25173    -5.40215,   5.00857    -4.33068  "/>
<path stroke="#ff4c85" d="M 5.00857    -4.33068   C 3.76541    -3.25922,   2.51215    -2.17515,   1.25635    -1.08792  "/>
<path stroke="#ff4d82" d="M 1.25635    -1.08792   C 2.51327    -2.17655,   1.25663    -1.08828,   0          0         "/>

</g>

</svg>
